<?xml version="1.0" standalone="no"?>
<!DOCTYPE svg PUBLIC "-//W3C//DTD SVG 20010904//EN"
 "http://www.w3.org/TR/2001/REC-SVG-20010904/DTD/svg10.dtd">
<svg version="1.0" xmlns="http://www.w3.org/2000/svg"
 width="700.000000pt" height="700.000000pt" viewBox="0 0 700.000000 700.000000"
 preserveAspectRatio="xMidYMid meet">
<metadata>
Created by potrace 1.11, written by Peter Selinger 2001-2013
</metadata>
<g transform="translate(0.000000,700.000000) scale(0.100000,-0.100000)"
fill="#000000" stroke="none">
<path d="M3679 6216 c-2 -2 -42 -7 -89 -10 -75 -6 -292 -32 -338 -41 -10 -2
-26 -4 -37 -4 -45 -2 -47 -14 -15 -91 17 -40 32 -83 34 -94 3 -12 11 -46 19
-76 23 -83 38 -191 42 -295 2 -38 4 -79 4 -90 1 -19 8 -20 249 -20 287 -1 362
-6 617 -41 213 -30 480 -89 649 -145 33 -10 64 -19 70 -19 12 0 91 133 130
220 59 130 102 341 101 489 l0 66 -110 28 c-183 46 -421 88 -585 103 -30 3
-66 8 -80 11 -27 6 -655 14 -661 9z"/>
<path d="M2780 6059 c-392 -115 -724 -259 -1060 -461 -116 -70 -220 -138 -220
-145 0 -4 38 -43 84 -87 46 -45 113 -117 148 -162 64 -81 64 -81 93 -68 148
65 224 94 380 145 108 36 341 101 405 113 14 3 61 12 105 21 44 9 94 19 110
21 190 29 230 36 233 39 6 6 5 139 -2 205 -15 140 -100 408 -131 416 -5 1 -71
-16 -145 -37z"/>
<path d="M5349 5972 c0 -9 -2 -33 -4 -52 -2 -19 -6 -63 -9 -96 -12 -140 -69
-330 -142 -476 -24 -50 -51 -99 -59 -111 -24 -34 -33 -27 125 -92 127 -53 447
-218 528 -274 28 -19 166 -108 193 -126 58 -36 247 -178 348 -262 135 -111
295 -131 448 -56 59 28 143 106 168 155 85 164 64 353 -52 474 -161 167 -555
461 -788 588 -39 21 -74 42 -80 46 -35 27 -314 159 -450 213 -207 82 -225 88
-226 69z"/>
<path d="M1254 5272 c-16 -15 -52 -45 -79 -67 -188 -154 -420 -394 -628 -650
-75 -93 -260 -370 -324 -485 -16 -30 -40 -73 -53 -95 -55 -96 -173 -344 -152
-320 4 6 37 51 72 100 35 50 89 119 119 155 31 35 67 78 81 94 103 124 327
348 450 450 47 39 91 77 98 83 44 42 411 303 426 303 2 0 26 15 53 33 26 17
94 57 151 87 56 30 102 59 102 64 0 30 -249 277 -278 276 -4 0 -21 -13 -38
-28z"/>
<path d="M5245 4556 c-121 -46 -227 -86 -235 -89 -8 -3 -76 -28 -150 -56 -74
-27 -389 -145 -700 -261 -311 -116 -592 -220 -626 -231 -182 -57 -243 -256
-117 -383 62 -64 169 -84 248 -47 32 14 401 245 585 366 55 36 172 110 705
450 460 293 527 336 515 334 -3 0 -104 -38 -225 -83z"/>
<path d="M2678 2721 c-23 -7 -26 -23 -23 -95 6 -118 27 -806 27 -891 1 -33 -3
-233 -7 -445 -10 -439 -10 -469 -2 -476 3 -3 200 -7 439 -8 238 -2 505 -6 594
-11 201 -10 210 -8 219 47 4 24 9 51 11 61 1 10 4 61 5 113 3 104 -3 117 -51
109 -50 -9 -107 -14 -205 -20 -55 -3 -129 -8 -165 -10 -36 -2 -161 -5 -278 -6
-162 -2 -216 1 -222 10 -4 7 -9 49 -10 94 -7 168 -4 761 4 1012 13 400 14 493
5 506 -5 9 -52 12 -168 13 -89 1 -167 -1 -173 -3z"/>
<path d="M1079 2710 c-10 -7 -10 -23 8 -585 9 -277 9 -541 0 -978 -6 -277 -5
-328 7 -333 7 -3 207 -7 442 -8 236 -2 508 -7 605 -11 144 -6 178 -5 185 6 15
25 29 133 29 224 l0 90 -45 -1 c-25 0 -74 -4 -110 -7 -202 -21 -755 -33 -765
-18 -3 6 -8 48 -11 93 -6 99 -6 709 0 893 14 421 18 635 10 636 -36 5 -346 4
-355 -1z"/>
<path d="M4389 2697 c-10 -18 -14 -98 -24 -484 l-6 -222 144 -283 c158 -311
172 -337 382 -726 78 -144 102 -182 119 -183 86 -4 265 -1 281 4 24 8 24 9
105 162 34 66 66 125 70 130 4 6 40 73 80 150 40 77 76 145 80 150 20 26 247
479 275 547 l32 77 2 325 c1 180 0 335 -4 346 -6 18 -17 19 -175 19 -117 0
-172 -4 -177 -11 -3 -7 -5 -109 -3 -227 6 -463 8 -440 -25 -517 -34 -81 -171
-351 -225 -444 -20 -36 -51 -90 -67 -120 -75 -135 -107 -190 -112 -190 -5 0
-89 146 -215 375 -64 116 -182 357 -196 398 -12 39 -8 202 15 639 3 56 1 89
-6 94 -6 3 -85 7 -176 8 -148 1 -166 -1 -174 -17z"/>
</g>
</svg>
