<?xml version="1.0" encoding="utf-8"?>
<!-- Generator: Adobe Illustrator 22.1.0, SVG Export Plug-In . SVG Version: 6.00 Build 0)  -->
<svg version="1.1" id="Camada_1" xmlns="http://www.w3.org/2000/svg" xmlns:xlink="http://www.w3.org/1999/xlink" x="0px" y="0px"
	 viewBox="0 0 1450 450" style="enable-background:new 0 0 1450 450;" xml:space="preserve">
<style type="text/css">
	.st0{fill:#373435;}
	.st1{font-family:'Raleway-Regular';}
	.st2{font-size:40px;}
	.st3{font-size:25px;}
	.st4{fill:#221F20;stroke:#221F20;stroke-width:0.5669;stroke-miterlimit:10;}
	.st5{fill:#E5E6E7;stroke:#221F20;stroke-width:0.5669;stroke-miterlimit:10;}
	.st6{fill:none;stroke:#221F20;stroke-width:0.5669;stroke-miterlimit:10;}
	.st7{fill:#062274;stroke:#221F20;stroke-width:0.5669;stroke-miterlimit:10;}
	.st8{fill:#ED1B23;stroke:#221F20;stroke-width:0.5669;stroke-miterlimit:10;}
	.st9{fill:#FFFFFF;}
	.st10{fill:#FEFEFE;}
</style>
<rect x="-43.4" y="30" class="st0" width="30" height="30"/>
<rect x="-43.4" y="337.3" class="st0" width="30" height="30"/>
<text transform="matrix(0.9232 0 0 1 454.0146 367.3184)" class="st0 st1 st2">1/43 - Alfa Romeo JK 2150 1968</text>
<text transform="matrix(0.9232 0 0 1 631.9043 413.6357)" class="st0 st1 st3">Jayme Silva nยบ 81</text>
<rect x="-98.4" y="60" class="st0" width="55" height="277.3"/>
<g>
	<path class="st4" d="M422.7,209.3c33.2,0,60.2,25.7,60.2,57.3s-26.9,57.3-60.2,57.3c-33.2,0-60.2-25.7-60.2-57.3
		S389.5,209.3,422.7,209.3L422.7,209.3z"/>
	<path class="st5" d="M422.7,225.8c23.6,0,42.8,18.2,42.8,40.8c0,22.5-19.2,40.8-42.8,40.8c-23.7,0-42.8-18.2-42.8-40.8
		C379.9,244.1,399.1,225.8,422.7,225.8L422.7,225.8z"/>
	<path class="st6" d="M422.7,230.1c21.1,0,38.3,16.3,38.3,36.5c0,20.1-17.1,36.5-38.3,36.5c-21.2,0-38.3-16.3-38.3-36.5
		C384.4,246.5,401.6,230.1,422.7,230.1L422.7,230.1z"/>
	<path class="st6" d="M422.7,236.2c18.4,0,33.4,14.2,33.4,31.8s-14.9,31.8-33.4,31.8c-18.4,0-33.4-14.2-33.4-31.8
		C389.4,250.4,404.3,236.2,422.7,236.2L422.7,236.2z"/>
	<path class="st6" d="M422.7,251.1c9.7,0,17.7,7.6,17.7,16.8c0,9.3-7.9,16.8-17.7,16.8c-9.8,0-17.7-7.5-17.7-16.8
		C405,258.7,413,251.1,422.7,251.1L422.7,251.1z"/>
	<path class="st6" d="M422.7,255.3c7.4,0,13.3,5.7,13.3,12.7s-6,12.7-13.3,12.7c-7.4,0-13.3-5.7-13.3-12.7
		C409.4,261,415.4,255.3,422.7,255.3L422.7,255.3z"/>
	<path class="st4" d="M422.7,262.5c3.2,0,5.7,2.4,5.7,5.5c0,3-2.6,5.5-5.7,5.5c-3.2,0-5.8-2.4-5.8-5.5
		C416.9,265,419.5,262.5,422.7,262.5L422.7,262.5z"/>
	<path class="st4" d="M409.6,256.7c-0.1-6-3.9-8.8-10.1-9.5C400.8,253.7,404.3,256.6,409.6,256.7L409.6,256.7z"/>
	<path class="st4" d="M417.2,251.8c2.5-5.4,0.3-9.6-4.9-12.9C410.5,245.3,412.4,249.4,417.2,251.8L417.2,251.8z"/>
	<path class="st4" d="M426.1,251.5c5-3.4,5.3-8,2.5-13.6C423.9,242.4,423.4,247,426.1,251.5L426.1,251.5z"/>
	<path class="st4" d="M434.5,255c5.9-0.8,8.3-4.8,8.3-11.1C436.5,245.9,434,249.8,434.5,255L434.5,255z"/>
	<path class="st4" d="M439.4,263c5.7,1.7,9.6-1,12.1-6.7C445,255.5,441.2,258,439.4,263L439.4,263z"/>
	<path class="st4" d="M439.4,272.1c2.8,5.3,7.4,6.2,13.2,4C448.7,270.9,444.2,269.9,439.4,272.1L439.4,272.1z"/>
	<path class="st4" d="M434.7,280c0.4,6,4.3,8.6,10.4,9.1C443.6,282.6,440,279.9,434.7,280L434.7,280z"/>
	<path class="st4" d="M427.4,283.8c-2.7,5.3-0.7,9.6,4.4,13.1C433.7,290.6,432,286.4,427.4,283.8L427.4,283.8z"/>
	<path class="st4" d="M418.9,284.5c-5.4,2.7-6.3,7.3-4.3,13.2C419.9,293.7,421.1,289.3,418.9,284.5L418.9,284.5z"/>
	<path class="st4" d="M410.6,280.6c-6,0.1-8.8,3.8-9.6,10C407.5,289.3,410.4,285.8,410.6,280.6L410.6,280.6z"/>
	<path class="st4" d="M405.2,272.2c-5.7-1.8-9.6,0.8-12.3,6.4C399.5,279.5,403.4,277.2,405.2,272.2L405.2,272.2z"/>
	<path class="st4" d="M405.6,263.9c-3.5-4.9-8.2-5-13.7-2.1C396.6,266.4,401.1,266.8,405.6,263.9L405.6,263.9z"/>
	<path class="st4" d="M943,210.3c33.2,0,60.2,25.7,60.2,57.3S976.3,325,943,325c-33.2,0-60.2-25.7-60.2-57.3S909.8,210.3,943,210.3
		L943,210.3z"/>
	<path class="st5" d="M943,226.8c23.7,0,42.8,18.3,42.8,40.8s-19.2,40.8-42.8,40.8s-42.8-18.3-42.8-40.8S919.4,226.8,943,226.8
		L943,226.8z"/>
	<path class="st6" d="M943,231.1c21.2,0,38.3,16.3,38.3,36.5s-17.1,36.5-38.3,36.5c-21.1,0-38.3-16.3-38.3-36.5
		S921.9,231.1,943,231.1L943,231.1z"/>
	<path class="st6" d="M943,237.2c18.4,0,33.4,14.2,33.4,31.8s-14.9,31.8-33.4,31.8c-18.4,0-33.4-14.2-33.4-31.8
		S924.6,237.2,943,237.2L943,237.2z"/>
	<path class="st6" d="M943,252.2c9.8,0,17.7,7.5,17.7,16.8s-7.9,16.8-17.7,16.8s-17.7-7.5-17.7-16.8
		C925.4,259.7,933.3,252.2,943,252.2L943,252.2z"/>
	<path class="st6" d="M943,256.3c7.4,0,13.3,5.7,13.3,12.7s-6,12.7-13.3,12.7c-7.4,0-13.3-5.7-13.3-12.7S935.7,256.3,943,256.3
		L943,256.3z"/>
	<path class="st4" d="M943,263.5c3.2,0,5.7,2.5,5.7,5.5s-2.6,5.5-5.7,5.5c-3.2,0-5.7-2.4-5.7-5.5C937.3,266,939.8,263.5,943,263.5
		L943,263.5z"/>
	<path class="st4" d="M929.9,257.8c-0.1-6-3.9-8.8-10.1-9.5C921.1,254.7,924.6,257.6,929.9,257.8L929.9,257.8z"/>
	<path class="st4" d="M937.5,252.9c2.5-5.5,0.3-9.6-4.9-12.9C930.9,246.3,932.8,250.4,937.5,252.9L937.5,252.9z"/>
	<path class="st4" d="M946.5,252.5c4.9-3.4,5.3-8,2.5-13.6C944.2,243.5,943.7,248,946.5,252.5L946.5,252.5z"/>
	<path class="st4" d="M954.8,256c6-0.8,8.3-4.8,8.3-11C956.8,247,954.4,250.8,954.8,256L954.8,256z"/>
	<path class="st4" d="M959.7,264c5.7,1.7,9.6-1,12.1-6.7C965.3,256.5,961.5,259,959.7,264L959.7,264z"/>
	<path class="st4" d="M959.7,273.1c2.8,5.3,7.4,6.2,13.2,4C969,271.9,964.5,270.9,959.7,273.1L959.7,273.1z"/>
	<path class="st4" d="M955,281c0.4,6,4.2,8.6,10.4,9C963.9,283.7,960.3,280.9,955,281L955,281z"/>
	<path class="st4" d="M947.7,284.8c-2.7,5.4-0.7,9.6,4.4,13.1C954.1,291.7,952.3,287.5,947.7,284.8L947.7,284.8z"/>
	<path class="st4" d="M939.3,285.5c-5.4,2.7-6.3,7.3-4.3,13.2C940.3,294.8,941.4,290.3,939.3,285.5L939.3,285.5z"/>
	<path class="st4" d="M930.9,281.6c-6,0.1-8.8,3.8-9.6,10C927.8,290.3,930.8,286.8,930.9,281.6L930.9,281.6z"/>
	<path class="st4" d="M925.6,273.2c-5.7-1.8-9.6,0.8-12.3,6.4C919.8,280.6,923.7,278.2,925.6,273.2L925.6,273.2z"/>
	<path class="st4" d="M925.9,265c-3.5-4.8-8.2-5-13.7-2.1C916.9,267.5,921.5,267.8,925.9,265L925.9,265z"/>
	<path class="st7" d="M304.1,221l-0.6-40.2L526.8,161l73-73.5c3.9-26,314-14,318.3,1.7l62.8,74.1l167.4,6.8l1.7,82.6h-12.4
		c2.7,31-32.4,34-125.5,36.8c-2-36.3-23.6-60.6-69-57.1c-45.7,0.5-64.1,16-70.7,63.8l-376,1.1c-9-59.5-34.9-88.7-76.3-85.7
		c-42,2.4-58.2,29.8-63.9,82.8c-23.8,5.4-43.1-0.9-43.5-29.4C313.6,241.5,312.4,222,304.1,221L304.1,221z"/>
	<polygon class="st6" points="304.4,222.3 303.5,180.8 300,181.3 300.3,223.1 	"/>
	<line class="st6" x1="304.4" y1="222.3" x2="312.9" y2="256.5"/>
	<path class="st6" d="M603.1,90.8l-6.1-0.4L530,158l28.1,1.5c7.6,1,9.4,0,11.6-2.5l39-58C610.8,95.2,610.6,91.9,603.1,90.8
		L603.1,90.8z"/>
	<path class="st5" d="M599.8,87.6L530,158l-3.1,3.1l34.6,1.8c4.8,0.4,6.1,0.5,9.6-3.4l41.3-61.3c-1.2-2.9,1-6.1-3.7-8.8L599.8,87.6z
		"/>
	<path class="st6" d="M978.1,159.9l-59.9-70.7L901.9,95c-5.4,2.9-6.6,9.2-4.5,18.1L920,153c2.6,5.7,7.1,8.5,14.1,7.4L978.1,159.9z"
		/>
	<path class="st5" d="M973.4,154.5L922.2,94l-13.5,5.5c-8.1,3.1-8.6,7.9-5.7,13.6l21.8,36.2c1.6,3.6,5.4,5,10.7,4.8L973.4,154.5z"/>
	<path class="st6" d="M577.3,164.9L624.6,86c72.7-3,146.1-2.7,220.2,1.1c29-3.5,46.3,32.4,61.6,74.4l2,64.2
		c-22.4,7.4-32.9,23.9-38.7,44.1L544.8,272l-1.7-93.3C551.4,170.3,562.3,165,577.3,164.9L577.3,164.9z"/>
	<polygon class="st5" points="638.4,93.3 628.8,93.4 585.8,160.6 624.3,160.1 	"/>
	<polygon class="st5" points="629.7,159.5 644.6,91.9 728.9,90.5 728.9,159.2 	"/>
	<polygon class="st5" points="743.9,158.4 743.9,89.4 832.4,91.4 844.8,157.2 	"/>
	<path class="st5" d="M850.8,93.4L836,91.7l14.1,64.7l47.5,0.8C886,125.6,873.1,97,850.8,93.4L850.8,93.4z"/>
	<line class="st6" x1="734.7" y1="86.6" x2="738.8" y2="272.3"/>
	<line class="st6" x1="577.3" y1="164.9" x2="906.4" y2="161.5"/>
	<polygon class="st6" points="701.8,175.6 700.9,170.8 732,171.4 732,175.3 	"/>
	<polygon class="st6" points="867.7,175.6 868.8,170.5 903.6,171.7 903.6,175.3 	"/>
	<polygon class="st8" points="1149.9,250.1 1148.4,174.5 1139.4,174.2 1127.8,250.6 	"/>
	<path class="st9" d="M781.3,234.4h-10.9v21.2h-9.9V199h24v13.5h-14.1v9.2h10.9V234.4z M816.1,255.6h-8.3l-9.1-24.9
		c-1.2-3.2-2.4-7.1-3.5-11.8c0.5,3.7,0.8,6.8,0.8,9.3v27.4h-8.2V199h9.6l7.7,20.7c1.5,4.1,2.7,7.8,3.5,10.9
		c-0.5-4.9-0.8-9.8-0.8-14.9V199h8.3V255.6z M858,199v56.6h-9.5v-40.4l-6.2,40.4h-6.5l-6.4-40.4v40.4h-7.6V199h13.3l4.9,30l4.6-30.1
		H858V199z"/>
	<path class="st9" d="M788.3,188.2V179h3c1.1,0,1.8,0.1,2.2,0.1c0.5,0.1,1,0.4,1.3,0.9c0.4,0.4,0.5,1,0.5,1.8c0,0.6-0.1,1-0.3,1.4
		s-0.4,0.7-0.8,0.9c-0.3,0.2-0.6,0.4-1,0.4c-0.4,0.1-1.1,0.1-1.9,0.1h-1.2v3.5h-1.8V188.2z M790.2,180.6v2.6h1
		c0.7,0,1.2-0.1,1.5-0.1c0.2-0.1,0.4-0.2,0.6-0.4c0.1-0.2,0.2-0.4,0.2-0.7c0-0.4-0.1-0.6-0.3-0.8s-0.4-0.4-0.7-0.4
		c-0.2,0-0.7-0.1-1.3-0.1h-1V180.6z M797.3,188.2V179h6.8v1.5h-4.9v2h4.6v1.5h-4.6v2.5h5.1v1.5h-7L797.3,188.2L797.3,188.2z
		 M812.1,184.8l1.8,0.5c-0.3,1-0.7,1.8-1.4,2.3s-1.5,0.7-2.4,0.7c-1.2,0-2.2-0.4-3-1.2s-1.2-2-1.2-3.4c0-1.5,0.4-2.7,1.2-3.5
		s1.8-1.3,3.1-1.3c1.1,0,2,0.3,2.7,1c0.4,0.4,0.7,1,1,1.7L812,182c-0.1-0.5-0.3-0.8-0.7-1.1s-0.8-0.4-1.3-0.4
		c-0.7,0-1.3,0.2-1.7,0.7s-0.6,1.3-0.6,2.4c0,1.1,0.2,2,0.6,2.4c0.4,0.5,1,0.7,1.6,0.7c0.5,0,0.9-0.1,1.3-0.5
		C811.7,186,811.9,185.5,812.1,184.8L812.1,184.8z M808.1,190.6v-0.7c0.4,0.1,0.8,0.1,1.2,0.1s0.7-0.1,0.8-0.2
		c0.1-0.1,0.2-0.2,0.2-0.4c0-0.1-0.1-0.3-0.2-0.4c-0.1-0.1-0.3-0.2-0.6-0.2s-0.5,0.1-0.8,0.1l0.1-0.6c0.3-0.1,0.7-0.2,1.1-0.2
		c0.5,0,0.9,0.1,1.2,0.4c0.3,0.2,0.4,0.5,0.4,0.8c0,0.4-0.1,0.7-0.4,0.9c-0.4,0.3-1,0.4-1.7,0.4
		C808.8,190.7,808.3,190.7,808.1,190.6L808.1,190.6z M824.1,188.2h-2l-0.8-2.1h-3.7l-0.8,2.1H815l3.5-9.1h1.9L824.1,188.2z
		 M820.8,184.5l-1.3-3.4l-1.2,3.4H820.8z M825.1,185.2l1.8-0.2c0.1,0.6,0.3,1,0.7,1.3c0.3,0.3,0.8,0.4,1.3,0.4c0.6,0,1-0.1,1.3-0.4
		c0.3-0.3,0.4-0.5,0.4-0.9c0-0.2-0.1-0.4-0.2-0.5c-0.1-0.1-0.4-0.3-0.7-0.4c-0.2-0.1-0.7-0.2-1.5-0.4c-1-0.2-1.7-0.5-2.1-0.9
		c-0.6-0.5-0.8-1.1-0.8-1.8c0-0.5,0.1-0.9,0.4-1.3c0.3-0.4,0.6-0.7,1.1-1c0.5-0.2,1.1-0.3,1.8-0.3c1.2,0,2,0.2,2.6,0.7
		s0.9,1.2,0.9,2.1l-1.9,0.1c-0.1-0.5-0.2-0.8-0.5-1c-0.2-0.2-0.6-0.3-1.1-0.3s-1,0.1-1.3,0.3c-0.2,0.1-0.3,0.3-0.3,0.6
		c0,0.2,0.1,0.4,0.3,0.6c0.2,0.2,0.8,0.4,1.7,0.6c0.9,0.2,1.5,0.4,2,0.7c0.4,0.2,0.8,0.5,1,0.9s0.4,0.9,0.4,1.5c0,0.5-0.1,1-0.4,1.5
		c-0.3,0.5-0.7,0.8-1.3,1c-0.5,0.2-1.2,0.3-2,0.3c-1.2,0-2.1-0.3-2.7-0.8C825.6,187,825.2,186.2,825.1,185.2L825.1,185.2z"/>
	<path class="st9" d="M667.9,244.3c0,4.6-1.3,8.4-3.7,11.3c-2.6,3-6.2,4.6-10.7,4.6h-20.9c-4.5,0-8-1.5-10.6-4.5s-3.8-6.8-3.8-11.4
		v-10.6c0-5.6,1.8-9.9,5.3-12.8c-3.5-2.6-5.3-6.8-5.3-12.6v-10.6c0-4.6,1.3-8.5,3.8-11.4c2.5-3,6.1-4.5,10.6-4.5h20.9
		c4.5,0,8.1,1.5,10.7,4.6c2.4,2.9,3.7,6.7,3.7,11.3v10.6c0,5.8-1.8,10-5.3,12.6c3.5,2.9,5.3,7.2,5.3,12.8V244.3z M654,209.4v-9
		c0-3.1-1.7-4.7-5-4.7h-12c-3.3,0-5,1.6-5,4.7v9c0,3.1,1.6,4.7,4.8,4.7h12.3C652.4,214.1,654,212.5,654,209.4L654,209.4z M654,241.7
		v-8.9c0-1.4-0.4-2.5-1.3-3.4c-0.9-0.9-2-1.3-3.4-1.3H637c-1.4,0-2.5,0.4-3.4,1.3c-0.9,0.9-1.4,2-1.4,3.4v8.9c0,3.1,1.7,4.7,5,4.7
		H649C652.3,246.4,654,244.8,654,241.7L654,241.7z"/>
	<path class="st9" d="M694.2,260.7h-13.9v-61.6c-0.1-2.5-1.9-3.4-5.5-3.5l0.1-13.8h12c5.3,0.1,7.3,3.3,7.4,7.9L694.2,260.7
		L694.2,260.7z"/>
	<polygon class="st10" points="1105.5,222.1 1105.5,178.8 1114.2,178.8 1114.2,214.3 1122.3,214.3 1122.3,222.1 	"/>
	<path class="st10" d="M929,194v-4.4c0-1.2-0.1-2-0.4-2.4c-0.3-0.4-0.8-0.6-1.7-0.6s-1.4,0.2-1.7,0.6c-0.3,0.4-0.4,1.2-0.4,2.4v22.8
		c0,1.3,0.1,2.1,0.4,2.4c0.3,0.4,0.8,0.6,1.7,0.6s1.4-0.2,1.7-0.6c0.3-0.4,0.4-1.2,0.4-2.4v-5.9h7.9v4.5c0,2.9-0.1,5-0.4,6.3
		c-0.3,1.3-0.7,2.4-1.3,3.3c-0.7,1-1.5,1.6-2.5,2s-2.9,0.6-5.6,0.6c-3.2,0-5.3-0.2-6.4-0.6c-1.1-0.4-2.1-1-2.8-2
		c-0.7-0.9-1.2-2-1.5-3.3s-0.4-3.4-0.4-6.3v-20c0-2.9,0.1-5,0.4-6.3c0.3-1.3,0.8-2.4,1.5-3.3c0.8-1,1.8-1.7,3-2.1
		c1.3-0.4,3.3-0.6,6.2-0.6c2.5,0,4.3,0.2,5.4,0.6c1.1,0.4,2,1,2.6,2c0.6,0.9,1.1,2,1.3,3.3c0.3,1.3,0.4,3.4,0.4,6.3v3L929,194
		L929,194z"/>
	<polygon class="st10" points="966.4,222.8 966.4,179.5 978.9,179.5 983.8,213.6 989,179.5 1001.3,179.5 1001.3,222.8 993.5,222.8 
		994.1,186.2 988.3,222.8 978.8,222.8 973.2,186.2 973.8,222.8 	"/>
	<rect x="1007.5" y="179.5" class="st10" width="8.6" height="43.3"/>
	<path class="st10" d="M1034.8,212.6v-22.8c0-1.2-0.1-2-0.4-2.4s-0.9-0.6-1.8-0.6c-1,0-1.6,0.2-1.9,0.6s-0.4,1.2-0.4,2.4v22.8
		c0,1.2,0.1,2.1,0.4,2.4c0.3,0.4,0.9,0.6,1.9,0.6c0.9,0,1.5-0.2,1.8-0.6C1034.7,214.6,1034.8,213.8,1034.8,212.6L1034.8,212.6z
		 M1043.7,211.1c0,3-0.1,5.1-0.4,6.4c-0.3,1.3-0.8,2.4-1.5,3.2c-0.7,1-1.7,1.6-2.8,2c-1.1,0.4-3.3,0.6-6.4,0.6s-5.3-0.2-6.4-0.6
		c-1.1-0.4-2.1-1-2.8-2c-0.7-0.9-1.2-2-1.5-3.3s-0.4-3.4-0.4-6.3v-20c0-2.9,0.1-5,0.4-6.3c0.3-1.3,0.8-2.4,1.5-3.3
		c0.8-1,1.8-1.7,3-2.1c1.3-0.4,3.3-0.6,6.2-0.6s4.9,0.2,6.2,0.6c1.2,0.4,2.2,1.1,3,2.1c0.7,0.9,1.2,2,1.5,3.3s0.4,3.4,0.4,6.3
		L1043.7,211.1L1043.7,211.1z"/>
	<polygon class="st10" points="1048.2,221.8 1048.2,178.6 1060.3,178.6 1067,212.8 1066.5,178.6 1074.3,178.6 1074.3,221.8 
		1062.2,221.8 1055.4,186.7 1056,221.8 	"/>
	<path class="st10" d="M938.2,221.4l11.3-45.9h4.3l11.9,45.9h-4.4l-3.4-13.9h-12.4l-3.2,13.9H938.2z M946.7,202.5h10l-3.1-12.7
		c-0.9-3.9-1.6-7.1-2.1-9.6c-0.4,3-1,6-1.6,8.8L946.7,202.5z"/>
	<path class="st10" d="M1077.3,221.1l11.3-45.9h4.3l12,45.9h-4.4l-3.4-13.9h-12.4l-3.2,13.9H1077.3z M1085.7,202.2h10l-3-12.7
		c-0.9-3.9-1.6-7.1-2.1-9.6c-0.4,3-1,5.9-1.6,8.8L1085.7,202.2z"/>
	<path class="st10" d="M457.4,202.6v-10.7h-3.8v-2.2h10.2v2.2H460v10.7H457.4z M466.1,202.6v-12.9h5.5c1.4,0,2.4,0.1,3,0.4
		c0.6,0.2,1.1,0.6,1.5,1.2c0.4,0.6,0.5,1.3,0.5,2c0,1-0.3,1.8-0.8,2.4c-0.6,0.6-1.4,1-2.5,1.2c0.6,0.3,1,0.7,1.4,1.1
		c0.4,0.4,0.9,1.1,1.5,2.1l1.5,2.5h-3.1l-1.8-2.8c-0.7-1-1.1-1.6-1.4-1.9c-0.2-0.3-0.5-0.4-0.8-0.5s-0.7-0.1-1.3-0.1h-0.5v5.4
		L466.1,202.6L466.1,202.6z M468.7,195.2h1.9c1.3,0,2-0.1,2.3-0.1c0.3-0.1,0.6-0.3,0.7-0.6c0.2-0.2,0.3-0.6,0.3-1s-0.1-0.8-0.4-1
		c-0.2-0.3-0.6-0.4-1-0.5c-0.2,0-0.8-0.1-1.9-0.1h-2v3.3L468.7,195.2L468.7,195.2z M491.3,202.6h-2.8l-1.1-2.9h-5.1l-1.1,2.9h-2.7
		l5-12.9h2.7L491.3,202.6z M486.6,197.5l-1.8-4.8l-1.7,4.8H486.6z M493.3,202.6v-12.9h2.5l5.3,8.6v-8.6h2.4v12.9H501l-5.2-8.5v8.5
		H493.3z M506.3,198.4l2.5-0.2c0.1,0.8,0.4,1.5,0.9,1.9s1.1,0.6,1.9,0.6s1.5-0.2,1.9-0.5c0.4-0.4,0.7-0.8,0.7-1.3
		c0-0.3-0.1-0.6-0.3-0.8s-0.5-0.4-1-0.6c-0.3-0.1-1-0.3-2.1-0.6c-1.4-0.3-2.4-0.7-2.9-1.3c-0.8-0.7-1.2-1.6-1.2-2.6
		c0-0.7,0.2-1.3,0.6-1.8c0.4-0.6,0.9-1,1.6-1.3s1.5-0.5,2.5-0.5c1.6,0,2.8,0.4,3.6,1.1c0.8,0.7,1.3,1.7,1.3,2.9l-2.6,0.1
		c-0.1-0.7-0.4-1.2-0.7-1.4c-0.4-0.3-0.9-0.4-1.6-0.4s-1.3,0.1-1.8,0.5c-0.3,0.2-0.4,0.4-0.4,0.8s0.1,0.6,0.4,0.8
		c0.3,0.3,1.1,0.6,2.4,0.9c1.3,0.3,2.2,0.6,2.8,0.9c0.6,0.3,1.1,0.7,1.4,1.3c0.3,0.5,0.5,1.2,0.5,2.1c0,0.7-0.2,1.4-0.6,2.1
		c-0.4,0.7-1,1.1-1.7,1.4c-0.7,0.3-1.7,0.5-2.8,0.5c-1.6,0-2.9-0.4-3.8-1.1C506.9,200.9,506.4,199.9,506.3,198.4L506.3,198.4z
		 M519.6,202.6v-12.9h4.1c1.6,0,2.6,0.1,3.1,0.2c0.7,0.2,1.3,0.6,1.8,1.3s0.7,1.5,0.7,2.5c0,0.8-0.1,1.5-0.4,2
		c-0.3,0.5-0.7,1-1.1,1.3c-0.4,0.3-0.9,0.5-1.3,0.6c-0.6,0.1-1.5,0.2-2.7,0.2h-1.7v4.9h-2.5L519.6,202.6L519.6,202.6z M522.2,191.9
		v3.7h1.4c1,0,1.7-0.1,2-0.2c0.4-0.1,0.6-0.4,0.8-0.7s0.3-0.6,0.3-1c0-0.5-0.1-0.9-0.4-1.2c-0.3-0.3-0.6-0.5-1-0.6
		c-0.3-0.1-1-0.1-1.9-0.1h-1.2L522.2,191.9L522.2,191.9z M531.6,196.2c0-1.3,0.2-2.4,0.6-3.3c0.3-0.7,0.7-1.3,1.2-1.8
		s1.1-0.9,1.7-1.2c0.8-0.4,1.7-0.5,2.8-0.5c1.9,0,3.4,0.6,4.6,1.8c1.1,1.2,1.7,2.8,1.7,4.9c0,2.1-0.6,3.7-1.7,4.9
		c-1.1,1.2-2.6,1.8-4.6,1.8c-1.9,0-3.4-0.6-4.6-1.8C532.2,199.9,531.6,198.3,531.6,196.2L531.6,196.2z M534.3,196.1
		c0,1.5,0.3,2.6,1,3.3c0.7,0.8,1.5,1.1,2.6,1.1c1,0,1.9-0.4,2.6-1.1c0.7-0.7,1-1.9,1-3.4s-0.3-2.6-1-3.3s-1.5-1.1-2.6-1.1
		s-1.9,0.4-2.6,1.1C534.6,193.6,534.3,194.7,534.3,196.1L534.3,196.1z M546.8,202.6v-12.9h5.5c1.4,0,2.4,0.1,3,0.4
		c0.6,0.2,1.1,0.6,1.5,1.2c0.4,0.6,0.5,1.3,0.5,2c0,1-0.3,1.8-0.8,2.4c-0.6,0.6-1.4,1-2.5,1.2c0.6,0.3,1,0.7,1.4,1.1
		c0.4,0.4,0.9,1.1,1.5,2.1l1.5,2.5h-3.1l-1.8-2.8c-0.7-1-1.1-1.6-1.4-1.9c-0.2-0.3-0.5-0.4-0.8-0.5s-0.7-0.1-1.3-0.1h-0.5v5.4
		L546.8,202.6L546.8,202.6z M549.4,195.2h1.9c1.3,0,2-0.1,2.3-0.1c0.3-0.1,0.6-0.3,0.7-0.6c0.2-0.2,0.3-0.6,0.3-1s-0.1-0.8-0.4-1
		c-0.2-0.3-0.6-0.4-1-0.5c-0.2,0-0.8-0.1-1.9-0.1h-2v3.3L549.4,195.2L549.4,195.2z M563.3,202.6v-10.7h-3.8v-2.2h10.2v2.2h-3.8v10.7
		H563.3z M572,202.6v-12.9h9.5v2.2h-6.9v2.9h6.4v2.2h-6.4v3.5h7.2v2.2L572,202.6L572,202.6z M583.9,198.4l2.5-0.2
		c0.2,0.8,0.5,1.5,0.9,1.9c0.5,0.4,1.1,0.6,1.9,0.6c0.8,0,1.5-0.2,1.9-0.5c0.4-0.4,0.6-0.8,0.6-1.3c0-0.3-0.1-0.6-0.3-0.8
		s-0.5-0.4-0.9-0.6c-0.3-0.1-1-0.3-2.1-0.6c-1.4-0.3-2.4-0.7-2.9-1.3c-0.8-0.7-1.2-1.6-1.2-2.6c0-0.7,0.2-1.3,0.5-1.8
		c0.4-0.6,0.9-1,1.6-1.3c0.7-0.3,1.5-0.5,2.5-0.5c1.6,0,2.8,0.4,3.6,1.1c0.8,0.7,1.3,1.7,1.3,2.9l-2.6,0.1c-0.1-0.7-0.3-1.2-0.7-1.4
		c-0.4-0.3-0.9-0.4-1.6-0.4c-0.7,0-1.3,0.1-1.8,0.5c-0.3,0.2-0.4,0.4-0.4,0.8s0.1,0.6,0.4,0.8c0.3,0.3,1.1,0.6,2.4,0.9
		c1.3,0.3,2.2,0.6,2.8,0.9c0.6,0.3,1.1,0.7,1.4,1.3c0.4,0.5,0.5,1.2,0.5,2.1c0,0.7-0.2,1.4-0.6,2.1c-0.4,0.7-1,1.1-1.7,1.4
		c-0.7,0.3-1.7,0.5-2.8,0.5c-1.6,0-2.9-0.4-3.8-1.1C584.6,200.9,584.1,199.9,583.9,198.4L583.9,198.4z"/>
	<path class="st9" d="M346.8,192.3l-1.3,7.6l11.1-0.2c-1,3.8-2.5,6.1-5,6.3h-13.1l1.8-20.3l16.9,0.2c-0.6,2.9-2.1,4.1-4.3,4.2h-2.5
		C348.6,190.2,347.4,190.9,346.8,192.3L346.8,192.3z"/>
	<path class="st9" d="M380.4,186l-18.1,0.2l-3.5,19.7h13.9c3.4,0.3,4.6-2,5.3-6.3h-11.6l0.5-4.8l7.8-0.7
		C377.4,193.9,380.1,189.5,380.4,186L380.4,186z M367.2,191.4l6.5,0.2C375,187.7,368.8,187.2,367.2,191.4L367.2,191.4z"/>
	<path class="st9" d="M401.1,185.8l-16,0.2c-0.2,2,0,4.4,2.9,4.5l8.4-0.5l-0.3,3.2l-8.6,0.1c-1.2-0.1-3.5,1.4-3.8,2.8l-1.8,9.5
		l19.4,0.1l2-15.4C403.5,188.1,402.8,185.7,401.1,185.8L401.1,185.8z M396,196.6l-6,0.1l-0.7,4.3l6-0.3L396,196.6z"/>
	<path class="st9" d="M442.4,185.5l-34.7,0.5l-0.2,3.2h4.3l-1.5,16.9h6.8l1.3-15.4c2.3-1.4,4.1-1.4,6.5-0.2l-1.1,15.3h6.3l1.1-14.9
		c2.3-1.5,4.5-1.5,6.8-0.4l-1.4,15.3l6.1-0.1l2-16.3C444.7,187.4,444.5,185.8,442.4,185.5L442.4,185.5z"/>
	<path class="st4" d="M422.7,209.3c33.2,0,60.2,25.7,60.2,57.3s-26.9,57.3-60.2,57.3c-33.2,0-60.2-25.7-60.2-57.3
		S389.5,209.3,422.7,209.3L422.7,209.3z"/>
	<path class="st5" d="M422.7,225.8c23.6,0,42.8,18.2,42.8,40.8c0,22.5-19.2,40.8-42.8,40.8c-23.7,0-42.8-18.2-42.8-40.8
		C379.9,244.1,399.1,225.8,422.7,225.8L422.7,225.8z"/>
	<path class="st6" d="M422.7,230.1c21.1,0,38.3,16.3,38.3,36.5c0,20.1-17.1,36.5-38.3,36.5c-21.2,0-38.3-16.3-38.3-36.5
		C384.4,246.5,401.6,230.1,422.7,230.1L422.7,230.1z"/>
	<path class="st6" d="M422.7,236.2c18.4,0,33.4,14.2,33.4,31.8s-14.9,31.8-33.4,31.8c-18.4,0-33.4-14.2-33.4-31.8
		C389.4,250.4,404.3,236.2,422.7,236.2L422.7,236.2z"/>
	<path class="st6" d="M422.7,251.1c9.7,0,17.7,7.6,17.7,16.8c0,9.3-7.9,16.8-17.7,16.8c-9.8,0-17.7-7.5-17.7-16.8
		C405,258.7,413,251.1,422.7,251.1L422.7,251.1z"/>
	<path class="st6" d="M422.7,255.3c7.4,0,13.3,5.7,13.3,12.7s-6,12.7-13.3,12.7c-7.4,0-13.3-5.7-13.3-12.7
		C409.4,261,415.4,255.3,422.7,255.3L422.7,255.3z"/>
	<path class="st4" d="M422.7,262.5c3.2,0,5.7,2.4,5.7,5.5c0,3-2.6,5.5-5.7,5.5c-3.2,0-5.8-2.4-5.8-5.5
		C416.9,265,419.5,262.5,422.7,262.5L422.7,262.5z"/>
	<path class="st4" d="M409.6,256.7c-0.1-6-3.9-8.8-10.1-9.5C400.8,253.7,404.3,256.6,409.6,256.7L409.6,256.7z"/>
	<path class="st4" d="M417.2,251.8c2.5-5.4,0.3-9.6-4.9-12.9C410.5,245.3,412.4,249.4,417.2,251.8L417.2,251.8z"/>
	<path class="st4" d="M426.1,251.5c5-3.4,5.3-8,2.5-13.6C423.9,242.4,423.4,247,426.1,251.5L426.1,251.5z"/>
	<path class="st4" d="M434.5,255c5.9-0.8,8.3-4.8,8.3-11.1C436.5,245.9,434,249.8,434.5,255L434.5,255z"/>
	<path class="st4" d="M439.4,263c5.7,1.7,9.6-1,12.1-6.7C445,255.5,441.2,258,439.4,263L439.4,263z"/>
	<path class="st4" d="M439.4,272.1c2.8,5.3,7.4,6.2,13.2,4C448.7,270.9,444.2,269.9,439.4,272.1L439.4,272.1z"/>
	<path class="st4" d="M434.7,280c0.4,6,4.3,8.6,10.4,9.1C443.6,282.6,440,279.9,434.7,280L434.7,280z"/>
	<path class="st4" d="M427.4,283.8c-2.7,5.3-0.7,9.6,4.4,13.1C433.7,290.6,432,286.4,427.4,283.8L427.4,283.8z"/>
	<path class="st4" d="M418.9,284.5c-5.4,2.7-6.3,7.3-4.3,13.2C419.9,293.7,421.1,289.3,418.9,284.5L418.9,284.5z"/>
	<path class="st4" d="M410.6,280.6c-6,0.1-8.8,3.8-9.6,10C407.5,289.3,410.4,285.8,410.6,280.6L410.6,280.6z"/>
	<path class="st4" d="M405.2,272.2c-5.7-1.8-9.6,0.8-12.3,6.4C399.5,279.5,403.4,277.2,405.2,272.2L405.2,272.2z"/>
	<path class="st4" d="M405.6,263.9c-3.5-4.9-8.2-5-13.7-2.1C396.6,266.4,401.1,266.8,405.6,263.9L405.6,263.9z"/>
	<path class="st4" d="M943,210.3c33.2,0,60.2,25.7,60.2,57.3S976.3,325,943,325c-33.2,0-60.2-25.7-60.2-57.3S909.8,210.3,943,210.3
		L943,210.3z"/>
	<path class="st5" d="M943,226.8c23.7,0,42.8,18.3,42.8,40.8s-19.2,40.8-42.8,40.8s-42.8-18.3-42.8-40.8S919.4,226.8,943,226.8
		L943,226.8z"/>
	<path class="st6" d="M943,231.1c21.2,0,38.3,16.3,38.3,36.5s-17.1,36.5-38.3,36.5c-21.1,0-38.3-16.3-38.3-36.5
		S921.9,231.1,943,231.1L943,231.1z"/>
	<path class="st6" d="M943,237.2c18.4,0,33.4,14.2,33.4,31.8s-14.9,31.8-33.4,31.8c-18.4,0-33.4-14.2-33.4-31.8
		S924.6,237.2,943,237.2L943,237.2z"/>
	<path class="st6" d="M943,252.2c9.8,0,17.7,7.5,17.7,16.8s-7.9,16.8-17.7,16.8s-17.7-7.5-17.7-16.8
		C925.4,259.7,933.3,252.2,943,252.2L943,252.2z"/>
	<path class="st6" d="M943,256.3c7.4,0,13.3,5.7,13.3,12.7s-6,12.7-13.3,12.7c-7.4,0-13.3-5.7-13.3-12.7S935.7,256.3,943,256.3
		L943,256.3z"/>
	<path class="st4" d="M943,263.5c3.2,0,5.7,2.5,5.7,5.5s-2.6,5.5-5.7,5.5c-3.2,0-5.7-2.4-5.7-5.5C937.3,266,939.8,263.5,943,263.5
		L943,263.5z"/>
	<path class="st4" d="M929.9,257.8c-0.1-6-3.9-8.8-10.1-9.5C921.1,254.7,924.6,257.6,929.9,257.8L929.9,257.8z"/>
	<path class="st4" d="M937.5,252.9c2.5-5.5,0.3-9.6-4.9-12.9C930.9,246.3,932.8,250.4,937.5,252.9L937.5,252.9z"/>
	<path class="st4" d="M946.5,252.5c4.9-3.4,5.3-8,2.5-13.6C944.2,243.5,943.7,248,946.5,252.5L946.5,252.5z"/>
	<path class="st4" d="M954.8,256c6-0.8,8.3-4.8,8.3-11C956.8,247,954.4,250.8,954.8,256L954.8,256z"/>
	<path class="st4" d="M959.7,264c5.7,1.7,9.6-1,12.1-6.7C965.3,256.5,961.5,259,959.7,264L959.7,264z"/>
	<path class="st4" d="M959.7,273.1c2.8,5.3,7.4,6.2,13.2,4C969,271.9,964.5,270.9,959.7,273.1L959.7,273.1z"/>
	<path class="st4" d="M955,281c0.4,6,4.2,8.6,10.4,9C963.9,283.7,960.3,280.9,955,281L955,281z"/>
	<path class="st4" d="M947.7,284.8c-2.7,5.4-0.7,9.6,4.4,13.1C954.1,291.7,952.3,287.5,947.7,284.8L947.7,284.8z"/>
	<path class="st4" d="M939.3,285.5c-5.4,2.7-6.3,7.3-4.3,13.2C940.3,294.8,941.4,290.3,939.3,285.5L939.3,285.5z"/>
	<path class="st4" d="M930.9,281.6c-6,0.1-8.8,3.8-9.6,10C927.8,290.3,930.8,286.8,930.9,281.6L930.9,281.6z"/>
	<path class="st4" d="M925.6,273.2c-5.7-1.8-9.6,0.8-12.3,6.4C919.8,280.6,923.7,278.2,925.6,273.2L925.6,273.2z"/>
	<path class="st4" d="M925.9,265c-3.5-4.8-8.2-5-13.7-2.1C916.9,267.5,921.5,267.8,925.9,265L925.9,265z"/>
	<path class="st7" d="M304.1,221l-0.6-40.2L526.8,161l73-73.5c3.9-26,314-14,318.3,1.7l62.8,74.1l167.4,6.8l1.7,82.6h-12.4
		c2.7,31-32.4,34-125.5,36.8c-2-36.3-23.6-60.6-69-57.1c-45.7,0.5-64.1,16-70.7,63.8l-376,1.1c-9-59.5-34.9-88.7-76.3-85.7
		c-42,2.4-58.2,29.8-63.9,82.8c-23.8,5.4-43.1-0.9-43.5-29.4C313.6,241.5,312.4,222,304.1,221L304.1,221z"/>
	<polygon class="st6" points="304.4,222.3 303.5,180.8 300,181.3 300.3,223.1 	"/>
	<line class="st6" x1="304.4" y1="222.3" x2="312.9" y2="256.5"/>
	<path class="st6" d="M603.1,90.8l-6.1-0.4L530,158l28.1,1.5c7.6,1,9.4,0,11.6-2.5l39-58C610.8,95.2,610.6,91.9,603.1,90.8
		L603.1,90.8z"/>
	<path class="st5" d="M599.8,87.6L530,158l-3.1,3.1l34.6,1.8c4.8,0.4,6.1,0.5,9.6-3.4l41.3-61.3c-1.2-2.9,1-6.1-3.7-8.8L599.8,87.6z
		"/>
	<path class="st6" d="M978.1,159.9l-59.9-70.7L901.9,95c-5.4,2.9-6.6,9.2-4.5,18.1L920,153c2.6,5.7,7.1,8.5,14.1,7.4L978.1,159.9z"
		/>
	<path class="st5" d="M973.4,154.5L922.2,94l-13.5,5.5c-8.1,3.1-8.6,7.9-5.7,13.6l21.8,36.2c1.6,3.6,5.4,5,10.7,4.8L973.4,154.5z"/>
	<path class="st6" d="M577.3,164.9L624.6,86c72.7-3,146.1-2.7,220.2,1.1c29-3.5,46.3,32.4,61.6,74.4l2,64.2
		c-22.4,7.4-32.9,23.9-38.7,44.1L544.8,272l-1.7-93.3C551.4,170.3,562.3,165,577.3,164.9L577.3,164.9z"/>
	<polygon class="st5" points="638.4,93.3 628.8,93.4 585.8,160.6 624.3,160.1 	"/>
	<polygon class="st5" points="629.7,159.5 644.6,91.9 728.9,90.5 728.9,159.2 	"/>
	<polygon class="st5" points="743.9,158.4 743.9,89.4 832.4,91.4 844.8,157.2 	"/>
	<path class="st5" d="M850.8,93.4L836,91.7l14.1,64.7l47.5,0.8C886,125.6,873.1,97,850.8,93.4L850.8,93.4z"/>
	<line class="st6" x1="734.7" y1="86.6" x2="738.8" y2="272.3"/>
	<line class="st6" x1="577.3" y1="164.9" x2="906.4" y2="161.5"/>
	<polygon class="st6" points="701.8,175.6 700.9,170.8 732,171.4 732,175.3 	"/>
	<polygon class="st6" points="867.7,175.6 868.8,170.5 903.6,171.7 903.6,175.3 	"/>
	<polygon class="st8" points="1149.9,250.1 1148.4,174.5 1139.4,174.2 1127.8,250.6 	"/>
	<path class="st9" d="M781.3,234.4h-10.9v21.2h-9.9V199h24v13.5h-14.1v9.2h10.9V234.4z M816.1,255.6h-8.3l-9.1-24.9
		c-1.2-3.2-2.4-7.1-3.5-11.8c0.5,3.7,0.8,6.8,0.8,9.3v27.4h-8.2V199h9.6l7.7,20.7c1.5,4.1,2.7,7.8,3.5,10.9
		c-0.5-4.9-0.8-9.8-0.8-14.9V199h8.3V255.6z M858,199v56.6h-9.5v-40.4l-6.2,40.4h-6.5l-6.4-40.4v40.4h-7.6V199h13.3l4.9,30l4.6-30.1
		H858V199z"/>
	<path class="st9" d="M788.3,188.2V179h3c1.1,0,1.8,0.1,2.2,0.1c0.5,0.1,1,0.4,1.3,0.9c0.4,0.4,0.5,1,0.5,1.8c0,0.6-0.1,1-0.3,1.4
		s-0.4,0.7-0.8,0.9c-0.3,0.2-0.6,0.4-1,0.4c-0.4,0.1-1.1,0.1-1.9,0.1h-1.2v3.5h-1.8V188.2z M790.2,180.6v2.6h1
		c0.7,0,1.2-0.1,1.5-0.1c0.2-0.1,0.4-0.2,0.6-0.4c0.1-0.2,0.2-0.4,0.2-0.7c0-0.4-0.1-0.6-0.3-0.8s-0.4-0.4-0.7-0.4
		c-0.2,0-0.7-0.1-1.3-0.1h-1V180.6z M797.3,188.2V179h6.8v1.5h-4.9v2h4.6v1.5h-4.6v2.5h5.1v1.5h-7L797.3,188.2L797.3,188.2z
		 M812.1,184.8l1.8,0.5c-0.3,1-0.7,1.8-1.4,2.3s-1.5,0.7-2.4,0.7c-1.2,0-2.2-0.4-3-1.2s-1.2-2-1.2-3.4c0-1.5,0.4-2.7,1.2-3.5
		s1.8-1.3,3.1-1.3c1.1,0,2,0.3,2.7,1c0.4,0.4,0.7,1,1,1.7L812,182c-0.1-0.5-0.3-0.8-0.7-1.1s-0.8-0.4-1.3-0.4
		c-0.7,0-1.3,0.2-1.7,0.7s-0.6,1.3-0.6,2.4c0,1.1,0.2,2,0.6,2.4c0.4,0.5,1,0.7,1.6,0.7c0.5,0,0.9-0.1,1.3-0.5
		C811.7,186,811.9,185.5,812.1,184.8L812.1,184.8z M808.1,190.6v-0.7c0.4,0.1,0.8,0.1,1.2,0.1s0.7-0.1,0.8-0.2
		c0.1-0.1,0.2-0.2,0.2-0.4c0-0.1-0.1-0.3-0.2-0.4c-0.1-0.1-0.3-0.2-0.6-0.2s-0.5,0.1-0.8,0.1l0.1-0.6c0.3-0.1,0.7-0.2,1.1-0.2
		c0.5,0,0.9,0.1,1.2,0.4c0.3,0.2,0.4,0.5,0.4,0.8c0,0.4-0.1,0.7-0.4,0.9c-0.4,0.3-1,0.4-1.7,0.4
		C808.8,190.7,808.3,190.7,808.1,190.6L808.1,190.6z M824.1,188.2h-2l-0.8-2.1h-3.7l-0.8,2.1H815l3.5-9.1h1.9L824.1,188.2z
		 M820.8,184.5l-1.3-3.4l-1.2,3.4H820.8z M825.1,185.2l1.8-0.2c0.1,0.6,0.3,1,0.7,1.3c0.3,0.3,0.8,0.4,1.3,0.4c0.6,0,1-0.1,1.3-0.4
		c0.3-0.3,0.4-0.5,0.4-0.9c0-0.2-0.1-0.4-0.2-0.5c-0.1-0.1-0.4-0.3-0.7-0.4c-0.2-0.1-0.7-0.2-1.5-0.4c-1-0.2-1.7-0.5-2.1-0.9
		c-0.6-0.5-0.8-1.1-0.8-1.8c0-0.5,0.1-0.9,0.4-1.3c0.3-0.4,0.6-0.7,1.1-1c0.5-0.2,1.1-0.3,1.8-0.3c1.2,0,2,0.2,2.6,0.7
		s0.9,1.2,0.9,2.1l-1.9,0.1c-0.1-0.5-0.2-0.8-0.5-1c-0.2-0.2-0.6-0.3-1.1-0.3s-1,0.1-1.3,0.3c-0.2,0.1-0.3,0.3-0.3,0.6
		c0,0.2,0.1,0.4,0.3,0.6c0.2,0.2,0.8,0.4,1.7,0.6c0.9,0.2,1.5,0.4,2,0.7c0.4,0.2,0.8,0.5,1,0.9s0.4,0.9,0.4,1.5c0,0.5-0.1,1-0.4,1.5
		c-0.3,0.5-0.7,0.8-1.3,1c-0.5,0.2-1.2,0.3-2,0.3c-1.2,0-2.1-0.3-2.7-0.8C825.6,187,825.2,186.2,825.1,185.2L825.1,185.2z"/>
	<path class="st9" d="M667.9,244.3c0,4.6-1.3,8.4-3.7,11.3c-2.6,3-6.2,4.6-10.7,4.6h-20.9c-4.5,0-8-1.5-10.6-4.5s-3.8-6.8-3.8-11.4
		v-10.6c0-5.6,1.8-9.9,5.3-12.8c-3.5-2.6-5.3-6.8-5.3-12.6v-10.6c0-4.6,1.3-8.5,3.8-11.4c2.5-3,6.1-4.5,10.6-4.5h20.9
		c4.5,0,8.1,1.5,10.7,4.6c2.4,2.9,3.7,6.7,3.7,11.3v10.6c0,5.8-1.8,10-5.3,12.6c3.5,2.9,5.3,7.2,5.3,12.8V244.3z M654,209.4v-9
		c0-3.1-1.7-4.7-5-4.7h-12c-3.3,0-5,1.6-5,4.7v9c0,3.1,1.6,4.7,4.8,4.7h12.3C652.4,214.1,654,212.5,654,209.4L654,209.4z M654,241.7
		v-8.9c0-1.4-0.4-2.5-1.3-3.4c-0.9-0.9-2-1.3-3.4-1.3H637c-1.4,0-2.5,0.4-3.4,1.3c-0.9,0.9-1.4,2-1.4,3.4v8.9c0,3.1,1.7,4.7,5,4.7
		H649C652.3,246.4,654,244.8,654,241.7L654,241.7z"/>
	<path class="st9" d="M694.2,260.7h-13.9v-61.6c-0.1-2.5-1.9-3.4-5.5-3.5l0.1-13.8h12c5.3,0.1,7.3,3.3,7.4,7.9L694.2,260.7
		L694.2,260.7z"/>
	<polygon class="st10" points="1105.5,222.1 1105.5,178.8 1114.2,178.8 1114.2,214.3 1122.3,214.3 1122.3,222.1 	"/>
	<path class="st10" d="M929,194v-4.4c0-1.2-0.1-2-0.4-2.4c-0.3-0.4-0.8-0.6-1.7-0.6s-1.4,0.2-1.7,0.6c-0.3,0.4-0.4,1.2-0.4,2.4v22.8
		c0,1.3,0.1,2.1,0.4,2.4c0.3,0.4,0.8,0.6,1.7,0.6s1.4-0.2,1.7-0.6c0.3-0.4,0.4-1.2,0.4-2.4v-5.9h7.9v4.5c0,2.9-0.1,5-0.4,6.3
		c-0.3,1.3-0.7,2.4-1.3,3.3c-0.7,1-1.5,1.6-2.5,2s-2.9,0.6-5.6,0.6c-3.2,0-5.3-0.2-6.4-0.6c-1.1-0.4-2.1-1-2.8-2
		c-0.7-0.9-1.2-2-1.5-3.3s-0.4-3.4-0.4-6.3v-20c0-2.9,0.1-5,0.4-6.3c0.3-1.3,0.8-2.4,1.5-3.3c0.8-1,1.8-1.7,3-2.1
		c1.3-0.4,3.3-0.6,6.2-0.6c2.5,0,4.3,0.2,5.4,0.6c1.1,0.4,2,1,2.6,2c0.6,0.9,1.1,2,1.3,3.3c0.3,1.3,0.4,3.4,0.4,6.3v3L929,194
		L929,194z"/>
	<polygon class="st10" points="966.4,222.8 966.4,179.5 978.9,179.5 983.8,213.6 989,179.5 1001.3,179.5 1001.3,222.8 993.5,222.8 
		994.1,186.2 988.3,222.8 978.8,222.8 973.2,186.2 973.8,222.8 	"/>
	<rect x="1007.5" y="179.5" class="st10" width="8.6" height="43.3"/>
	<path class="st10" d="M1034.8,212.6v-22.8c0-1.2-0.1-2-0.4-2.4s-0.9-0.6-1.8-0.6c-1,0-1.6,0.2-1.9,0.6s-0.4,1.2-0.4,2.4v22.8
		c0,1.2,0.1,2.1,0.4,2.4c0.3,0.4,0.9,0.6,1.9,0.6c0.9,0,1.5-0.2,1.8-0.6C1034.7,214.6,1034.8,213.8,1034.8,212.6L1034.8,212.6z
		 M1043.7,211.1c0,3-0.1,5.1-0.4,6.4c-0.3,1.3-0.8,2.4-1.5,3.2c-0.7,1-1.7,1.6-2.8,2c-1.1,0.4-3.3,0.6-6.4,0.6s-5.3-0.2-6.4-0.6
		c-1.1-0.4-2.1-1-2.8-2c-0.7-0.9-1.2-2-1.5-3.3s-0.4-3.4-0.4-6.3v-20c0-2.9,0.1-5,0.4-6.3c0.3-1.3,0.8-2.4,1.5-3.3
		c0.8-1,1.8-1.7,3-2.1c1.3-0.4,3.3-0.6,6.2-0.6s4.9,0.2,6.2,0.6c1.2,0.4,2.2,1.1,3,2.1c0.7,0.9,1.2,2,1.5,3.3s0.4,3.4,0.4,6.3
		L1043.7,211.1L1043.7,211.1z"/>
	<polygon class="st10" points="1048.2,221.8 1048.2,178.6 1060.3,178.6 1067,212.8 1066.5,178.6 1074.3,178.6 1074.3,221.8 
		1062.2,221.8 1055.4,186.7 1056,221.8 	"/>
	<path class="st10" d="M938.2,221.4l11.3-45.9h4.3l11.9,45.9h-4.4l-3.4-13.9h-12.4l-3.2,13.9H938.2z M946.7,202.5h10l-3.1-12.7
		c-0.9-3.9-1.6-7.1-2.1-9.6c-0.4,3-1,6-1.6,8.8L946.7,202.5z"/>
	<path class="st10" d="M1077.3,221.1l11.3-45.9h4.3l12,45.9h-4.4l-3.4-13.9h-12.4l-3.2,13.9H1077.3z M1085.7,202.2h10l-3-12.7
		c-0.9-3.9-1.6-7.1-2.1-9.6c-0.4,3-1,5.9-1.6,8.8L1085.7,202.2z"/>
	<path class="st10" d="M457.4,202.6v-10.7h-3.8v-2.2h10.2v2.2H460v10.7H457.4z M466.1,202.6v-12.9h5.5c1.4,0,2.4,0.1,3,0.4
		c0.6,0.2,1.1,0.6,1.5,1.2c0.4,0.6,0.5,1.3,0.5,2c0,1-0.3,1.8-0.8,2.4c-0.6,0.6-1.4,1-2.5,1.2c0.6,0.3,1,0.7,1.4,1.1
		c0.4,0.4,0.9,1.1,1.5,2.1l1.5,2.5h-3.1l-1.8-2.8c-0.7-1-1.1-1.6-1.4-1.9c-0.2-0.3-0.5-0.4-0.8-0.5s-0.7-0.1-1.3-0.1h-0.5v5.4
		L466.1,202.6L466.1,202.6z M468.7,195.2h1.9c1.3,0,2-0.1,2.3-0.1c0.3-0.1,0.6-0.3,0.7-0.6c0.2-0.2,0.3-0.6,0.3-1s-0.1-0.8-0.4-1
		c-0.2-0.3-0.6-0.4-1-0.5c-0.2,0-0.8-0.1-1.9-0.1h-2v3.3L468.7,195.2L468.7,195.2z M491.3,202.6h-2.8l-1.1-2.9h-5.1l-1.1,2.9h-2.7
		l5-12.9h2.7L491.3,202.6z M486.6,197.5l-1.8-4.8l-1.7,4.8H486.6z M493.3,202.6v-12.9h2.5l5.3,8.6v-8.6h2.4v12.9H501l-5.2-8.5v8.5
		H493.3z M506.3,198.4l2.5-0.2c0.1,0.8,0.4,1.5,0.9,1.9s1.1,0.6,1.9,0.6s1.5-0.2,1.9-0.5c0.4-0.4,0.7-0.8,0.7-1.3
		c0-0.3-0.1-0.6-0.3-0.8s-0.5-0.4-1-0.6c-0.3-0.1-1-0.3-2.1-0.6c-1.4-0.3-2.4-0.7-2.9-1.3c-0.8-0.7-1.2-1.6-1.2-2.6
		c0-0.7,0.2-1.3,0.6-1.8c0.4-0.6,0.9-1,1.6-1.3s1.5-0.5,2.5-0.5c1.6,0,2.8,0.4,3.6,1.1c0.8,0.7,1.3,1.7,1.3,2.9l-2.6,0.1
		c-0.1-0.7-0.4-1.2-0.7-1.4c-0.4-0.3-0.9-0.4-1.6-0.4s-1.3,0.1-1.8,0.5c-0.3,0.2-0.4,0.4-0.4,0.8s0.1,0.6,0.4,0.8
		c0.3,0.3,1.1,0.6,2.4,0.9c1.3,0.3,2.2,0.6,2.8,0.9c0.6,0.3,1.1,0.7,1.4,1.3c0.3,0.5,0.5,1.2,0.5,2.1c0,0.7-0.2,1.4-0.6,2.1
		c-0.4,0.7-1,1.1-1.7,1.4c-0.7,0.3-1.7,0.5-2.8,0.5c-1.6,0-2.9-0.4-3.8-1.1C506.9,200.9,506.4,199.9,506.3,198.4L506.3,198.4z
		 M519.6,202.6v-12.9h4.1c1.6,0,2.6,0.1,3.1,0.2c0.7,0.2,1.3,0.6,1.8,1.3s0.7,1.5,0.7,2.5c0,0.8-0.1,1.5-0.4,2
		c-0.3,0.5-0.7,1-1.1,1.3c-0.4,0.3-0.9,0.5-1.3,0.6c-0.6,0.1-1.5,0.2-2.7,0.2h-1.7v4.9h-2.5L519.6,202.6L519.6,202.6z M522.2,191.9
		v3.7h1.4c1,0,1.7-0.1,2-0.2c0.4-0.1,0.6-0.4,0.8-0.7s0.3-0.6,0.3-1c0-0.5-0.1-0.9-0.4-1.2c-0.3-0.3-0.6-0.5-1-0.6
		c-0.3-0.1-1-0.1-1.9-0.1h-1.2L522.2,191.9L522.2,191.9z M531.6,196.2c0-1.3,0.2-2.4,0.6-3.3c0.3-0.7,0.7-1.3,1.2-1.8
		s1.1-0.9,1.7-1.2c0.8-0.4,1.7-0.5,2.8-0.5c1.9,0,3.4,0.6,4.6,1.8c1.1,1.2,1.7,2.8,1.7,4.9c0,2.1-0.6,3.7-1.7,4.9
		c-1.1,1.2-2.6,1.8-4.6,1.8c-1.9,0-3.4-0.6-4.6-1.8C532.2,199.9,531.6,198.3,531.6,196.2L531.6,196.2z M534.3,196.1
		c0,1.5,0.3,2.6,1,3.3c0.7,0.8,1.5,1.1,2.6,1.1c1,0,1.9-0.4,2.6-1.1c0.7-0.7,1-1.9,1-3.4s-0.3-2.6-1-3.3s-1.5-1.1-2.6-1.1
		s-1.9,0.4-2.6,1.1C534.6,193.6,534.3,194.7,534.3,196.1L534.3,196.1z M546.8,202.6v-12.9h5.5c1.4,0,2.4,0.1,3,0.4
		c0.6,0.2,1.1,0.6,1.5,1.2c0.4,0.6,0.5,1.3,0.5,2c0,1-0.3,1.8-0.8,2.4c-0.6,0.6-1.4,1-2.5,1.2c0.6,0.3,1,0.7,1.4,1.1
		c0.4,0.4,0.9,1.1,1.5,2.1l1.5,2.5h-3.1l-1.8-2.8c-0.7-1-1.1-1.6-1.4-1.9c-0.2-0.3-0.5-0.4-0.8-0.5s-0.7-0.1-1.3-0.1h-0.5v5.4
		L546.8,202.6L546.8,202.6z M549.4,195.2h1.9c1.3,0,2-0.1,2.3-0.1c0.3-0.1,0.6-0.3,0.7-0.6c0.2-0.2,0.3-0.6,0.3-1s-0.1-0.8-0.4-1
		c-0.2-0.3-0.6-0.4-1-0.5c-0.2,0-0.8-0.1-1.9-0.1h-2v3.3L549.4,195.2L549.4,195.2z M563.3,202.6v-10.7h-3.8v-2.2h10.2v2.2h-3.8v10.7
		H563.3z M572,202.6v-12.9h9.5v2.2h-6.9v2.9h6.4v2.2h-6.4v3.5h7.2v2.2L572,202.6L572,202.6z M583.9,198.4l2.5-0.2
		c0.2,0.8,0.5,1.5,0.9,1.9c0.5,0.4,1.1,0.6,1.9,0.6c0.8,0,1.5-0.2,1.9-0.5c0.4-0.4,0.6-0.8,0.6-1.3c0-0.3-0.1-0.6-0.3-0.8
		s-0.5-0.4-0.9-0.6c-0.3-0.1-1-0.3-2.1-0.6c-1.4-0.3-2.4-0.7-2.9-1.3c-0.8-0.7-1.2-1.6-1.2-2.6c0-0.7,0.2-1.3,0.5-1.8
		c0.4-0.6,0.9-1,1.6-1.3c0.7-0.3,1.5-0.5,2.5-0.5c1.6,0,2.8,0.4,3.6,1.1c0.8,0.7,1.3,1.7,1.3,2.9l-2.6,0.1c-0.1-0.7-0.3-1.2-0.7-1.4
		c-0.4-0.3-0.9-0.4-1.6-0.4c-0.7,0-1.3,0.1-1.8,0.5c-0.3,0.2-0.4,0.4-0.4,0.8s0.1,0.6,0.4,0.8c0.3,0.3,1.1,0.6,2.4,0.9
		c1.3,0.3,2.2,0.6,2.8,0.9c0.6,0.3,1.1,0.7,1.4,1.3c0.4,0.5,0.5,1.2,0.5,2.1c0,0.7-0.2,1.4-0.6,2.1c-0.4,0.7-1,1.1-1.7,1.4
		c-0.7,0.3-1.7,0.5-2.8,0.5c-1.6,0-2.9-0.4-3.8-1.1C584.6,200.9,584.1,199.9,583.9,198.4L583.9,198.4z"/>
	<path class="st9" d="M346.8,192.3l-1.3,7.6l11.1-0.2c-1,3.8-2.5,6.1-5,6.3h-13.1l1.8-20.3l16.9,0.2c-0.6,2.9-2.1,4.1-4.3,4.2h-2.5
		C348.6,190.2,347.4,190.9,346.8,192.3L346.8,192.3z"/>
	<path class="st9" d="M380.4,186l-18.1,0.2l-3.5,19.7h13.9c3.4,0.3,4.6-2,5.3-6.3h-11.6l0.5-4.8l7.8-0.7
		C377.4,193.9,380.1,189.5,380.4,186L380.4,186z M367.2,191.4l6.5,0.2C375,187.7,368.8,187.2,367.2,191.4L367.2,191.4z"/>
	<path class="st9" d="M401.1,185.8l-16,0.2c-0.2,2,0,4.4,2.9,4.5l8.4-0.5l-0.3,3.2l-8.6,0.1c-1.2-0.1-3.5,1.4-3.8,2.8l-1.8,9.5
		l19.4,0.1l2-15.4C403.5,188.1,402.8,185.7,401.1,185.8L401.1,185.8z M396,196.6l-6,0.1l-0.7,4.3l6-0.3L396,196.6z"/>
	<path class="st9" d="M442.4,185.5l-34.7,0.5l-0.2,3.2h4.3l-1.5,16.9h6.8l1.3-15.4c2.3-1.4,4.1-1.4,6.5-0.2l-1.1,15.3h6.3l1.1-14.9
		c2.3-1.5,4.5-1.5,6.8-0.4l-1.4,15.3l6.1-0.1l2-16.3C444.7,187.4,444.5,185.8,442.4,185.5L442.4,185.5z"/>
	<path class="st4" d="M422.7,209.3c33.2,0,60.2,25.7,60.2,57.3s-26.9,57.3-60.2,57.3c-33.2,0-60.2-25.7-60.2-57.3
		S389.5,209.3,422.7,209.3L422.7,209.3z"/>
	<path class="st5" d="M422.7,225.8c23.6,0,42.8,18.2,42.8,40.8c0,22.5-19.2,40.8-42.8,40.8c-23.7,0-42.8-18.2-42.8-40.8
		C379.9,244.1,399.1,225.8,422.7,225.8L422.7,225.8z"/>
	<path class="st6" d="M422.7,230.1c21.1,0,38.3,16.3,38.3,36.5c0,20.1-17.1,36.5-38.3,36.5c-21.2,0-38.3-16.3-38.3-36.5
		C384.4,246.5,401.6,230.1,422.7,230.1L422.7,230.1z"/>
	<path class="st6" d="M422.7,236.2c18.4,0,33.4,14.2,33.4,31.8s-14.9,31.8-33.4,31.8c-18.4,0-33.4-14.2-33.4-31.8
		C389.4,250.4,404.3,236.2,422.7,236.2L422.7,236.2z"/>
	<path class="st6" d="M422.7,251.1c9.7,0,17.7,7.6,17.7,16.8c0,9.3-7.9,16.8-17.7,16.8c-9.8,0-17.7-7.5-17.7-16.8
		C405,258.7,413,251.1,422.7,251.1L422.7,251.1z"/>
	<path class="st6" d="M422.7,255.3c7.4,0,13.3,5.7,13.3,12.7s-6,12.7-13.3,12.7c-7.4,0-13.3-5.7-13.3-12.7
		C409.4,261,415.4,255.3,422.7,255.3L422.7,255.3z"/>
	<path class="st4" d="M422.7,262.5c3.2,0,5.7,2.4,5.7,5.5c0,3-2.6,5.5-5.7,5.5c-3.2,0-5.8-2.4-5.8-5.5
		C416.9,265,419.5,262.5,422.7,262.5L422.7,262.5z"/>
	<path class="st4" d="M409.6,256.7c-0.1-6-3.9-8.8-10.1-9.5C400.8,253.7,404.3,256.6,409.6,256.7L409.6,256.7z"/>
	<path class="st4" d="M417.2,251.8c2.5-5.4,0.3-9.6-4.9-12.9C410.5,245.3,412.4,249.4,417.2,251.8L417.2,251.8z"/>
	<path class="st4" d="M426.1,251.5c5-3.4,5.3-8,2.5-13.6C423.9,242.4,423.4,247,426.1,251.5L426.1,251.5z"/>
	<path class="st4" d="M434.5,255c5.9-0.8,8.3-4.8,8.3-11.1C436.5,245.9,434,249.8,434.5,255L434.5,255z"/>
	<path class="st4" d="M439.4,263c5.7,1.7,9.6-1,12.1-6.7C445,255.5,441.2,258,439.4,263L439.4,263z"/>
	<path class="st4" d="M439.4,272.1c2.8,5.3,7.4,6.2,13.2,4C448.7,270.9,444.2,269.9,439.4,272.1L439.4,272.1z"/>
	<path class="st4" d="M434.7,280c0.4,6,4.3,8.6,10.4,9.1C443.6,282.6,440,279.9,434.7,280L434.7,280z"/>
	<path class="st4" d="M427.4,283.8c-2.7,5.3-0.7,9.6,4.4,13.1C433.7,290.6,432,286.4,427.4,283.8L427.4,283.8z"/>
	<path class="st4" d="M418.9,284.5c-5.4,2.7-6.3,7.3-4.3,13.2C419.9,293.7,421.1,289.3,418.9,284.5L418.9,284.5z"/>
	<path class="st4" d="M410.6,280.6c-6,0.1-8.8,3.8-9.6,10C407.5,289.3,410.4,285.8,410.6,280.6L410.6,280.6z"/>
	<path class="st4" d="M405.2,272.2c-5.7-1.8-9.6,0.8-12.3,6.4C399.5,279.5,403.4,277.2,405.2,272.2L405.2,272.2z"/>
	<path class="st4" d="M405.6,263.9c-3.5-4.9-8.2-5-13.7-2.1C396.6,266.4,401.1,266.8,405.6,263.9L405.6,263.9z"/>
	<path class="st4" d="M943,210.3c33.2,0,60.2,25.7,60.2,57.3S976.3,325,943,325c-33.2,0-60.2-25.7-60.2-57.3S909.8,210.3,943,210.3
		L943,210.3z"/>
	<path class="st5" d="M943,226.8c23.7,0,42.8,18.3,42.8,40.8s-19.2,40.8-42.8,40.8s-42.8-18.3-42.8-40.8S919.4,226.8,943,226.8
		L943,226.8z"/>
	<path class="st6" d="M943,231.1c21.2,0,38.3,16.3,38.3,36.5s-17.1,36.5-38.3,36.5c-21.1,0-38.3-16.3-38.3-36.5
		S921.9,231.1,943,231.1L943,231.1z"/>
	<path class="st6" d="M943,237.2c18.4,0,33.4,14.2,33.4,31.8s-14.9,31.8-33.4,31.8c-18.4,0-33.4-14.2-33.4-31.8
		S924.6,237.2,943,237.2L943,237.2z"/>
	<path class="st6" d="M943,252.2c9.8,0,17.7,7.5,17.7,16.8s-7.9,16.8-17.7,16.8s-17.7-7.5-17.7-16.8
		C925.4,259.7,933.3,252.2,943,252.2L943,252.2z"/>
	<path class="st6" d="M943,256.3c7.4,0,13.3,5.7,13.3,12.7s-6,12.7-13.3,12.7c-7.4,0-13.3-5.7-13.3-12.7S935.7,256.3,943,256.3
		L943,256.3z"/>
	<path class="st4" d="M943,263.5c3.2,0,5.7,2.5,5.7,5.5s-2.6,5.5-5.7,5.5c-3.2,0-5.7-2.4-5.7-5.5C937.3,266,939.8,263.5,943,263.5
		L943,263.5z"/>
	<path class="st4" d="M929.9,257.8c-0.1-6-3.9-8.8-10.1-9.5C921.1,254.7,924.6,257.6,929.9,257.8L929.9,257.8z"/>
	<path class="st4" d="M937.5,252.9c2.5-5.5,0.3-9.6-4.9-12.9C930.9,246.3,932.8,250.4,937.5,252.9L937.5,252.9z"/>
	<path class="st4" d="M946.5,252.5c4.9-3.4,5.3-8,2.5-13.6C944.2,243.5,943.7,248,946.5,252.5L946.5,252.5z"/>
	<path class="st4" d="M954.8,256c6-0.8,8.3-4.8,8.3-11C956.8,247,954.4,250.8,954.8,256L954.8,256z"/>
	<path class="st4" d="M959.7,264c5.7,1.7,9.6-1,12.1-6.7C965.3,256.5,961.5,259,959.7,264L959.7,264z"/>
	<path class="st4" d="M959.7,273.1c2.8,5.3,7.4,6.2,13.2,4C969,271.9,964.5,270.9,959.7,273.1L959.7,273.1z"/>
	<path class="st4" d="M955,281c0.4,6,4.2,8.6,10.4,9C963.9,283.7,960.3,280.9,955,281L955,281z"/>
	<path class="st4" d="M947.7,284.8c-2.7,5.4-0.7,9.6,4.4,13.1C954.1,291.7,952.3,287.5,947.7,284.8L947.7,284.8z"/>
	<path class="st4" d="M939.3,285.5c-5.4,2.7-6.3,7.3-4.3,13.2C940.3,294.8,941.4,290.3,939.3,285.5L939.3,285.5z"/>
	<path class="st4" d="M930.9,281.6c-6,0.1-8.8,3.8-9.6,10C927.8,290.3,930.8,286.8,930.9,281.6L930.9,281.6z"/>
	<path class="st4" d="M925.6,273.2c-5.7-1.8-9.6,0.8-12.3,6.4C919.8,280.6,923.7,278.2,925.6,273.2L925.6,273.2z"/>
	<path class="st4" d="M925.9,265c-3.5-4.8-8.2-5-13.7-2.1C916.9,267.5,921.5,267.8,925.9,265L925.9,265z"/>
	<path class="st7" d="M304.1,221l-0.6-40.2L526.8,161l73-73.5c3.9-26,314-14,318.3,1.7l62.8,74.1l167.4,6.8l1.7,82.6h-12.4
		c2.7,31-32.4,34-125.5,36.8c-2-36.3-23.6-60.6-69-57.1c-45.7,0.5-64.1,16-70.7,63.8l-376,1.1c-9-59.5-34.9-88.7-76.3-85.7
		c-42,2.4-58.2,29.8-63.9,82.8c-23.8,5.4-43.1-0.9-43.5-29.4C313.6,241.5,312.4,222,304.1,221L304.1,221z"/>
	<polygon class="st6" points="304.4,222.3 303.5,180.8 300,181.3 300.3,223.1 	"/>
	<line class="st6" x1="304.4" y1="222.3" x2="312.9" y2="256.5"/>
	<path class="st6" d="M603.1,90.8l-6.1-0.4L530,158l28.1,1.5c7.6,1,9.4,0,11.6-2.5l39-58C610.8,95.2,610.6,91.9,603.1,90.8
		L603.1,90.8z"/>
	<path class="st5" d="M599.8,87.6L530,158l-3.1,3.1l34.6,1.8c4.8,0.4,6.1,0.5,9.6-3.4l41.3-61.3c-1.2-2.9,1-6.1-3.7-8.8L599.8,87.6z
		"/>
	<path class="st6" d="M978.1,159.9l-59.9-70.7L901.9,95c-5.4,2.9-6.6,9.2-4.5,18.1L920,153c2.6,5.7,7.1,8.5,14.1,7.4L978.1,159.9z"
		/>
	<path class="st5" d="M973.4,154.5L922.2,94l-13.5,5.5c-8.1,3.1-8.6,7.9-5.7,13.6l21.8,36.2c1.6,3.6,5.4,5,10.7,4.8L973.4,154.5z"/>
	<path class="st6" d="M577.3,164.9L624.6,86c72.7-3,146.1-2.7,220.2,1.1c29-3.5,46.3,32.4,61.6,74.4l2,64.2
		c-22.4,7.4-32.9,23.9-38.7,44.1L544.8,272l-1.7-93.3C551.4,170.3,562.3,165,577.3,164.9L577.3,164.9z"/>
	<polygon class="st5" points="638.4,93.3 628.8,93.4 585.8,160.6 624.3,160.1 	"/>
	<polygon class="st5" points="629.7,159.5 644.6,91.9 728.9,90.5 728.9,159.2 	"/>
	<polygon class="st5" points="743.9,158.4 743.9,89.4 832.4,91.4 844.8,157.2 	"/>
	<path class="st5" d="M850.8,93.4L836,91.7l14.1,64.7l47.5,0.8C886,125.6,873.1,97,850.8,93.4L850.8,93.4z"/>
	<line class="st6" x1="734.7" y1="86.6" x2="738.8" y2="272.3"/>
	<line class="st6" x1="577.3" y1="164.9" x2="906.4" y2="161.5"/>
	<polygon class="st6" points="701.8,175.6 700.9,170.8 732,171.4 732,175.3 	"/>
	<polygon class="st6" points="867.7,175.6 868.8,170.5 903.6,171.7 903.6,175.3 	"/>
	<polygon class="st8" points="1149.9,250.1 1148.4,174.5 1139.4,174.2 1127.8,250.6 	"/>
	<path class="st9" d="M781.3,234.4h-10.9v21.2h-9.9V199h24v13.5h-14.1v9.2h10.9V234.4z M816.1,255.6h-8.3l-9.1-24.9
		c-1.2-3.2-2.4-7.1-3.5-11.8c0.5,3.7,0.8,6.8,0.8,9.3v27.4h-8.2V199h9.6l7.7,20.7c1.5,4.1,2.7,7.8,3.5,10.9
		c-0.5-4.9-0.8-9.8-0.8-14.9V199h8.3V255.6z M858,199v56.6h-9.5v-40.4l-6.2,40.4h-6.5l-6.4-40.4v40.4h-7.6V199h13.3l4.9,30l4.6-30.1
		H858V199z"/>
	<path class="st9" d="M788.3,188.2V179h3c1.1,0,1.8,0.1,2.2,0.1c0.5,0.1,1,0.4,1.3,0.9c0.4,0.4,0.5,1,0.5,1.8c0,0.6-0.1,1-0.3,1.4
		s-0.4,0.7-0.8,0.9c-0.3,0.2-0.6,0.4-1,0.4c-0.4,0.1-1.1,0.1-1.9,0.1h-1.2v3.5h-1.8V188.2z M790.2,180.6v2.6h1
		c0.7,0,1.2-0.1,1.5-0.1c0.2-0.1,0.4-0.2,0.6-0.4c0.1-0.2,0.2-0.4,0.2-0.7c0-0.4-0.1-0.6-0.3-0.8s-0.4-0.4-0.7-0.4
		c-0.2,0-0.7-0.1-1.3-0.1h-1V180.6z M797.3,188.2V179h6.8v1.5h-4.9v2h4.6v1.5h-4.6v2.5h5.1v1.5h-7L797.3,188.2L797.3,188.2z
		 M812.1,184.8l1.8,0.5c-0.3,1-0.7,1.8-1.4,2.3s-1.5,0.7-2.4,0.7c-1.2,0-2.2-0.4-3-1.2s-1.2-2-1.2-3.4c0-1.5,0.4-2.7,1.2-3.5
		s1.8-1.3,3.1-1.3c1.1,0,2,0.3,2.7,1c0.4,0.4,0.7,1,1,1.7L812,182c-0.1-0.5-0.3-0.8-0.7-1.1s-0.8-0.4-1.3-0.4
		c-0.7,0-1.3,0.2-1.7,0.7s-0.6,1.3-0.6,2.4c0,1.1,0.2,2,0.6,2.4c0.4,0.5,1,0.7,1.6,0.7c0.5,0,0.9-0.1,1.3-0.5
		C811.7,186,811.9,185.5,812.1,184.8L812.1,184.8z M808.1,190.6v-0.7c0.4,0.1,0.8,0.1,1.2,0.1s0.7-0.1,0.8-0.2
		c0.1-0.1,0.2-0.2,0.2-0.4c0-0.1-0.1-0.3-0.2-0.4c-0.1-0.1-0.3-0.2-0.6-0.2s-0.5,0.1-0.8,0.1l0.1-0.6c0.3-0.1,0.7-0.2,1.1-0.2
		c0.5,0,0.9,0.1,1.2,0.4c0.3,0.2,0.4,0.5,0.4,0.8c0,0.4-0.1,0.7-0.4,0.9c-0.4,0.3-1,0.4-1.7,0.4
		C808.8,190.7,808.3,190.7,808.1,190.6L808.1,190.6z M824.1,188.2h-2l-0.8-2.1h-3.7l-0.8,2.1H815l3.5-9.1h1.9L824.1,188.2z
		 M820.8,184.5l-1.3-3.4l-1.2,3.4H820.8z M825.1,185.2l1.8-0.2c0.1,0.6,0.3,1,0.7,1.3c0.3,0.3,0.8,0.4,1.3,0.4c0.6,0,1-0.1,1.3-0.4
		c0.3-0.3,0.4-0.5,0.4-0.9c0-0.2-0.1-0.4-0.2-0.5c-0.1-0.1-0.4-0.3-0.7-0.4c-0.2-0.1-0.7-0.2-1.5-0.4c-1-0.2-1.7-0.5-2.1-0.9
		c-0.6-0.5-0.8-1.1-0.8-1.8c0-0.5,0.1-0.9,0.4-1.3c0.3-0.4,0.6-0.7,1.1-1c0.5-0.2,1.1-0.3,1.8-0.3c1.2,0,2,0.2,2.6,0.7
		s0.9,1.2,0.9,2.1l-1.9,0.1c-0.1-0.5-0.2-0.8-0.5-1c-0.2-0.2-0.6-0.3-1.1-0.3s-1,0.1-1.3,0.3c-0.2,0.1-0.3,0.3-0.3,0.6
		c0,0.2,0.1,0.4,0.3,0.6c0.2,0.2,0.8,0.4,1.7,0.6c0.9,0.2,1.5,0.4,2,0.7c0.4,0.2,0.8,0.5,1,0.9s0.4,0.9,0.4,1.5c0,0.5-0.1,1-0.4,1.5
		c-0.3,0.5-0.7,0.8-1.3,1c-0.5,0.2-1.2,0.3-2,0.3c-1.2,0-2.1-0.3-2.7-0.8C825.6,187,825.2,186.2,825.1,185.2L825.1,185.2z"/>
	<path class="st9" d="M667.9,244.3c0,4.6-1.3,8.4-3.7,11.3c-2.6,3-6.2,4.6-10.7,4.6h-20.9c-4.5,0-8-1.5-10.6-4.5s-3.8-6.8-3.8-11.4
		v-10.6c0-5.6,1.8-9.9,5.3-12.8c-3.5-2.6-5.3-6.8-5.3-12.6v-10.6c0-4.6,1.3-8.5,3.8-11.4c2.5-3,6.1-4.5,10.6-4.5h20.9
		c4.5,0,8.1,1.5,10.7,4.6c2.4,2.9,3.7,6.7,3.7,11.3v10.6c0,5.8-1.8,10-5.3,12.6c3.5,2.9,5.3,7.2,5.3,12.8V244.3z M654,209.4v-9
		c0-3.1-1.7-4.7-5-4.7h-12c-3.3,0-5,1.6-5,4.7v9c0,3.1,1.6,4.7,4.8,4.7h12.3C652.4,214.1,654,212.5,654,209.4L654,209.4z M654,241.7
		v-8.9c0-1.4-0.4-2.5-1.3-3.4c-0.9-0.9-2-1.3-3.4-1.3H637c-1.4,0-2.5,0.4-3.4,1.3c-0.9,0.9-1.4,2-1.4,3.4v8.9c0,3.1,1.7,4.7,5,4.7
		H649C652.3,246.4,654,244.8,654,241.7L654,241.7z"/>
	<path class="st9" d="M694.2,260.7h-13.9v-61.6c-0.1-2.5-1.9-3.4-5.5-3.5l0.1-13.8h12c5.3,0.1,7.3,3.3,7.4,7.9L694.2,260.7
		L694.2,260.7z"/>
	<polygon class="st10" points="1105.5,222.1 1105.5,178.8 1114.2,178.8 1114.2,214.3 1122.3,214.3 1122.3,222.1 	"/>
	<path class="st10" d="M929,194v-4.4c0-1.2-0.1-2-0.4-2.4c-0.3-0.4-0.8-0.6-1.7-0.6s-1.4,0.2-1.7,0.6c-0.3,0.4-0.4,1.2-0.4,2.4v22.8
		c0,1.3,0.1,2.1,0.4,2.4c0.3,0.4,0.8,0.6,1.7,0.6s1.4-0.2,1.7-0.6c0.3-0.4,0.4-1.2,0.4-2.4v-5.9h7.9v4.5c0,2.9-0.1,5-0.4,6.3
		c-0.3,1.3-0.7,2.4-1.3,3.3c-0.7,1-1.5,1.6-2.5,2s-2.9,0.6-5.6,0.6c-3.2,0-5.3-0.2-6.4-0.6c-1.1-0.4-2.1-1-2.8-2
		c-0.7-0.9-1.2-2-1.5-3.3s-0.4-3.4-0.4-6.3v-20c0-2.9,0.1-5,0.4-6.3c0.3-1.3,0.8-2.4,1.5-3.3c0.8-1,1.8-1.7,3-2.1
		c1.3-0.4,3.3-0.6,6.2-0.6c2.5,0,4.3,0.2,5.4,0.6c1.1,0.4,2,1,2.6,2c0.6,0.9,1.1,2,1.3,3.3c0.3,1.3,0.4,3.4,0.4,6.3v3L929,194
		L929,194z"/>
	<polygon class="st10" points="966.4,222.8 966.4,179.5 978.9,179.5 983.8,213.6 989,179.5 1001.3,179.5 1001.3,222.8 993.5,222.8 
		994.1,186.2 988.3,222.8 978.8,222.8 973.2,186.2 973.8,222.8 	"/>
	<rect x="1007.5" y="179.5" class="st10" width="8.6" height="43.3"/>
	<path class="st10" d="M1034.8,212.6v-22.8c0-1.2-0.1-2-0.4-2.4s-0.9-0.6-1.8-0.6c-1,0-1.6,0.2-1.9,0.6s-0.4,1.2-0.4,2.4v22.8
		c0,1.2,0.1,2.1,0.4,2.4c0.3,0.4,0.9,0.6,1.9,0.6c0.9,0,1.5-0.2,1.8-0.6C1034.7,214.6,1034.8,213.8,1034.8,212.6L1034.8,212.6z
		 M1043.7,211.1c0,3-0.1,5.1-0.4,6.4c-0.3,1.3-0.8,2.4-1.5,3.2c-0.7,1-1.7,1.6-2.8,2c-1.1,0.4-3.3,0.6-6.4,0.6s-5.3-0.2-6.4-0.6
		c-1.1-0.4-2.1-1-2.8-2c-0.7-0.9-1.2-2-1.5-3.3s-0.4-3.4-0.4-6.3v-20c0-2.9,0.1-5,0.4-6.3c0.3-1.3,0.8-2.4,1.5-3.3
		c0.8-1,1.8-1.7,3-2.1c1.3-0.4,3.3-0.6,6.2-0.6s4.9,0.2,6.2,0.6c1.2,0.4,2.2,1.1,3,2.1c0.7,0.9,1.2,2,1.5,3.3s0.4,3.4,0.4,6.3
		L1043.7,211.1L1043.7,211.1z"/>
	<polygon class="st10" points="1048.2,221.8 1048.2,178.6 1060.3,178.6 1067,212.8 1066.5,178.6 1074.3,178.6 1074.3,221.8 
		1062.2,221.8 1055.4,186.7 1056,221.8 	"/>
	<path class="st10" d="M938.2,221.4l11.3-45.9h4.3l11.9,45.9h-4.4l-3.4-13.9h-12.4l-3.2,13.9H938.2z M946.7,202.5h10l-3.1-12.7
		c-0.9-3.9-1.6-7.1-2.1-9.6c-0.4,3-1,6-1.6,8.8L946.7,202.5z"/>
	<path class="st10" d="M1077.3,221.1l11.3-45.9h4.3l12,45.9h-4.4l-3.4-13.9h-12.4l-3.2,13.9H1077.3z M1085.7,202.2h10l-3-12.7
		c-0.9-3.9-1.6-7.1-2.1-9.6c-0.4,3-1,5.9-1.6,8.8L1085.7,202.2z"/>
	<path class="st10" d="M457.4,202.6v-10.7h-3.8v-2.2h10.2v2.2H460v10.7H457.4z M466.1,202.6v-12.9h5.5c1.4,0,2.4,0.1,3,0.4
		c0.6,0.2,1.1,0.6,1.5,1.2c0.4,0.6,0.5,1.3,0.5,2c0,1-0.3,1.8-0.8,2.4c-0.6,0.6-1.4,1-2.5,1.2c0.6,0.3,1,0.7,1.4,1.1
		c0.4,0.4,0.9,1.1,1.5,2.1l1.5,2.5h-3.1l-1.8-2.8c-0.7-1-1.1-1.6-1.4-1.9c-0.2-0.3-0.5-0.4-0.8-0.5s-0.7-0.1-1.3-0.1h-0.5v5.4
		L466.1,202.6L466.1,202.6z M468.7,195.2h1.9c1.3,0,2-0.1,2.3-0.1c0.3-0.1,0.6-0.3,0.7-0.6c0.2-0.2,0.3-0.6,0.3-1s-0.1-0.8-0.4-1
		c-0.2-0.3-0.6-0.4-1-0.5c-0.2,0-0.8-0.1-1.9-0.1h-2v3.3L468.7,195.2L468.7,195.2z M491.3,202.6h-2.8l-1.1-2.9h-5.1l-1.1,2.9h-2.7
		l5-12.9h2.7L491.3,202.6z M486.6,197.5l-1.8-4.8l-1.7,4.8H486.6z M493.3,202.6v-12.9h2.5l5.3,8.6v-8.6h2.4v12.9H501l-5.2-8.5v8.5
		H493.3z M506.3,198.4l2.5-0.2c0.1,0.8,0.4,1.5,0.9,1.9s1.1,0.6,1.9,0.6s1.5-0.2,1.9-0.5c0.4-0.4,0.7-0.8,0.7-1.3
		c0-0.3-0.1-0.6-0.3-0.8s-0.5-0.4-1-0.6c-0.3-0.1-1-0.3-2.1-0.6c-1.4-0.3-2.4-0.7-2.9-1.3c-0.8-0.7-1.2-1.6-1.2-2.6
		c0-0.7,0.2-1.3,0.6-1.8c0.4-0.6,0.9-1,1.6-1.3s1.5-0.5,2.5-0.5c1.6,0,2.8,0.4,3.6,1.1c0.8,0.7,1.3,1.7,1.3,2.9l-2.6,0.1
		c-0.1-0.7-0.4-1.2-0.7-1.4c-0.4-0.3-0.9-0.4-1.6-0.4s-1.3,0.1-1.8,0.5c-0.3,0.2-0.4,0.4-0.4,0.8s0.1,0.6,0.4,0.8
		c0.3,0.3,1.1,0.6,2.4,0.9c1.3,0.3,2.2,0.6,2.8,0.9c0.6,0.3,1.1,0.7,1.4,1.3c0.3,0.5,0.5,1.2,0.5,2.1c0,0.7-0.2,1.4-0.6,2.1
		c-0.4,0.7-1,1.1-1.7,1.4c-0.7,0.3-1.7,0.5-2.8,0.5c-1.6,0-2.9-0.4-3.8-1.1C506.9,200.9,506.4,199.9,506.3,198.4L506.3,198.4z
		 M519.6,202.6v-12.9h4.1c1.6,0,2.6,0.1,3.1,0.2c0.7,0.2,1.3,0.6,1.8,1.3s0.7,1.5,0.7,2.5c0,0.8-0.1,1.5-0.4,2
		c-0.3,0.5-0.7,1-1.1,1.3c-0.4,0.3-0.9,0.5-1.3,0.6c-0.6,0.1-1.5,0.2-2.7,0.2h-1.7v4.9h-2.5L519.6,202.6L519.6,202.6z M522.2,191.9
		v3.7h1.4c1,0,1.7-0.1,2-0.2c0.4-0.1,0.6-0.4,0.8-0.7s0.3-0.6,0.3-1c0-0.5-0.1-0.9-0.4-1.2c-0.3-0.3-0.6-0.5-1-0.6
		c-0.3-0.1-1-0.1-1.9-0.1h-1.2L522.2,191.9L522.2,191.9z M531.6,196.2c0-1.3,0.2-2.4,0.6-3.3c0.3-0.7,0.7-1.3,1.2-1.8
		s1.1-0.9,1.7-1.2c0.8-0.4,1.7-0.5,2.8-0.5c1.9,0,3.4,0.6,4.6,1.8c1.1,1.2,1.7,2.8,1.7,4.9c0,2.1-0.6,3.7-1.7,4.9
		c-1.1,1.2-2.6,1.8-4.6,1.8c-1.9,0-3.4-0.6-4.6-1.8C532.2,199.9,531.6,198.3,531.6,196.2L531.6,196.2z M534.3,196.1
		c0,1.5,0.3,2.6,1,3.3c0.7,0.8,1.5,1.1,2.6,1.1c1,0,1.9-0.4,2.6-1.1c0.7-0.7,1-1.9,1-3.4s-0.3-2.6-1-3.3s-1.5-1.1-2.6-1.1
		s-1.9,0.4-2.6,1.1C534.6,193.6,534.3,194.7,534.3,196.1L534.3,196.1z M546.8,202.6v-12.9h5.5c1.4,0,2.4,0.1,3,0.4
		c0.6,0.2,1.1,0.6,1.5,1.2c0.4,0.6,0.5,1.3,0.5,2c0,1-0.3,1.8-0.8,2.4c-0.6,0.6-1.4,1-2.5,1.2c0.6,0.3,1,0.7,1.4,1.1
		c0.4,0.4,0.9,1.1,1.5,2.1l1.5,2.5h-3.1l-1.8-2.8c-0.7-1-1.1-1.6-1.4-1.9c-0.2-0.3-0.5-0.4-0.8-0.5s-0.7-0.1-1.3-0.1h-0.5v5.4
		L546.8,202.6L546.8,202.6z M549.4,195.2h1.9c1.3,0,2-0.1,2.3-0.1c0.3-0.1,0.6-0.3,0.7-0.6c0.2-0.2,0.3-0.6,0.3-1s-0.1-0.8-0.4-1
		c-0.2-0.3-0.6-0.4-1-0.5c-0.2,0-0.8-0.1-1.9-0.1h-2v3.3L549.4,195.2L549.4,195.2z M563.3,202.6v-10.7h-3.8v-2.2h10.2v2.2h-3.8v10.7
		H563.3z M572,202.6v-12.9h9.5v2.2h-6.9v2.9h6.4v2.2h-6.4v3.5h7.2v2.2L572,202.6L572,202.6z M583.9,198.4l2.5-0.2
		c0.2,0.8,0.5,1.5,0.9,1.9c0.5,0.4,1.1,0.6,1.9,0.6c0.8,0,1.5-0.2,1.9-0.5c0.4-0.4,0.6-0.8,0.6-1.3c0-0.3-0.1-0.6-0.3-0.8
		s-0.5-0.4-0.9-0.6c-0.3-0.1-1-0.3-2.1-0.6c-1.4-0.3-2.4-0.7-2.9-1.3c-0.8-0.7-1.2-1.6-1.2-2.6c0-0.7,0.2-1.3,0.5-1.8
		c0.4-0.6,0.9-1,1.6-1.3c0.7-0.3,1.5-0.5,2.5-0.5c1.6,0,2.8,0.4,3.6,1.1c0.8,0.7,1.3,1.7,1.3,2.9l-2.6,0.1c-0.1-0.7-0.3-1.2-0.7-1.4
		c-0.4-0.3-0.9-0.4-1.6-0.4c-0.7,0-1.3,0.1-1.8,0.5c-0.3,0.2-0.4,0.4-0.4,0.8s0.1,0.6,0.4,0.8c0.3,0.3,1.1,0.6,2.4,0.9
		c1.3,0.3,2.2,0.6,2.8,0.9c0.6,0.3,1.1,0.7,1.4,1.3c0.4,0.5,0.5,1.2,0.5,2.1c0,0.7-0.2,1.4-0.6,2.1c-0.4,0.7-1,1.1-1.7,1.4
		c-0.7,0.3-1.7,0.5-2.8,0.5c-1.6,0-2.9-0.4-3.8-1.1C584.6,200.9,584.1,199.9,583.9,198.4L583.9,198.4z"/>
	<path class="st9" d="M346.8,192.3l-1.3,7.6l11.1-0.2c-1,3.8-2.5,6.1-5,6.3h-13.1l1.8-20.3l16.9,0.2c-0.6,2.9-2.1,4.1-4.3,4.2h-2.5
		C348.6,190.2,347.4,190.9,346.8,192.3L346.8,192.3z"/>
	<path class="st9" d="M380.4,186l-18.1,0.2l-3.5,19.7h13.9c3.4,0.3,4.6-2,5.3-6.3h-11.6l0.5-4.8l7.8-0.7
		C377.4,193.9,380.1,189.5,380.4,186L380.4,186z M367.2,191.4l6.5,0.2C375,187.7,368.8,187.2,367.2,191.4L367.2,191.4z"/>
	<path class="st9" d="M401.1,185.8l-16,0.2c-0.2,2,0,4.4,2.9,4.5l8.4-0.5l-0.3,3.2l-8.6,0.1c-1.2-0.1-3.5,1.4-3.8,2.8l-1.8,9.5
		l19.4,0.1l2-15.4C403.5,188.1,402.8,185.7,401.1,185.8L401.1,185.8z M396,196.6l-6,0.1l-0.7,4.3l6-0.3L396,196.6z"/>
	<path class="st9" d="M442.4,185.5l-34.7,0.5l-0.2,3.2h4.3l-1.5,16.9h6.8l1.3-15.4c2.3-1.4,4.1-1.4,6.5-0.2l-1.1,15.3h6.3l1.1-14.9
		c2.3-1.5,4.5-1.5,6.8-0.4l-1.4,15.3l6.1-0.1l2-16.3C444.7,187.4,444.5,185.8,442.4,185.5L442.4,185.5z"/>
</g>
</svg>
