<?xml version="1.0" encoding="utf-8"?>
<!-- Generator: Adobe Illustrator 22.1.0, SVG Export Plug-In . SVG Version: 6.00 Build 0)  -->
<svg version="1.1" id="Camada_1" xmlns="http://www.w3.org/2000/svg" xmlns:xlink="http://www.w3.org/1999/xlink" x="0px" y="0px"
	 viewBox="0 0 1450 450" style="enable-background:new 0 0 1450 450;" xml:space="preserve">
<style type="text/css">
	.st0{fill:none;stroke:#E6E7E8;stroke-width:0.283;stroke-miterlimit:22.9256;}
	.st1{fill:#FEFEFE;stroke:#373435;stroke-width:0.72;stroke-linejoin:round;stroke-miterlimit:22.9256;}
	.st2{fill:#96989A;stroke:#727376;stroke-width:0.567;stroke-miterlimit:22.9256;}
	.st3{fill:#373435;stroke:#727376;stroke-width:0.567;stroke-miterlimit:22.9256;}
	.st4{fill:none;stroke:#D3B73B;stroke-width:0.567;stroke-miterlimit:22.9256;}
	.st5{fill:none;stroke:#727376;stroke-width:0.567;stroke-miterlimit:22.9256;}
	.st6{fill:#E6E7E8;stroke:#727376;stroke-width:0.567;stroke-miterlimit:22.9256;}
	.st7{fill:#373435;stroke:#727376;stroke-width:0.216;stroke-miterlimit:22.9256;}
	.st8{fill:#BDBFC1;stroke:#727376;stroke-width:0.216;stroke-miterlimit:22.9256;}
	.st9{fill:#848688;stroke:#727376;stroke-width:0.216;stroke-miterlimit:22.9256;}
	.st10{fill:#D7B600;}
	.st11{font-family:'Arial-Black';}
	.st12{font-size:17.0459px;}
	.st13{font-size:18.4648px;}
	.st14{fill:#373435;}
	.st15{fill:#FEFEFE;}
	.st16{fill:#D7B600;stroke:#373435;stroke-width:0.777;stroke-linejoin:round;stroke-miterlimit:2.6131;}
	.st17{fill:none;stroke:#D7B600;stroke-width:0.216;stroke-miterlimit:22.9256;}
	.st18{fill:#D7B600;stroke:#D7B600;stroke-width:0.216;stroke-miterlimit:22.9256;}
	.st19{font-family:'Arial-BoldMT';}
	.st20{font-size:12.5803px;}
	.st21{fill:#373435;stroke:#373435;stroke-width:0.216;stroke-miterlimit:22.9256;}
	.st22{font-size:48.1527px;}
	.st23{fill:#518563;}
	.st24{fill:#FFF212;}
	.st25{fill:#5351A0;}
	.st26{font-size:15.6082px;}
	.st27{font-family:'Raleway-Regular';}
	.st28{font-size:40px;}
	.st29{font-size:25px;}
</style>
<rect x="271.9" y="482" class="st0" width="906.2" height="448"/>
<polygon class="st1" points="1110.5,276.3 1110.5,272.9 1158.5,272.9 1158.5,276.3 "/>
<g>
	<polygon class="st2" points="366.3,172.1 385.1,272.7 385,277.6 518.9,280.5 563.2,273.8 884.9,273.3 896.3,281.3 1096.1,272.2 
		1095.5,266.9 1139.8,265.5 1142.3,251.7 1129.1,251.4 961.8,171.6 	"/>
	<path class="st3" d="M1071.3,119.6l-24.3,0.6l-13.8,4.4l-88.5-66.9l6.6-11.1l-29.3-10c-67.6-6.5-174.5-6.8-241.1-1.1L656,41.6
		l1.9,8l-87.4,73.6c-12.4,3.2-23.2,3.8-35.6,0.3c-120.7,11.2-221.7,22.5-216.7,33.7l0.6,47.5H301l-1,22.7l16.6,0.6
		c11.3,24.4,8.8,32.9-0.6,33.7l1.1,8.3l68,2.8l-0.3-47c17.9-66.2,111.7-63.9,129.1,2.2l2.8,42.6l368.2,2.8l3.1-43.7
		c6-63,122.5-65.7,130.2-1.1l2.8,37l108.9-6.6l-0.6-8.3l16-18.2v-6.1h4.7l-0.8-20.5l-17.6-7.7l-1.1-75.7L1071.3,119.6L1071.3,119.6z
		"/>
	<path class="st4" d="M552.1,132.3c-104.6,8.5-199.7,17.1-214,27.1l-19.9-2.2"/>
	<polygon class="st5" points="321.6,163 321.6,201.7 336.5,202.3 335.6,165.2 	"/>
	<polygon class="st5" points="300.3,221.4 302.4,204.7 394,205.3 386.2,221.3 	"/>
	<line class="st5" x1="316.6" y1="228" x2="384.9" y2="227.6"/>
	<line class="st5" x1="324.1" y1="252.3" x2="385" y2="252"/>
	<line class="st5" x1="507.1" y1="210.9" x2="894.3" y2="210"/>
	<line class="st5" x1="514" y1="228" x2="888" y2="229.6"/>
	<line class="st5" x1="515.3" y1="249.2" x2="886.8" y2="247.4"/>
	<path class="st5" d="M793.2,247.9c18.2,12.9,52.1,16.4,92.4,16l-369.1,3.4"/>
	<path class="st5" d="M569.4,139.5c-8.7,17.4-8.4,57.7-3.9,108.9l224.4-0.5c11.8-38.4,14.2-75.8,12.7-112.8h-5.8l12.7-88.5"/>
	<path class="st5" d="M569.4,139.5l102.2-90.1c63.7-5.6,170.5-4.6,241.6-3.3c25.6,22.5,48,45,64.7,67.5l1.1,21"/>
	<path class="st5" d="M966.8,131.8l1.7-19.9c-14.9-20.9-34.7-41.8-60.8-62.8c-78.3-2.8-156.7-0.9-235,3L576,133.7L966.8,131.8
		L966.8,131.8z"/>
	<polygon class="st6" points="672.6,56.8 798.7,53.8 781.3,129.5 587.5,130.3 	"/>
	<path class="st6" d="M898.8,52.7l-78.5-0.5l-4.4,78l138.8-0.8l1.7-12.4C946.6,95.4,930.7,74.1,898.8,52.7z"/>
	<path class="st6" d="M655.9,50.3l-0.5-8.8l-117,80.3c11,3.3,22.1,2.3,33.1-1.1C571.4,120.7,655.9,50.3,655.9,50.3z"/>
	<path class="st6" d="M947.2,57.7L953,50c31.3,16.2,62.6,41.2,94,68.5l-15.5,3.6C1031.4,122.1,947.2,57.7,947.2,57.7z"/>
	<polygon class="st3" points="1119.9,125.1 1065.7,124 1100,101.3 1137.1,100.8 	"/>
	<line class="st5" x1="1004.9" y1="200.3" x2="1131.5" y2="198.1"/>
	<polygon class="st3" points="1015,215.9 1012.4,210.4 1149.3,209.7 1149.6,216.1 	"/>
	<line class="st5" x1="1018.2" y1="228.5" x2="1145.3" y2="226.3"/>
	<line class="st5" x1="1020.3" y1="256.3" x2="1129.3" y2="250.6"/>
	<polyline class="st4" points="422.5,144 572,137.2 1122.1,135.1 	"/>
	<path class="st3" d="M601.3,132.9l3.2-24.4c9.1-3.5,18.1-5.3,27.2-4.4c2.3,6.4,2.2,12.9,0,19.4l-17.1,3.1v7.1L601.3,132.9z"/>
	<g>
		<circle class="st7" cx="448" cy="246.3" r="58.5"/>
		<circle class="st8" cx="448" cy="246.3" r="43.3"/>
		<polygon class="st7" points="455.2,213.4 448,203.1 444.2,216.2 445.4,225.9 444.2,216.2 433.9,207.9 433.9,219.2 438.5,228.1 
			433.9,219.2 419.3,214 424.8,225.6 432.6,232.6 424.8,225.6 410.1,225.5 416.5,234.7 428.7,239.2 416.5,234.7 406.6,240.8 
			415.7,245.8 427.4,246.3 415.7,245.8 405.5,254.6 416.8,257.1 428.5,253.1 416.8,257.1 410,267 420.7,266.5 431.4,258.6 
			420.7,266.5 416.9,276.4 427.6,273.2 435.5,262.7 427.6,273.2 426.7,282.3 436.4,278.7 441.1,265.8 436.4,278.7 439,288.7 
			445.3,280.9 448,266.9 445.3,280.9 449.7,289.6 453,281.7 453.7,266.2 453,281.7 463.6,286.7 463.7,279.3 456.9,264.9 
			463.7,279.3 473.6,281.2 471.5,271.2 462.2,261.3 471.5,271.2 483.1,271.7 480.1,264.3 466,256.4 480.1,264.3 489.1,259.8 
			484.2,253.8 468.2,250.5 484.2,253.8 491.2,248 482.9,243.3 468.3,242.8 482.9,243.3 489.7,234.9 480.7,233.1 465.7,235.8 
			480.7,233.1 486,225.6 475.4,225.3 461.9,231.1 475.4,225.3 478.3,215.5 467.4,216.8 456.4,227.5 467.4,216.8 466.1,207 
			455.2,213.4 452.4,226.2 		"/>
		<circle class="st9" cx="448" cy="246.3" r="20.6"/>
		<circle class="st8" cx="448" cy="246.3" r="10.9"/>
	</g>
	<g>
		<circle class="st7" cx="951.7" cy="245.6" r="58.5"/>
		<circle class="st8" cx="951.7" cy="245.6" r="43.3"/>
		<polygon class="st7" points="958.9,212.7 951.7,202.3 947.8,215.5 949.1,225.2 947.8,215.5 937.6,207.2 937.6,218.5 942.2,227.3 
			937.6,218.5 923,213.2 928.5,224.9 936.3,231.9 928.5,224.9 913.7,224.8 920.2,234 932.3,238.5 920.2,234 910.2,240.1 
			919.4,245.1 931.1,245.6 919.4,245.1 909.2,253.8 920.5,256.4 932.2,252.3 920.5,256.4 913.6,266.3 924.3,265.8 935.1,257.8 
			924.3,265.8 920.5,275.7 931.2,272.4 939.2,262 931.2,272.4 930.4,281.5 940.1,278 944.7,265 940.1,278 942.6,287.9 948.9,280.2 
			951.7,266.2 948.9,280.2 953.3,288.9 956.7,281 957.3,265.4 956.7,281 967.2,286 967.4,278.6 960.5,264.2 967.4,278.6 
			977.3,280.5 975.2,270.5 965.8,260.6 975.2,270.5 986.7,271 983.8,263.6 969.6,255.7 983.8,263.6 992.8,259 987.9,253.1 
			971.8,249.8 987.9,253.1 994.9,247.3 986.5,242.6 972,242 986.5,242.6 993.4,234.2 984.3,232.3 969.4,235.1 984.3,232.3 
			989.6,224.8 979.1,224.6 965.6,230.4 979.1,224.6 982,214.7 971,216 960.1,226.8 971,216 969.8,206.3 958.9,212.7 956.1,225.5 		
			"/>
		<circle class="st9" cx="951.7" cy="245.6" r="20.6"/>
		<circle class="st8" cx="951.7" cy="245.6" r="10.9"/>
	</g>
	<path class="st10" d="M833.5,136.8h10.1v1.3h-1.2c-0.5,0-0.8,0.1-0.9,0.3c-0.3,0.2-0.3,0.5-0.3,0.9v12.5c0,1.7-0.7,3.1-1.9,4.2
		c-1.3,1.1-3,1.7-5.1,1.7c-1.9,0-3.6-0.5-4.8-1.5c-1.2-1.1-1.8-2.3-1.8-3.7c0-1.1,0.3-2,0.9-2.7c0.7-0.7,1.4-1,2.3-1
		c0.8,0,1.5,0.3,1.9,0.8c0.5,0.5,0.8,1.1,0.8,1.9c0,0.7-0.2,1.2-0.5,1.6c-0.4,0.5-0.9,0.7-1.4,0.7c-0.1,0-0.3,0-0.5-0.1
		c-0.3-0.1-0.5-0.1-0.6-0.1c-0.3,0-0.5,0.1-0.5,0.1c-0.1,0.1-0.2,0.3-0.2,0.5c0,0.5,0.3,0.9,0.9,1.3c0.7,0.5,1.6,0.8,2.5,0.8
		c1.1,0,2-0.4,2.7-1.1c0.7-0.7,0.9-1.8,0.9-3.1v-12.7c0-0.4-0.1-0.7-0.3-0.9s-0.5-0.3-0.9-0.3h-2.1L833.5,136.8L833.5,136.8z
		 M853.2,143.6L853.2,143.6c1.4,0,2.7,0.3,4,0.9c1.2,0.7,2.1,1.5,2.7,2.5c0.6,1,0.9,2.2,0.9,3.6c0,2.3-0.8,4-2.3,5.2
		s-3.3,1.8-5.2,1.8c-1.4,0-2.7-0.3-3.8-0.9c-1.2-0.6-2.1-1.5-2.7-2.5c-0.6-1.1-0.9-2.3-0.9-3.6c0-2,0.7-3.7,2.1-5.1
		C849.3,144.2,851.1,143.6,853.2,143.6L853.2,143.6z M853.3,144.9L853.3,144.9c-1,0-1.7,0.5-2.3,1.3c-0.5,0.8-0.9,2.3-0.9,4.4
		c0,2.2,0.3,3.8,0.9,4.6c0.5,0.8,1.3,1.3,2.3,1.3s1.7-0.5,2.3-1.3c0.6-0.9,0.9-2.3,0.9-4.4c0-2.1-0.3-3.6-0.9-4.5
		C855,145.3,854.3,144.9,853.3,144.9z M863,136.8L863,136.8l6.1-0.3v10.1c0.9-1.1,1.7-1.9,2.5-2.3c0.8-0.5,1.7-0.6,2.5-0.6
		c1.3,0,2.3,0.3,3,1.1c0.7,0.9,1.1,2.2,1.1,3.8v6.2c0,0.4,0.1,0.7,0.3,0.9s0.5,0.3,0.9,0.3h0.9v1.3h-7.8V156h0.8
		c0.5,0,0.8-0.1,1-0.3s0.3-0.6,0.3-0.9v-6.1c0-0.9-0.3-1.5-0.7-2c-0.5-0.5-1.1-0.8-1.8-0.8c-0.9,0-1.6,0.4-2.2,1.1
		c-0.7,0.7-0.9,1.7-0.9,3v4.8c0,0.3,0.1,0.7,0.3,0.9s0.5,0.3,0.9,0.3h0.9v1.3h-8V156h1.1c0.4,0,0.7-0.1,0.9-0.3s0.3-0.5,0.3-0.9
		v-15.2c0-0.5-0.2-0.8-0.5-1.1s-0.6-0.4-1.1-0.4H863V136.8z M900,155.9L900,155.9v1.3h-7.8v-1.3h0.8c0.5,0,0.7-0.1,1-0.3
		c0.2-0.3,0.3-0.5,0.3-1V149c0-1-0.3-1.7-0.7-2.2c-0.5-0.5-1.1-0.7-1.7-0.7c-0.9,0-1.7,0.3-2.3,1.1c-0.6,0.7-0.9,1.7-0.9,3.2v4.3
		c0,0.5,0.1,0.7,0.3,1c0.2,0.2,0.5,0.3,0.8,0.3h1v1.3h-8V156h1c0.5,0,0.7-0.1,0.9-0.3c0.2-0.3,0.3-0.5,0.3-1V147
		c0-0.5-0.2-0.8-0.5-1.1s-0.7-0.4-1.2-0.4h-0.5v-1.2l5.4-0.3c0.2,0.8,0.3,1.7,0.4,2.8c0.7-1,1.6-1.7,2.4-2.3
		c0.9-0.5,1.8-0.8,2.7-0.8c1.3,0,2.3,0.5,3,1.3c0.7,0.9,1.1,2,1.1,3.6v6c0,0.5,0.1,0.9,0.3,1c0.1,0.2,0.5,0.3,1,0.3L900,155.9
		L900,155.9z M910.6,136.8L910.6,136.8h12c2,0,3.6,0.5,4.8,1.6c1.3,1.1,1.9,2.5,1.9,4c0,1.2-0.3,2.3-1.1,3.1
		c-0.7,0.9-1.7,1.5-2.9,1.9s-2.3,0.6-3.6,0.6h-3.8v6.6c0,0.4,0.1,0.7,0.3,0.9s0.5,0.3,0.9,0.3h2.3v1.3h-10.9v-1.3h1.8
		c0.5,0,0.7-0.1,0.9-0.3c0.2-0.1,0.3-0.5,0.3-0.9V139c0-0.3-0.1-0.6-0.3-0.8c-0.3-0.2-0.5-0.3-0.7-0.3h-2L910.6,136.8L910.6,136.8z
		 M918.1,146.8L918.1,146.8h2.5c0.9,0,1.7-0.1,2.3-0.5c0.7-0.3,1.2-0.9,1.5-1.3c0.3-0.6,0.5-1.5,0.5-2.7c0-1.7-0.5-2.8-1.3-3.5
		c-0.7-0.5-1.8-0.7-3.4-0.7c-0.9,0-1.5,0.1-1.7,0.2c-0.2,0.2-0.3,0.5-0.3,0.8L918.1,146.8L918.1,146.8z M931.3,136.8L931.3,136.8
		l6.1-0.3v18.4c0,0.3,0.1,0.6,0.3,0.8c0.3,0.1,0.5,0.3,0.9,0.3h0.8v1.3h-7.8V156h0.9c0.4,0,0.7-0.1,0.9-0.3c0.1-0.2,0.3-0.5,0.3-1
		v-15.1c0-0.5-0.1-0.9-0.3-1.1c-0.3-0.3-0.7-0.4-1.1-0.4h-1L931.3,136.8L931.3,136.8z M956.5,155.6L956.5,155.6l0.6,1
		c-0.6,0.4-1.1,0.7-1.5,0.8c-0.5,0.1-1,0.2-1.5,0.2c-0.7,0-1.4-0.2-1.9-0.5s-0.9-1-1.3-1.9c-0.9,0.9-1.8,1.6-2.5,1.9
		c-0.7,0.3-1.6,0.5-2.5,0.5c-1.3,0-2.3-0.3-3-0.9c-0.7-0.6-1.1-1.4-1.1-2.3c0-1.4,0.7-2.5,2.1-3.4c1.1-0.7,3.4-1.3,7.1-2v-1.8
		c0-0.7-0.3-1.3-0.7-1.9c-0.5-0.5-1.1-0.7-2-0.7c-0.6,0-1.1,0.1-1.6,0.4c-0.3,0.2-0.5,0.3-0.5,0.5c0,0.1,0,0.3,0.1,0.4
		c0.3,0.4,0.4,0.9,0.4,1.2c0,0.5-0.2,1-0.5,1.3s-0.7,0.5-1.3,0.5c-0.7,0-1.1-0.1-1.5-0.5s-0.5-0.8-0.5-1.4c0-0.9,0.5-1.6,1.4-2.3
		c1.2-0.9,2.7-1.2,4.6-1.2c1.3,0,2.5,0.2,3.6,0.6c0.7,0.3,1.2,0.7,1.7,1.4c0.4,0.7,0.6,1.5,0.6,2.4v6.6c0,0.5,0.1,0.9,0.3,1.1
		c0.2,0.3,0.5,0.4,0.8,0.4C955.7,156.1,956.1,155.9,956.5,155.6L956.5,155.6z M950.8,150.3L950.8,150.3c-2,0.3-3.4,0.7-4,1.3
		c-0.7,0.5-1.1,1.3-1.1,2.1c0,0.7,0.2,1.2,0.5,1.5c0.4,0.4,0.8,0.5,1.4,0.5c0.9,0,1.7-0.3,2.3-0.9c0.6-0.7,0.9-1.5,0.9-2.7
		L950.8,150.3L950.8,150.3z M958.5,144.3L958.5,144.3h7.6v1.2h-0.7c-0.4,0-0.7,0.1-0.9,0.2c-0.2,0.1-0.3,0.3-0.3,0.5
		c0,0.3,0.1,0.5,0.2,0.8l3.2,6.3l2.7-5.7c0.2-0.3,0.3-0.6,0.3-0.9c0-0.4-0.1-0.7-0.4-0.9c-0.3-0.3-0.7-0.3-1.2-0.3h-0.4v-1.2h5.6
		v1.2c-0.5,0-1,0.1-1.3,0.3c-0.3,0.3-0.6,0.6-0.9,1.1l-5.2,10.8c-0.9,1.8-1.8,3.2-2.7,4c-0.7,0.6-1.6,0.9-2.5,0.9s-1.7-0.2-2.3-0.7
		c-0.5-0.5-0.8-1-0.8-1.7c0-0.5,0.1-1,0.5-1.3c0.3-0.3,0.7-0.5,1.2-0.5s0.9,0.2,1.3,0.5c0.3,0.3,0.5,0.7,0.5,1.2
		c0,0.1-0.1,0.3-0.1,0.6c-0.1,0.1-0.1,0.3-0.1,0.3c0,0.2,0.1,0.3,0.3,0.3c0.5,0,0.9-0.3,1.5-0.9c0.7-0.7,1.4-1.8,2.1-3.4l-5.5-10.6
		c-0.2-0.4-0.5-0.7-0.7-0.8s-0.4-0.2-0.7-0.2h-0.3L958.5,144.3L958.5,144.3z M989.6,150.8L989.6,150.8h-9.1c0.1,1.8,0.4,3.2,1.1,4
		c0.7,0.8,1.6,1.3,2.7,1.3c0.8,0,1.5-0.2,2.3-0.7c0.7-0.4,1.4-1.3,2.1-2.4l1,0.7c-0.8,1.3-1.7,2.3-2.7,3c-1,0.6-2.2,0.9-3.7,0.9
		c-2.1,0-3.8-0.6-5.2-1.9c-1.3-1.3-1.9-2.9-1.9-5c0-2,0.7-3.7,1.9-5.1c1.3-1.3,2.9-1.9,4.9-1.9c1.3,0,2.4,0.2,3.4,0.7
		c0.9,0.6,1.7,1.3,2.2,2.4C989.3,147.8,989.6,149.2,989.6,150.8L989.6,150.8z M980.5,149.6L980.5,149.6h4.3c0.5,0,0.7-0.1,0.9-0.3
		c0.1-0.2,0.3-0.6,0.3-1.1c0-1.1-0.3-1.9-0.7-2.5c-0.5-0.6-1.1-0.9-1.9-0.9c-0.9,0-1.6,0.4-2.1,1.2
		C980.9,146.8,980.6,148,980.5,149.6L980.5,149.6z M1001.3,155.9L1001.3,155.9v1.3h-9v-1.3h1.1c0.4,0,0.7-0.1,1-0.3
		c0.2-0.2,0.3-0.5,0.3-0.7v-7.6c0-0.6-0.1-1.1-0.4-1.3c-0.3-0.3-0.7-0.5-1.1-0.5h-0.7v-1.2l5.5-0.3v4.2c0.3-1.3,0.9-2.5,1.7-3.2
		c0.7-0.7,1.7-1.1,2.7-1.1c0.9,0,1.5,0.3,2,0.7c0.5,0.5,0.7,1.1,0.7,1.8c0,0.6-0.1,1.1-0.5,1.5s-0.8,0.6-1.3,0.6s-0.9-0.2-1.1-0.5
		c-0.3-0.3-0.5-0.7-0.5-1.3c0-0.3,0-0.5,0.2-0.9c0.1-0.2,0.1-0.3,0.1-0.3c0-0.1-0.1-0.3-0.1-0.3c-0.1-0.1-0.2-0.1-0.3-0.1
		c-0.3,0-0.7,0.2-1.1,0.6c-0.6,0.5-1.1,1.5-1.5,2.7c-0.5,1.3-0.6,2.5-0.6,3.8v2.8c0,0.3,0.1,0.5,0.3,0.7c0.1,0.1,0.4,0.3,0.7,0.3
		L1001.3,155.9L1001.3,155.9z M1027.9,138.3L1027.9,138.3l1.3-1.8h0.9l0.1,7.1h-1.2c-0.7-2.1-1.6-3.6-2.7-4.6c-1.2-1-2.5-1.5-4-1.5
		c-1.2,0-2.2,0.3-3,1s-1.1,1.5-1.1,2.4c0,0.5,0.1,1.1,0.5,1.5c0.3,0.4,0.7,0.8,1.5,1.1c0.6,0.3,1.9,0.7,3.6,1
		c1.9,0.5,3.4,0.8,4.1,1.1c1.2,0.5,2.1,1.2,2.7,2.1c0.6,0.9,0.9,1.9,0.9,3.2c0,1.9-0.7,3.4-2,4.5c-1.5,1.3-3.5,2-5.8,2
		c-2.1,0-4.1-0.7-5.8-2.2l-1.6,2h-1v-7.6h1.1c1.2,4.4,3.7,6.5,7.4,6.5c1.5,0,2.7-0.4,3.5-1.1c0.9-0.7,1.3-1.5,1.3-2.6
		c0-0.7-0.1-1.3-0.5-1.8c-0.3-0.5-0.9-0.9-1.7-1.2c-0.4-0.1-1.5-0.4-3.1-0.7c-2.3-0.5-3.9-1.1-4.8-1.6c-1-0.5-1.7-1.1-2.1-1.9
		c-0.5-0.7-0.7-1.7-0.7-2.8c0-1.9,0.6-3.4,1.9-4.6c1.2-1.2,3-1.8,5-1.8C1024.4,136.2,1026.2,136.9,1027.9,138.3L1027.9,138.3z
		 M1034.1,144.3L1034.1,144.3l5.3-0.3c0.2,0.9,0.3,1.7,0.3,2.5c0.6-0.9,1.3-1.5,2.1-2.1c0.8-0.5,1.7-0.7,2.8-0.7c1.7,0,3,0.5,4,1.7
		c1.1,1.2,1.6,2.9,1.6,5.1c0,1.5-0.3,2.7-0.7,3.8c-0.5,1-1.3,1.8-2.1,2.3c-0.9,0.5-2,0.8-3.2,0.8c-0.9,0-1.8-0.2-2.5-0.7
		c-0.7-0.4-1.4-1.1-2.1-2v4.6c0,0.6,0.1,0.9,0.2,1.1c0.1,0.2,0.3,0.3,0.5,0.4c0.3,0.1,0.8,0.1,1.5,0.1v1.3h-7.8v-1.3h0.4
		c0.5,0,0.9,0,1-0.1c0.2-0.1,0.3-0.3,0.4-0.5c0.1-0.1,0.1-0.5,0.1-1.1v-12.3c0-0.6,0-1-0.1-1.2c-0.1-0.1-0.2-0.3-0.4-0.4
		c-0.2-0.1-0.6-0.1-1.3-0.2L1034.1,144.3L1034.1,144.3z M1042.9,145.7L1042.9,145.7c-0.9,0-1.7,0.5-2.3,1.3
		c-0.6,0.8-0.9,2.1-0.9,3.8c0,1.6,0.3,2.8,1,3.7s1.4,1.3,2.3,1.3c0.8,0,1.5-0.3,2-1.1c0.6-1,0.9-2.3,0.9-4c0-1.5-0.2-2.7-0.8-3.7
		C1044.6,146.2,1043.9,145.7,1042.9,145.7z M1066.4,150.8L1066.4,150.8h-9.1c0.1,1.8,0.4,3.2,1.1,4s1.6,1.3,2.7,1.3
		c0.8,0,1.5-0.2,2.3-0.7c0.7-0.4,1.4-1.3,2.1-2.4l1,0.7c-0.8,1.3-1.6,2.3-2.7,3c-1,0.6-2.2,0.9-3.7,0.9c-2.1,0-3.8-0.6-5.2-1.9
		c-1.3-1.3-1.9-2.9-1.9-5c0-2,0.7-3.7,1.9-5.1c1.3-1.3,2.9-1.9,4.9-1.9c1.3,0,2.5,0.2,3.4,0.7c0.9,0.6,1.7,1.3,2.2,2.4
		C1066.1,147.8,1066.3,149.2,1066.4,150.8z M1057.3,149.6L1057.3,149.6h4.4c0.4,0,0.7-0.1,0.9-0.3c0.1-0.2,0.3-0.6,0.3-1.1
		c0-1.1-0.3-1.9-0.7-2.5c-0.5-0.6-1.1-0.9-1.9-0.9c-0.9,0-1.5,0.4-2.1,1.2C1057.6,146.8,1057.4,148,1057.3,149.6L1057.3,149.6z
		 M1081.8,152.5L1081.8,152.5l1.1,0.5c-0.5,1.4-1.4,2.5-2.5,3.4c-1.2,0.7-2.6,1.1-4.2,1.1c-2.2,0-3.9-0.6-5.1-1.8
		c-1.2-1.1-1.8-2.7-1.8-4.8s0.7-4,2.1-5.3c1.5-1.4,3.4-2.1,5.8-2.1c1.7,0,3,0.3,4,1c0.9,0.7,1.3,1.5,1.3,2.5c0,0.7-0.2,1.3-0.6,1.7
		c-0.3,0.5-0.9,0.6-1.5,0.6s-1.1-0.1-1.4-0.5c-0.3-0.3-0.5-0.7-0.5-1.3c0-0.5,0.2-1,0.5-1.5c0.2-0.3,0.3-0.5,0.3-0.6
		s-0.2-0.3-0.5-0.5s-0.9-0.3-1.6-0.3c-1.2,0-2.1,0.4-2.6,1.2c-0.7,1-1.1,2.5-1.1,4.6s0.3,3.6,1.1,4.4c0.7,0.9,1.7,1.3,2.8,1.3
		c0.9,0,1.7-0.3,2.5-0.9C1080.7,154.7,1081.4,153.7,1081.8,152.5L1081.8,152.5z M1088.7,136.8L1088.7,136.8c0.7,0,1.1,0.2,1.6,0.7
		c0.5,0.4,0.7,0.9,0.7,1.5c0,0.7-0.2,1.2-0.7,1.6c-0.5,0.5-0.9,0.7-1.6,0.7c-0.6,0-1.1-0.2-1.6-0.7c-0.4-0.4-0.6-0.9-0.6-1.6
		c0-0.6,0.2-1.1,0.6-1.5C1087.6,137,1088.1,136.8,1088.7,136.8z M1085.2,144.3L1085.2,144.3l5.8-0.3v11c0,0.3,0.1,0.5,0.3,0.7
		c0.2,0.1,0.5,0.3,0.9,0.3h0.9v1.3h-7.8V156h0.9c0.5,0,0.8-0.1,1-0.3c0.1-0.2,0.3-0.5,0.3-1.1V147c0-0.5-0.1-0.9-0.4-1.1
		c-0.3-0.3-0.7-0.4-1.1-0.4h-0.6L1085.2,144.3L1085.2,144.3z M1110.4,155.6L1110.4,155.6l0.5,1c-0.5,0.4-1.1,0.7-1.5,0.8
		s-0.9,0.2-1.5,0.2c-0.7,0-1.4-0.2-1.9-0.5s-0.9-1-1.3-1.9c-0.9,0.9-1.8,1.6-2.5,1.9c-0.7,0.3-1.5,0.5-2.5,0.5
		c-1.3,0-2.3-0.3-3.1-0.9c-0.7-0.6-1.1-1.4-1.1-2.3c0-1.4,0.7-2.5,2-3.4c1.1-0.7,3.4-1.3,7-2v-1.8c0-0.7-0.2-1.3-0.7-1.9
		c-0.5-0.5-1.1-0.7-2-0.7c-0.6,0-1.1,0.1-1.6,0.4c-0.3,0.2-0.5,0.3-0.5,0.5c0,0.1,0.1,0.3,0.1,0.4c0.3,0.4,0.4,0.9,0.4,1.2
		c0,0.5-0.2,1-0.5,1.3s-0.8,0.5-1.3,0.5c-0.6,0-1.1-0.1-1.5-0.5c-0.3-0.4-0.5-0.8-0.5-1.4c0-0.9,0.5-1.6,1.5-2.3
		c1.2-0.9,2.7-1.2,4.5-1.2c1.3,0,2.5,0.2,3.6,0.6c0.7,0.3,1.2,0.7,1.6,1.4s0.7,1.5,0.7,2.4v6.6c0,0.5,0.1,0.9,0.2,1.1
		c0.2,0.3,0.5,0.4,0.8,0.4C1109.6,156.1,1109.9,155.9,1110.4,155.6L1110.4,155.6z M1104.5,150.3L1104.5,150.3
		c-1.9,0.3-3.3,0.7-4,1.3c-0.7,0.5-1.1,1.3-1.1,2.1c0,0.7,0.2,1.2,0.5,1.5c0.3,0.4,0.8,0.5,1.3,0.5c0.9,0,1.7-0.3,2.3-0.9
		c0.5-0.7,0.8-1.5,0.8-2.7L1104.5,150.3L1104.5,150.3z M1112.4,136.8L1112.4,136.8l6-0.3v18.4c0,0.3,0.1,0.6,0.3,0.8
		c0.2,0.1,0.5,0.3,0.9,0.3h0.9v1.3h-7.8V156h0.9c0.4,0,0.7-0.1,0.9-0.3c0.3-0.2,0.3-0.5,0.3-1v-15.1c0-0.5-0.1-0.9-0.4-1.1
		c-0.3-0.3-0.6-0.4-1.1-0.4h-0.9L1112.4,136.8L1112.4,136.8z"/>
	<g>
		<path class="st10" d="M1068,188.8c-0.7,1.5-2.3,2.6-4.1,2.6c-2.5,0-4.5-2-4.5-4.5l0,0h5.8h3.3h6.6c0.1-0.7,0.2-1.4,0.2-2.1
			c0-6.3-5.1-11.4-11.4-11.4s-11.4,5.1-11.4,11.4c0,6.3,5.1,11.4,11.4,11.4c4.8,0,9-3,10.6-7.3L1068,188.8L1068,188.8z M1063.9,178
			c2.4,0,4.4,2,4.4,4.4v0.1h-8.8v-0.1C1059.5,180,1061.4,178,1063.9,178L1063.9,178z"/>
		<polygon class="st10" points="1085.7,195.5 1079.1,195.5 1079.1,170.6 1085.7,170.6 		"/>
		<path class="st10" d="M1096.9,180.2c0,0,0-1.5,0-2.7c0-1.3,1.4-1.5,2.1-1.5s5.1,0,5.1,0v-5.3h-6.7c-4.1,0-7.4,3.3-7.4,7.4v10.1
			v7.4h6.8l0,0l0,0v-9.9h7.2v-5.4L1096.9,180.2L1096.9,180.2z"/>
	</g>
	<g transform="matrix(0.902791 0 0 1 56.3233 38.1668)">
		<text transform="matrix(1 0 0 1 720.8656 224.5881)" class="st10 st11 st12">OLYMPUS</text>
	</g>
	<g>
		<path class="st10" d="M834.3,255.9c0-0.5,0.1-0.7,0.4-0.7c0.3,0,0.3,0.2,0.3,0.7H834.3L834.3,255.9z M829.5,253.7
			c0.5,0,0.5,0.1,0.5,0.8v2c0,0.7,0,0.9-0.6,0.9h-0.3v-3.7H829.5L829.5,253.7z M846.6,263.6V262h-18.1c-3.6,0-6.6-2.5-6.6-6.3
			c0-3.5,2.8-6.2,6.3-6.2h18.4v-1.6h-18.4c-4.4,0-8.1,3.3-8.1,7.8c0,4.7,3.7,7.9,8.3,7.9H846.6L846.6,263.6z M837.7,252.3v1.2
			c0.2,0.2,0.2,0.2,0.2,0.8v2.8c0,0.6,0,0.6-0.2,0.8v1.1h4.8v-3.2h-1.9v0.7c0,0.7,0,1.1-0.4,1.1c-0.1,0-0.2-0.1-0.2-0.2v-3
			c0-0.7,0-0.8,0.3-1v-1.2L837.7,252.3L837.7,252.3z M834.3,256.9h2.5V256c0-1.5-0.3-2-2.1-2s-2.1,0.6-2.1,2.3
			c0,2.1,0.1,2.8,2.1,2.8c1,0,1.6-0.2,2.2-0.6v-1.2h-1.8c0,0.5,0,0.7-0.4,0.7C834.4,258,834.4,257.8,834.3,256.9L834.3,256.9z
			 M826.8,252.3v1.2c0.2,0.2,0.2,0.3,0.2,0.8v2.8c0,0.6,0,0.6-0.2,0.7v1.2h2.7c2.3,0,2.6-0.4,2.6-3.1v-1.1c0-2.1-0.5-2.6-2.4-2.6
			L826.8,252.3L826.8,252.3z M833,253v0.4h3.7V253H833z"/>
		<path class="st10" d="M871.9,247.7c0.1,0,0.2,0.1,0.2,0.2c0,0.1-0.1,0.2-0.2,0.2h-0.4v-0.4H871.9z M871.2,247.4v1.5h0.3v-0.6h0.3
			c0.3,0,0.2,0.5,0.2,0.6h0.4v-0.1c-0.2-0.1,0-0.5-0.2-0.6c0.1-0.1,0.2-0.2,0.2-0.3c0-0.3-0.2-0.4-0.4-0.4L871.2,247.4L871.2,247.4z
			 M845.8,257.1c0,0.6,0,0.8-0.4,0.8c-0.3,0-0.3-0.2-0.3-0.8v-1.3c0-0.5,0-0.7,0.3-0.7s0.3,0.2,0.3,0.7v1.3H845.8z M872.8,248.2
			c0,0.5-0.4,1.1-1,1.1s-1.1-0.5-1.1-1.1s0.5-1,1.1-1C872.4,247.2,872.8,247.7,872.8,248.2z M855.9,257.3c-0.1,0.1-0.2,0.1-0.3,0.1
			c-0.3,0-0.4-0.2-0.4-0.7V256c0-0.5,0-0.8,0.4-0.8c0.1,0,0.2,0,0.3,0.1V257.3L855.9,257.3z M846.7,247.9v1.6h18.2
			c3.5,0,6.3,2.7,6.3,6.2c0,3.7-3,6.3-6.6,6.3h-17.9v1.6h18c4.6,0,8.3-3.2,8.3-7.9c0-4.5-3.6-7.8-8.1-7.8L846.7,247.9L846.7,247.9z
			 M871.8,246.9c-0.7,0-1.3,0.6-1.3,1.3s0.6,1.3,1.3,1.3s1.3-0.6,1.3-1.3S872.5,246.9,871.8,246.9z M864,253c0,0.4,0.4,0.8,1,0.8
			c0.5,0,0.9-0.3,0.9-0.7s-0.4-0.8-1-0.8C864.4,252.2,864,252.5,864,253L864,253z M863.9,255.1c0.2,0.2,0.2,0.3,0.2,0.8v1.2
			c0,0.5,0,0.6-0.2,0.7v1.1h2.2v-1.1c-0.2-0.2-0.2-0.3-0.2-0.8v-3h-2V255.1L863.9,255.1z M858.5,257.9v1.1h2.3v-1.1
			c-0.2-0.1-0.2-0.2-0.2-0.4v-2c0.1,0,0.2-0.1,0.3-0.1c0.3,0,0.3,0.1,0.3,0.7v1.7c0,0.8,0,0.9,0.1,1.3h1.9V258
			c-0.2-0.1-0.2-0.2-0.2-0.7v-1.6c0-1-0.2-1.6-1.4-1.6c-0.5,0-0.8,0.1-1.1,0.3v-2.1h-2.1v1.1c0.2,0.2,0.2,0.2,0.2,0.7v3
			C858.7,257.7,858.7,257.7,858.5,257.9L858.5,257.9z M858,253.9h-2l-0.1,0.3c-0.5-0.3-0.7-0.4-1.1-0.4c-1.2,0-1.5,0.7-1.5,1.9v1.1
			c0,1.2,0.2,2,1.4,2c0.4,0,0.7-0.1,1.1-0.3c0,0.7,0,1.1-0.4,1.1c-0.2,0-0.3-0.2-0.3-0.5h-1.7v1.1c0.4,0.3,1.1,0.5,2.1,0.5
			c1.9,0,2.1-0.7,2.1-2.4v-2.8c0-0.2,0.1-0.4,0.2-0.5L858,253.9L858,253.9z M848.1,254.1v1.1c0.2,0.2,0.2,0.3,0.2,0.7v1.2
			c0,0.5,0,0.6-0.2,0.8v1h2.2v-1.1c-0.2-0.1-0.2-0.2-0.2-0.5v-1.9c0.1-0.1,0.2-0.1,0.3-0.1c0.3,0,0.4,0.2,0.4,0.7v1.3
			c0,1,0,1.2,0.1,1.6h1.9v-1.1c-0.2-0.1-0.2-0.2-0.2-0.7v-1.5c0-1-0.1-1.7-1.4-1.7c-0.4,0-0.7,0.1-1.1,0.4V254L848.1,254.1
			L848.1,254.1z M847.6,255.7c0-1.3-0.6-1.7-2.3-1.7c-1.5,0-2.1,0.5-2.1,1.8v1.4c0,1.3,0.4,1.9,2.2,1.9s2.2-0.6,2.2-2.1L847.6,255.7
			L847.6,255.7z"/>
	</g>
	<path class="st10" d="M656.4,251.4l0.4-1.2c2.6-0.1,5.2-0.1,7.9-0.1l2.2,0.2l0.5,0.1l0.7,0.5l0.4,0.7l0.9-0.9l0.7-0.4l1.2-0.3
		c1.1-0.1,2.3-0.1,3.5-0.1c1,0,2.1-0.1,3.2,0.2l0.9,0.3l0.3,0.2l0.2,0.2l0.3,0.2l0.2,0.3l0.2,0.3c0.1,0,0.2,0.1,0.4,0.1l0.9,0.3
		l0.3,0.2l0.3,0.2l0.2,0.2l0.2,0.3l0.2,0.3l0.1,0.3l0.1,0.6c0,0.5-0.1,1-0.2,1.4c-0.1,0.4-0.2,0.7-0.3,1.1l-1.6-0.1
		c1.6,1.5,1.8,3,0.2,5.4c-0.3,0.4-0.5,0.6-0.9,0.9l-0.3,0.2c-0.7,0.4-1.4,0.5-2.2,0.6c-1,0.1-2.1,0.1-3.2,0.1
		c-1.2,0-2.4,0.1-3.6-0.2l-0.5-0.1c-0.6-0.2-1-0.5-1.3-1c-0.3,0.3-0.6,0.6-1,0.8c-1,0.4-2,0.4-3,0.4c-2.4,0.1-4.8,0.1-7.2,0.1
		c-0.7,0-1.4,0-2,0l0.2-0.6c-1,0.6-2.1,0.5-3.2,0.6c-2.4,0-4.8,0-7.1,0h-2.1l-2.2-1.5c1.4-3.9,2.9-7.8,4.3-11.7c2.6,0,5.2,0,7.8,0
		c0.7,0,1.5,0,2.2,0.1l0.5,0.2c0.2,0.1,0.4,0.2,0.6,0.3C656.2,250.9,656.3,251.1,656.4,251.4L656.4,251.4z M641.9,260.9
		c2.1,0,4.3,0,6.5,0c1.5,0,2.4-0.1,2.8-0.1c0.5-0.1,0.9-0.2,1.2-0.3c0.3-0.2,0.6-0.3,0.8-0.6c0.4-0.4,0.7-1,1-1.8c0.3-1,0.4-1.7,0-2
		c-0.2-0.2-0.4-0.3-0.8-0.4c0.5-0.1,0.9-0.4,1.2-0.7s0.6-0.8,0.8-1.5c0.2-0.6,0.3-1.1,0.3-1.4c0-0.4-0.1-0.6-0.3-0.8
		s-0.6-0.3-1.1-0.4c-0.3,0-1.1,0-2.4,0c-2.1,0-4.2,0-6.2,0c-0.6,1.6-1.2,3.2-1.8,4.9C643.2,257.6,642.6,259.3,641.9,260.9
		L641.9,260.9z M646.7,254.9c1.3,0,2.5,0,3.8,0c0.9,0,1.4-0.1,1.5-0.1c0.3-0.1,0.5-0.4,0.6-0.7c0.2-0.4,0.1-0.6-0.2-0.7
		c-0.1,0-0.5-0.1-1.4-0.1c-1.3,0-2.5,0-3.8,0.1C647.1,253.9,646.9,254.4,646.7,254.9z M645.4,258.5c1.3,0,2.6,0,3.9,0
		c0.8,0,1.3,0,1.4,0c0.2,0,0.3-0.1,0.4-0.1c0.3-0.1,0.5-0.4,0.6-0.8c0.2-0.4,0.1-0.7-0.2-0.7c-0.1-0.1-0.7-0.1-1.7-0.1
		c-1.3,0-2.5,0-3.8,0C645.8,257.4,645.6,257.9,645.4,258.5L645.4,258.5z M654.2,260.9c2.1,0,4.3,0,6.5,0c1.5,0,2.4-0.1,2.8-0.1
		c0.5-0.1,0.9-0.2,1.2-0.3c0.3-0.2,0.6-0.4,0.8-0.6c0.4-0.4,0.6-1,0.9-1.8c0.3-1.1,0.3-1.7-0.1-2.1c-0.2-0.1-0.4-0.3-0.8-0.3
		c0.5-0.2,0.9-0.4,1.1-0.7c0.3-0.4,0.6-0.9,0.8-1.6c0.2-0.6,0.2-1,0.2-1.4c0-0.3-0.1-0.6-0.3-0.8c-0.3-0.2-0.6-0.3-1.2-0.3
		c-0.3-0.1-1.1-0.1-2.4-0.1c-2.1,0-4.2,0-6.3,0c-0.6,1.6-1.1,3.3-1.6,4.9C655.3,257.6,654.7,259.3,654.2,260.9L654.2,260.9z
		 M658.8,254.8c1.3,0,2.5,0,3.8,0c0.8,0,1.3-0.1,1.5-0.1c0.3-0.1,0.4-0.3,0.5-0.7c0.2-0.4,0.1-0.6-0.2-0.7c-0.1-0.1-0.6-0.1-1.4-0.1
		c-1.2,0-2.5,0-3.8,0C659.1,253.8,658.9,254.3,658.8,254.8z M657.6,258.5c1.3,0,2.6,0,3.9,0c0.8,0,1.3,0,1.4-0.1
		c0.2,0,0.3,0,0.4-0.1c0.3-0.1,0.5-0.4,0.6-0.8c0.1-0.5,0.1-0.7-0.2-0.8c-0.1,0-0.7-0.1-1.7-0.1c-1.3,0-2.5,0-3.8,0
		C658,257.4,657.8,257.9,657.6,258.5L657.6,258.5z M667.2,257.6c-0.1,0.2-0.1,0.3-0.1,0.5c-0.3,0.7-0.3,1.3-0.3,1.6
		c0.1,0.4,0.2,0.7,0.5,0.9c0.3,0.2,0.7,0.4,1.3,0.4c0.7,0.1,1.6,0.1,3,0.1c1.6,0,2.8,0,3.4-0.1c0.6-0.1,1.1-0.2,1.4-0.4
		c0.4-0.2,0.7-0.5,0.9-0.8c0.4-0.5,0.7-1.2,0.9-2.1c0.2-0.7,0.3-1.3,0.3-1.7c-0.1-0.4-0.2-0.7-0.5-0.9s-0.6-0.3-1.1-0.4
		c-0.5-0.1-1.4-0.1-2.9-0.2c-1.7-0.1-2.7-0.1-2.9-0.2c-0.2-0.1-0.3-0.3-0.2-0.7s0.3-0.6,0.6-0.7c0.3-0.1,1-0.1,2.1-0.1
		c1,0,1.6,0,1.9,0.1c0.3,0,0.5,0.1,0.6,0.1c0.1,0.1,0.2,0.2,0.2,0.3s-0.1,0.3-0.1,0.6c0.9,0,1.7,0,2.7,0c0.1-0.2,0.1-0.4,0.1-0.5
		c0.3-0.9,0.3-1.5,0.1-1.9s-0.7-0.6-1.5-0.7c-0.5-0.1-1.4-0.2-2.7-0.2c-1.8,0-3.1,0.1-3.7,0.2c-0.6,0.1-1.1,0.4-1.5,0.7
		c-0.5,0.5-1,1.2-1.3,2.3c-0.3,1-0.3,1.7-0.1,2.1c0.1,0.3,0.4,0.5,0.7,0.6s0.8,0.2,1.4,0.2c0.4,0,1.1,0.1,2.2,0.1
		c1.1,0.1,1.8,0.1,2.1,0.1c0.5,0,0.7,0.1,0.9,0.2c0.1,0.1,0.1,0.3,0.1,0.6c-0.1,0.4-0.3,0.7-0.5,0.8c-0.2,0.1-0.4,0.1-0.6,0.1
		c-0.2,0-0.9,0-2.1,0c-1.1,0-1.8,0-2,0c-0.2-0.1-0.4-0.1-0.5-0.2c-0.2-0.1-0.2-0.5,0-0.9C669,257.6,668,257.6,667.2,257.6
		L667.2,257.6z"/>
	<text transform="matrix(1 0 0 1 527.0137 263.8066)" class="st10 st11 st13">Valvoline</text>
	<g>
		<path class="st14" d="M391.2,169.2h-3.5l0.3-0.4c0-0.1,0-0.1,0-0.2l0,0l-1.6-1.4l0.4-0.5c0.8-0.1,1.5-0.4,2-1c0.6-0.6,1-1.4,1-2.3
			c0-0.9-0.3-1.7-1-2.3c-0.6-0.6-1.4-1-2.3-1c-1.8,0-3.3,1.5-3.3,3.3c0,0.5,0.1,0.9,0.3,1.3l0,0l-0.3,0.5l-1.6-0.6h-0.1l0,0
			l-2.7,4.5h-28v9.3H373l-1,1.7c0,0,0,0,0,0.1c0,0,0,0.1,0.1,0.1l0,0l0.4,0.3l-7.8,12.7c0,0.1,0,0.1,0,0.2l0,0l1.2,0.7l-0.2,0.4
			c-1.8,0-3.2,1.5-3.2,3.3c0,0.9,0.3,1.7,1,2.3c0.6,0.6,1.4,1,2.3,1s1.7-0.3,2.3-1c0.6-0.6,1-1.4,1-2.3c0-0.5-0.1-1-0.3-1.5l0,0
			l0.2-0.3l1.1,0.7h0.1c0,0,0,0,0.1-0.1l0,0l7.8-12.7l0.4,0.3c0,0,0,0,0.1,0h0.1l0,0l3.5-5.7h9.2L391.2,169.2L391.2,169.2z"/>
		<polygon class="st10" points="389.3,176.6 389.3,171 386.2,171 386.2,176.6 		"/>
		<polygon class="st10" points="374.5,171 374.5,176.6 377.8,176.6 377.8,174.6 380,176.6 383.7,176.6 383.7,171 380.4,171 
			380.4,173 378.4,171 		"/>
		<polygon class="st10" points="352.9,171 352.9,176.6 356.2,176.6 356.2,174.9 357.5,176.6 361.2,176.6 359,173.7 362.1,171 
			358.3,171 356.2,172.9 356.2,171 		"/>
		<path class="st10" d="M367.8,177c2.8,0,5-1.4,5-3.2c0-1.7-2.3-3.2-5-3.2s-5,1.4-5,3.2C362.7,175.6,365,177,367.8,177L367.8,177z"
			/>
		<path class="st14" d="M367.8,175.9c1.2,0,1.4-0.9,1.4-2.1c0-1.2-0.2-2.1-1.4-2.1c-1.2,0-1.4,0.9-1.4,2.1
			C366.3,175,366.5,175.9,367.8,175.9z"/>
		<path class="st10" d="M386.5,160.5c1.6,0,2.9,1.3,2.9,2.9c0,1.6-1.3,2.9-2.9,2.9s-2.9-1.3-2.9-2.9S384.9,160.5,386.5,160.5
			L386.5,160.5z"/>
		<path class="st15" d="M386.5,165.4c1.1,0,1.9-0.9,1.9-1.9c0-1.1-0.9-1.9-1.9-1.9c-1.1,0-1.9,0.9-1.9,1.9S385.4,165.4,386.5,165.4
			L386.5,165.4z"/>
		<path class="st16" d="M386.5,165.4c1.1,0,1.9-0.9,1.9-1.9c0-1.1-0.9-1.9-1.9-1.9c-1.1,0-1.9,0.9-1.9,1.9S385.4,165.4,386.5,165.4
			L386.5,165.4z"/>
		<polygon class="st10" points="379,169.2 381.6,165 384.8,166.1 387.7,168.8 387.5,169.2 		"/>
		<polygon class="st10" points="381.8,178.6 378.5,184 372.3,180.3 373.3,178.6 		"/>
		<polygon class="st10" points="370,196.6 365,193.5 372.7,180.8 377.7,184 		"/>
		<path class="st10" d="M365.8,195c1.6,0,3,1.3,3,3s-1.3,3-3,3c-1.6,0-3-1.3-3-3S364.1,195,365.8,195L365.8,195z"/>
		<path class="st16" d="M365.8,199.9c1.1,0,1.9-0.9,1.9-1.9c0-1.1-0.9-1.9-1.9-1.9c-1.1,0-1.9,0.9-1.9,1.9
			C363.9,199.1,364.7,199.9,365.8,199.9L365.8,199.9z"/>
	</g>
	<g>
		<polygon class="st10" points="1098.8,235.2 1106.7,235.2 1106.3,237 1102.8,237 1102.2,239.1 1104.5,239.1 1104.1,241 1101.8,241 
			1101.2,243.3 1104.7,243.3 1104.2,245.2 1096.3,245.2 		"/>
		<polygon class="st10" points="1087.8,245.2 1089,240.7 1087.4,235.2 1091.8,235.2 1092.9,238.7 1095.8,235.2 1098,235.2 
			1093.4,241.1 1092.3,245.2 		"/>
		<path class="st10" d="M1077.9,234.9l0.9,1.7l3-1.7c0,0-0.3-1.5,0.1-2.3L1077.9,234.9z"/>
		<path class="st10" d="M1080,236.7l2.1-1.2c-0.1,0.3,0,0.9,0,1.4L1080,236.7z"/>
		<path class="st10" d="M1079.4,237.3l2.2,0.2l-2.4,1.3C1079.2,238.4,1079.5,237.5,1079.4,237.3L1079.4,237.3z"/>
		<path class="st10" d="M1078.8,239.8l2,3.9c-0.3,0.5-3.5,4-5.7,4.8c-0.5-0.3-0.3-0.9,0.6-1.9c1.1-1.2,1.2-2,1.4-2.7
			C1077.3,243.2,1078.6,240,1078.8,239.8L1078.8,239.8z"/>
		<path class="st10" d="M1079.4,239.3l1.9,3.8c0.6-0.7,2.9-2.4,4-2.9l-0.8-1.7l-0.5,0.8c-0.2,0.3-0.7,0.9-1.1,0.1
			c0,0-0.6-1.1-0.7-1.6L1079.4,239.3z"/>
		<path class="st10" d="M1075.5,248.8c2.6-1.1,5.2-4.2,6-5c0.9-1,3.1-2.7,4.2-3.1l0.2,0.5c-1.3,0.6-2.9,2-4.3,3.4
			c-1.3,1.4-3.5,3.7-5.8,4.6L1075.5,248.8z"/>
		<path class="st10" d="M1086,230.7c-4.5,0-3.6,4-3.1,4.6c-0.4,1.1,0.1,2.6,0.4,3c0.2,0.4,0.5,0.3,0.7,0.1s0.3-0.6,0.3-1.2
			c0-0.2,0.4-0.5,0.5-0.3c0.1,0.1,0.1,0.2,0.1,0.3c0.1,0.2,0.2,0.3,0.5-0.2c0.1-0.2,0.1-0.5,0.1-0.7c0-0.1,0-0.8,0.3-0.1
			c0.2,0.4,0.4,0.1,0.6-0.5c0.1-0.4,0-0.5,0-0.9c0-0.3,0-0.4,0.5-0.3c0.5,0.1,1.4,0.2,1.7-0.3c-0.6,0-0.3-0.6,0.1-0.5
			s1.2-0.2,1.2-0.5c-0.3,0-0.4,0-0.8-0.2c-0.3-0.1-0.1-0.6,0.4-0.5s1.6,0.1,2.4,0.2c3.6,0,3.8-1.6,3.9-2.3
			C1092.7,231.5,1087.7,230.7,1086,230.7L1086,230.7z M1083.8,235c0,0-0.1-0.3,0-0.4c-0.5-0.2-0.4-0.5-0.3-0.5s0.3,0.1,0.4,0.1
			s0.1,0.1,0.1,0.2c0,0.1,0,0.5,0,0.6C1084.1,235.1,1083.8,235.1,1083.8,235L1083.8,235z M1087.2,232c-0.1,0.2-0.4,0.3-0.7,0.3
			c-0.1,0-0.2,0-0.3,0.1c-0.2,0.3-0.5,0.3-0.8,0.3c-0.1,0-0.2,0.1-0.2,0.1c-0.4,0.6-1,0.1-1,0s0-0.2,0.2-0.2
			c0.5,0.1,0.7-0.2,0.7-0.3c0.1-0.2,0.2-0.3,0.4-0.3c0.2,0.1,0.5,0,0.6-0.1c0.1-0.2,0.2-0.2,0.3-0.2c0.1,0.1,0.4,0.1,0.5,0.1
			C1087.1,231.8,1087.3,231.8,1087.2,232L1087.2,232z"/>
		<path class="st10" d="M1033.5,245.2h5.8l1.3-5.2h-4.1l-1,3.8h-1c-0.4,0-0.8-0.1-0.6-0.8l1.4-5.6c0.3-1.2,2.1-1.2,3.4-0.2l0.7-1.4
			c-1-0.8-2.3-0.9-2.7-0.9c-1.3,0-5.5,0.7-6.6,4.8C1029.1,243.8,1031.2,245.2,1033.5,245.2L1033.5,245.2z"/>
		<path class="st10" d="M1072,235.2h-5.1l-2.5,10h5.2c2.6,0,5.1-0.6,6.2-4.6C1077,235.7,1073.8,235.2,1072,235.2L1072,235.2z
			 M1072.3,237.2l-1.4,5.6c-0.2,0.7-0.6,1-1.1,1h-0.9l1.8-7.5h0.4l0,0h0.4C1072,236.4,1072.4,236.8,1072.3,237.2L1072.3,237.2z"/>
		<path class="st10" d="M1115,235.2h-3.9l-5.9,10h1.9l1-1.6h3.5l0.2,1.6h4.2L1115,235.2z M1108.9,242.1l2.1-3.6l0.3,3.6H1108.9
			L1108.9,242.1z"/>
		<path class="st10" d="M1125.7,235.2h-6.1l-2.6,10h4.4l0.7-2.8h0.6l0.6,2.8h4.4l-0.8-3.4c1.3-0.8,2.2-2,2.3-3.5
			C1129.3,236.6,1128.5,235.2,1125.7,235.2L1125.7,235.2z M1124.9,237.3c-0.2,0.7-0.6,2.4-0.6,2.4c-0.1,0.5-0.5,0.8-1,0.9h-0.8
			l1-4.2c0.7,0,0.8,0,0.8,0S1125.1,236.6,1124.9,237.3L1124.9,237.3z"/>
		<path class="st10" d="M1060.1,234.9c-1.4,0-5.2,0.2-6.2,4.4c-1.2,4.5,2,6,3.8,6c2.6,0,5.2-0.7,6.3-4.7
			C1065.3,235.4,1061,235,1060.1,234.9z M1060.6,237.1l-1.5,6.1c-0.3,1.3-1.9,0.7-1.7-0.1l1.5-6.1
			C1059.2,235.9,1060.8,236.2,1060.6,237.1L1060.6,237.1z"/>
		<path class="st10" d="M1048.4,234.9c-1.4,0-5.2,0.2-6.2,4.4c-1.2,4.5,2,6,3.8,6c2.6,0,5.2-0.7,6.3-4.7
			C1053.6,235.4,1049.3,235,1048.4,234.9L1048.4,234.9z M1048.8,237.1l-1.5,6.1c-0.3,1.3-1.9,0.7-1.7-0.1l1.5-6.1
			C1047.4,235.9,1049,236.2,1048.8,237.1L1048.8,237.1z"/>
	</g>
	<g>
		<path class="st10" d="M353.5,241.8l0.7-1.6l0.7,1.6h1.4L355,239l1.2-2.6h-1.4l-0.7,1.5l-0.6-1.5h-1.4l1.2,2.7l-1.3,2.7
			L353.5,241.8L353.5,241.8z M357.8,241.8l0.3-0.9h1.2l0.2,0.9h1.3l-1.1-5.5h-1.9l-1.2,5.5H357.8L357.8,241.8z M359.1,239.8h-0.8
			l0.4-2.3L359.1,239.8z M366.9,236.3c-0.2,0-0.3,0-0.4,0.1c-0.1,0-0.2,0.1-0.2,0.1c-0.1,0-0.1,0.1-0.2,0.1l-0.1,0.1
			c0,0.1-0.1,0.1-0.1,0.2c0,0.1-0.1,0.2-0.1,0.3s-0.1,0.3-0.1,0.5c0,0.3,0,0.6,0,1.1s0,1,0,1.4s0.1,0.5,0.1,0.7
			c0,0.1,0.1,0.2,0.1,0.3s0.1,0.1,0.1,0.2c0,0.1,0.1,0.1,0.1,0.1l0.1,0.1c0.1,0,0.1,0.1,0.2,0.1s0.2,0.1,0.4,0.1c0.2,0,0.6,0,0.9,0
			s0.6,0,0.7,0c0.2,0,0.3,0,0.3-0.1c0.1,0,0.1-0.1,0.2-0.1s0.1-0.1,0.1-0.1l0.1-0.1c0,0,0.1-0.1,0.1-0.2c0-0.1,0.1-0.2,0.1-0.3
			s0.1-0.3,0.1-0.6s0-0.8,0-1.2c0-0.5,0-1,0-1.3s-0.1-0.5-0.1-0.6s-0.1-0.2-0.1-0.3s-0.1-0.1-0.1-0.2c0-0.1-0.1-0.1-0.1-0.1
			s-0.1-0.1-0.2-0.1s-0.1-0.1-0.2-0.1s-0.2-0.1-0.4-0.1c-0.2,0-0.5,0-0.7,0C367.4,236.3,367.1,236.3,366.9,236.3L366.9,236.3z
			 M367.9,237.6c0.1,0,0.1,0,0.1,0s0.1,0,0.1,0.1c0,0,0,0,0,0.1v0.1c0,0,0,0.1,0,0.2c0,0.1,0,0.2,0,0.4s0,0.6,0,0.9s0,0.5,0,0.7
			c0,0.1,0,0.2,0,0.3s0,0.1,0,0.1v0.1l-0.1,0.1c0,0,0,0-0.1,0h-0.1c0,0-0.1,0-0.2,0s-0.1,0-0.2,0s-0.1,0-0.1,0
			c-0.1,0-0.1-0.1-0.2-0.1c0,0,0,0,0-0.1s0-0.1,0-0.1s0-0.1,0-0.2c0-0.1,0-0.2,0-0.5s0-0.8,0-1.1s0-0.4,0-0.4c0-0.1,0-0.1,0-0.1V238
			c0,0,0-0.1,0.1-0.1c0,0,0,0,0.1,0c0,0,0,0,0.1,0h0.1c0.1,0,0.1,0,0.2,0C367.7,237.6,367.8,237.6,367.9,237.6L367.9,237.6z
			 M364.9,238.4c0-0.3,0-0.6,0-0.8s-0.1-0.3-0.1-0.4c0-0.1-0.1-0.2-0.1-0.2c0-0.1-0.1-0.1-0.1-0.2l-0.1-0.1c0,0-0.1-0.1-0.2-0.1
			s-0.1-0.1-0.2-0.1s-0.2-0.1-0.4-0.1c-0.2,0-0.4,0-0.6,0s-0.4,0-0.6,0s-0.3,0-0.4,0.1c-0.1,0-0.2,0.1-0.2,0.1
			c-0.1,0-0.1,0.1-0.2,0.1l-0.1,0.1c0,0-0.1,0.1-0.1,0.2c0,0.1-0.1,0.1-0.1,0.2c0,0.1-0.1,0.2-0.1,0.4s0,0.5,0,1s0,1.2,0,1.6
			s0.1,0.6,0.1,0.7c0,0.1,0.1,0.2,0.1,0.3s0.1,0.1,0.1,0.2c0,0.1,0.1,0.1,0.1,0.1s0.1,0.1,0.2,0.1s0.1,0.1,0.2,0.1s0.2,0.1,0.4,0.1
			c0.2,0,0.4,0,0.6,0s0.5,0,0.7,0s0.3,0,0.4-0.1c0.1,0,0.2-0.1,0.2-0.1c0.1,0,0.1-0.1,0.2-0.1l0.1-0.1c0,0,0.1-0.1,0.1-0.2
			c0-0.1,0.1-0.1,0.1-0.2c0-0.1,0.1-0.2,0.1-0.5c0-0.2,0-0.6,0-1l0,0h-1.2c0,0.1,0,0.2,0,0.3s0,0.1,0,0.2v0.1v0.1c0,0,0,0-0.1,0.1
			c0,0,0,0-0.1,0h-0.1h-0.1c0,0-0.1,0-0.2,0s-0.1,0-0.2,0s-0.1,0-0.1,0h-0.1l-0.1-0.1v-0.1V240c0-0.1,0-0.1,0-0.3s0-0.4,0-0.7
			s0-0.6,0-0.8s0-0.3,0-0.3c0-0.1,0-0.1,0-0.2v-0.1c0,0,0,0,0.1-0.1c0,0,0,0,0.1,0c0,0,0,0,0.1,0h0.1c0,0,0.1,0,0.2,0s0.1,0,0.2,0
			h0.1h0.1l0.1,0.1c0,0,0,0,0,0.1v0.1c0,0,0,0.1,0,0.2c0,0.1,0,0.1,0,0.2l0,0L364.9,238.4L364.9,238.4z M344.3,237.6h1.1v4.2h1.4
			v-4.2h1v-1.3h-3.6v1.3H344.3z M348.5,241.8h3.1v-1.3h-1.8v-0.9h1.7v-1.3h-1.7v-0.8h1.8v-1.3h-3.1V241.8z M354.7,245.8
			c0.1,0.3,0.2,0.5,0.4,0.7c0.2,0.2,0.4,0.4,0.6,0.6c0.2,0.2,0.5,0.3,0.7,0.4s0.5,0.1,0.8,0.1s0.5,0,0.8-0.1s0.5-0.2,0.7-0.4
			s0.4-0.4,0.6-0.6c0.2-0.2,0.3-0.5,0.4-0.7c0.1-0.3,0.1-0.5,0.1-0.8s0-0.5-0.1-0.8s-0.2-0.5-0.4-0.7c-0.2-0.2-0.4-0.4-0.6-0.6
			c-0.2-0.2-0.5-0.3-0.7-0.4c-0.3-0.1-0.5-0.1-0.8-0.1s-0.5,0-0.8,0.1s-0.5,0.2-0.7,0.4s-0.4,0.4-0.6,0.6c-0.2,0.2-0.3,0.5-0.4,0.7
			c-0.1,0.3-0.1,0.5-0.1,0.8C354.6,245.2,354.6,245.5,354.7,245.8L354.7,245.8z M357.8,242.8c0.2,0.1,0.4,0.2,0.6,0.3
			s0.4,0.3,0.5,0.5s0.3,0.4,0.3,0.6c0.1,0.2,0.1,0.5,0.1,0.7s0,0.5-0.1,0.7s-0.2,0.4-0.3,0.6c-0.1,0.2-0.3,0.4-0.5,0.5
			s-0.4,0.2-0.6,0.3s-0.5,0.1-0.7,0.1s-0.5,0-0.7-0.1s-0.4-0.2-0.6-0.3s-0.4-0.3-0.5-0.5s-0.3-0.4-0.3-0.6c-0.1-0.2-0.1-0.5-0.1-0.7
			s0-0.5,0.1-0.7s0.2-0.4,0.3-0.6c0.1-0.2,0.3-0.4,0.5-0.5s0.4-0.2,0.6-0.3s0.5-0.1,0.7-0.1S357.6,242.7,357.8,242.8z"/>
		<path class="st10" d="M356.2,245.2l-0.4,1.5l1-0.6V245h-0.4l0.3-0.5h0.9l0.2,0.5h-0.3v1.1l0.9,0.6l-0.4-1.5l1-1h-1.4l-0.5-1.4
			l-0.5,1.4h-1.4L356.2,245.2L356.2,245.2z M353.2,231.1c-1.3,0.2-2.8,0.4-4.3,0.7c-1.6,0.3-3.3,0.6-4.9,1c-0.2,0.1-0.3,0.1-0.4,0.2
			c-0.1,0.1-0.2,0.1-0.2,0.2c-0.1,0.1-0.1,0.1-0.1,0.2s-0.1,0.1-0.1,0.2c0,0.1-0.1,0.2-0.1,0.3s-0.1,0.3-0.1,0.7s0,0.9,0,1.4l0,0v7
			c0,0.4,0,0.8,0,1.1s0,0.5,0.1,0.6c0,0.2,0.1,0.3,0.1,0.4c0,0.1,0.1,0.2,0.1,0.2c0,0.1,0.1,0.1,0.1,0.2c0.1,0.1,0.1,0.1,0.2,0.2
			c0,0,0.1,0.1,0.2,0.1c0.1,0.1,0.3,0.1,1.2,0.4c0.9,0.2,2.4,0.6,3.5,0.8c1,0.2,1.5,0.3,2.1,0.5c0.6,0.1,1.3,0.3,2.4,0.5
			s2.7,0.5,4.3,0.7c1.5-0.3,3.1-0.5,4.2-0.7s1.8-0.3,2.4-0.5c0.6-0.1,1.1-0.2,2.2-0.5c1-0.2,2.6-0.6,3.5-0.8s1.1-0.3,1.2-0.4
			c0.1-0.1,0.2-0.1,0.2-0.1c0.1,0,0.1-0.1,0.2-0.1c0-0.1,0.1-0.1,0.1-0.2c0-0.1,0.1-0.1,0.1-0.2c0-0.1,0.1-0.2,0.1-0.3
			c0-0.2,0-0.3,0.1-0.6c0-0.3,0-0.7,0-1.1l0,0v-7c0-0.5,0-1.1,0-1.4c0-0.4-0.1-0.5-0.1-0.7c0-0.1-0.1-0.2-0.1-0.3s-0.1-0.1-0.1-0.2
			c0-0.1-0.1-0.1-0.1-0.2c-0.1-0.1-0.1-0.1-0.2-0.2c-0.1-0.1-0.2-0.1-0.4-0.2c-0.2-0.1-0.4-0.1-0.9-0.2c-0.5-0.1-1.2-0.3-3.3-0.6
			c-2.1-0.3-5.5-0.9-8.9-1.3C355.8,230.7,354.5,230.9,353.2,231.1L353.2,231.1z M367,234.7c0.6,0.1,0.8,0.1,0.9,0.2
			c0.2,0,0.3,0,0.4,0.1c0.3,0,0.6,0.1,0.8,0.1c0.2,0,0.3,0.1,0.5,0.1c0.1,0,0.2,0.1,0.3,0.1c0.1,0,0.1,0.1,0.2,0.1s0.1,0.1,0.1,0.1
			s0.1,0.1,0.1,0.2c0,0.1,0.1,0.1,0.1,0.2c0,0.1,0.1,0.2,0.1,0.4c0,0.3,0,0.7,0,1l0,0v3.7c0,0.4,0,0.7,0,1c0,0.2,0,0.3,0,0.4
			c0,0.1,0,0.1-0.1,0.2c0,0.1-0.1,0.2-0.2,0.3c0,0-0.1,0.1-0.2,0.1c0,0-0.1,0-0.2,0.1c-0.1,0-0.3,0.1-0.9,0.3s-1.7,0.4-2.5,0.6
			c-0.7,0.2-1,0.2-1.7,0.4c-0.7,0.1-1.7,0.3-2.5,0.5c-0.9,0.2-1.6,0.3-2.3,0.5c-0.1,0.3-0.2,0.6-0.3,0.8c-0.1,0.2-0.2,0.4-0.3,0.6
			s-0.2,0.3-0.3,0.4c-0.1,0.1-0.2,0.2-0.3,0.3c-0.1,0.1-0.2,0.2-0.4,0.2c-0.1,0.1-0.3,0.1-0.4,0.2c-0.1,0-0.3,0.1-0.5,0.1
			s-0.3,0-0.5,0s-0.3,0-0.5,0s-0.3-0.1-0.4-0.1s-0.3-0.1-0.4-0.2c-0.1-0.1-0.2-0.1-0.4-0.2c-0.1-0.1-0.2-0.2-0.3-0.3
			c-0.1-0.1-0.2-0.2-0.3-0.4c-0.1-0.2-0.2-0.3-0.3-0.6c-0.1-0.2-0.2-0.5-0.3-0.8c-0.9-0.2-1.7-0.4-2.6-0.5c-0.9-0.2-1.8-0.3-2.4-0.5
			c-0.6-0.1-0.9-0.2-1.6-0.4s-1.9-0.5-2.5-0.6c-0.7-0.2-0.8-0.2-0.9-0.3c-0.1,0-0.1,0-0.2-0.1l-0.1-0.1l-0.1-0.1l-0.1-0.1
			c0,0,0-0.1-0.1-0.2c0-0.1,0-0.2-0.1-0.4c0-0.2,0-0.6,0-1l0,0v-3.7c0-0.4,0-0.8,0-1s0-0.3,0.1-0.4c0-0.1,0.1-0.2,0.1-0.2
			c0-0.1,0.1-0.1,0.1-0.2l0.1-0.1c0,0,0.1-0.1,0.2-0.1s0.1-0.1,0.3-0.1c0.1,0,0.2-0.1,0.5-0.1c0.2,0,0.5-0.1,0.8-0.1
			s0.6-0.1,0.9-0.1c0.3-0.1,0.6-0.1,1.1-0.2c0.5-0.1,1.2-0.2,2.3-0.4c1.1-0.2,2.7-0.5,3.6-0.6c1-0.2,1.3-0.2,1.8-0.2
			s1.1-0.1,1.7-0.1c0.7,0,1.4,0.1,1.9,0.1s0.9,0.1,1.8,0.3s2.4,0.4,3.6,0.7C365.5,234.5,366.5,234.6,367,234.7L367,234.7z"/>
	</g>
	<g>
		<path class="st10" d="M856.7,222l0.7-1.6l0.7,1.6h1.4l-1.3-2.9l1.2-2.6H858l-0.7,1.5l-0.6-1.5h-1.4l1.2,2.7l-1.3,2.7h1.5V222z
			 M861,222l0.3-0.9h1.2l0.2,0.9h1.3l-1.1-5.5H861l-1.2,5.5H861L861,222z M862.3,220h-0.8l0.4-2.3L862.3,220z M870.2,216.5
			c-0.2,0-0.3,0-0.4,0.1c-0.1,0-0.2,0.1-0.2,0.1c-0.1,0-0.1,0.1-0.2,0.1l-0.1,0.1c0,0.1-0.1,0.1-0.1,0.2c0,0.1-0.1,0.2-0.1,0.3
			s-0.1,0.3-0.1,0.5c0,0.3,0,0.6,0,1.1s0,1,0,1.4s0.1,0.5,0.1,0.7c0,0.1,0.1,0.2,0.1,0.3s0.1,0.1,0.1,0.2c0,0.1,0.1,0.1,0.1,0.1
			l0.1,0.1c0.1,0,0.1,0.1,0.2,0.1c0.1,0,0.2,0.1,0.4,0.1s0.6,0,0.9,0c0.3,0,0.6,0,0.7,0c0.2,0,0.3,0,0.3-0.1c0.1,0,0.1-0.1,0.2-0.1
			c0.1,0,0.1-0.1,0.1-0.1l0.1-0.1c0,0,0.1-0.1,0.1-0.2c0-0.1,0.1-0.2,0.1-0.3s0.1-0.3,0.1-0.6s0-0.8,0-1.2c0-0.5,0-1,0-1.3
			s-0.1-0.5-0.1-0.6s-0.1-0.2-0.1-0.3s-0.1-0.1-0.1-0.2c0-0.1-0.1-0.1-0.1-0.1s-0.1-0.1-0.2-0.1c-0.1,0-0.1-0.1-0.2-0.1
			c-0.1,0-0.2-0.1-0.4-0.1s-0.5,0-0.7,0C870.6,216.5,870.4,216.5,870.2,216.5L870.2,216.5z M871.1,217.8
			C871.2,217.8,871.2,217.8,871.1,217.8c0.1,0,0.2,0,0.2,0.1c0,0,0,0,0,0.1v0.1c0,0,0,0.1,0,0.2c0,0.1,0,0.2,0,0.4s0,0.6,0,0.9
			s0,0.5,0,0.7c0,0.1,0,0.2,0,0.3s0,0.1,0,0.1v0.1c0,0.1-0.1,0.1-0.1,0.1s0,0-0.1,0H871c0,0-0.1,0-0.2,0c-0.1,0-0.1,0-0.2,0
			c-0.1,0-0.1,0-0.1,0c-0.1,0-0.1-0.1-0.2-0.1c0,0,0,0,0-0.1v-0.1c0,0,0-0.1,0-0.2c0-0.1,0-0.2,0-0.5s0-0.8,0-1.1s0-0.4,0-0.4v-0.1
			v-0.1c0,0,0-0.1,0.1-0.1c0,0,0,0,0.1,0c0,0,0,0,0.1,0h0.1c0.1,0,0.1,0,0.2,0C870.9,217.8,871,217.8,871.1,217.8z M868.1,218.6
			c0-0.3,0-0.6,0-0.8s-0.1-0.3-0.1-0.4c0-0.1-0.1-0.2-0.1-0.2c0-0.1-0.1-0.1-0.1-0.2l-0.1-0.1c0,0-0.1-0.1-0.2-0.1
			c-0.1,0-0.1-0.1-0.2-0.1c-0.1,0-0.2-0.1-0.4-0.1s-0.4,0-0.6,0s-0.4,0-0.6,0s-0.3,0-0.4,0.1c-0.1,0-0.2,0.1-0.2,0.1
			c-0.1,0-0.1,0.1-0.2,0.1l-0.1,0.1c0,0-0.1,0.1-0.1,0.2c0,0.1-0.1,0.1-0.1,0.2c0,0.1-0.1,0.2-0.1,0.4s0,0.5,0,1s0,1.2,0,1.6
			c0,0.4,0.1,0.6,0.1,0.7c0,0.1,0.1,0.2,0.1,0.3s0.1,0.1,0.1,0.2c0,0.1,0.1,0.1,0.1,0.1s0.1,0.1,0.2,0.1c0.1,0,0.1,0.1,0.2,0.1
			c0.1,0,0.2,0.1,0.4,0.1s0.4,0,0.6,0c0.2,0,0.5,0,0.7,0s0.3,0,0.4-0.1c0.1,0,0.2-0.1,0.2-0.1c0.1,0,0.1-0.1,0.2-0.1l0.1-0.1
			c0,0,0.1-0.1,0.1-0.2c0-0.1,0.1-0.1,0.1-0.2c0-0.1,0.1-0.2,0.1-0.5c0-0.2,0-0.6,0-1l0,0H867c0,0.1,0,0.2,0,0.3s0,0.1,0,0.2v0.1
			v0.1c0,0,0,0-0.1,0.1c0,0,0,0-0.1,0h-0.1h-0.1c0,0-0.1,0-0.2,0c-0.1,0-0.1,0-0.2,0c-0.1,0-0.1,0-0.1,0H866l-0.1-0.1v-0.1v-0.1
			c0-0.1,0-0.1,0-0.3s0-0.4,0-0.7s0-0.6,0-0.8s0-0.3,0-0.3c0-0.1,0-0.1,0-0.2v-0.1c0,0,0,0,0.1-0.1c0,0,0,0,0.1,0c0,0,0,0,0.1,0
			s0.1,0,0.1,0c0.1,0,0.1,0,0.2,0c0.1,0,0.1,0,0.2,0h0.1h0.1l0.1,0.1c0,0,0,0,0,0.1v0.1c0,0,0,0.1,0,0.2c0,0.1,0,0.1,0,0.2l0,0h1.1
			L868.1,218.6L868.1,218.6z M847.5,217.8h1.1v4.2h1.4v-4.2h1v-1.3h-3.6L847.5,217.8L847.5,217.8z M851.7,222h3.1v-1.3H853v-0.9h1.7
			v-1.3H853v-0.8h1.8v-1.3h-3.1V222z M857.9,225.9c0.1,0.3,0.2,0.5,0.4,0.7s0.4,0.4,0.6,0.6c0.2,0.2,0.5,0.3,0.7,0.4
			c0.3,0.1,0.5,0.1,0.8,0.1s0.5,0,0.8-0.1s0.5-0.2,0.7-0.4s0.4-0.4,0.6-0.6c0.2-0.2,0.3-0.5,0.4-0.7c0.1-0.3,0.1-0.5,0.1-0.8
			s0-0.5-0.1-0.8s-0.2-0.5-0.4-0.7s-0.4-0.4-0.6-0.6c-0.2-0.2-0.5-0.3-0.7-0.4c-0.3-0.1-0.5-0.1-0.8-0.1s-0.5,0-0.8,0.1
			s-0.5,0.2-0.7,0.4s-0.4,0.4-0.6,0.6c-0.2,0.2-0.3,0.5-0.4,0.7c-0.1,0.3-0.1,0.5-0.1,0.8C857.8,225.4,857.8,225.7,857.9,225.9
			L857.9,225.9z M861,223c0.2,0.1,0.5,0.2,0.6,0.3c0.2,0.1,0.4,0.3,0.5,0.5s0.3,0.4,0.3,0.6c0.1,0.2,0.1,0.5,0.1,0.7s0,0.5-0.1,0.7
			s-0.2,0.4-0.3,0.6c-0.1,0.2-0.3,0.4-0.5,0.5s-0.4,0.3-0.6,0.3c-0.2,0.1-0.5,0.1-0.7,0.1s-0.5,0-0.7-0.1s-0.4-0.2-0.6-0.3
			c-0.2-0.1-0.4-0.3-0.5-0.5s-0.3-0.4-0.3-0.6c-0.1-0.2-0.1-0.5-0.1-0.7s0-0.5,0.1-0.7s0.2-0.4,0.3-0.6c0.1-0.2,0.3-0.4,0.5-0.5
			s0.4-0.2,0.6-0.3s0.5-0.1,0.7-0.1C860.6,222.9,860.8,222.9,861,223L861,223z"/>
		<path class="st10" d="M859.4,225.4l-0.4,1.5l1-0.6v-1.1h-0.4l0.3-0.5h0.9l0.2,0.5h-0.3v1.1l0.9,0.6l-0.4-1.5l1-1h-1.4l-0.5-1.4
			l-0.5,1.4h-1.4L859.4,225.4L859.4,225.4z M856.4,211.3c-1.3,0.2-2.8,0.4-4.3,0.7s-3.3,0.6-4.9,1c-0.2,0.1-0.3,0.1-0.4,0.2
			c-0.1,0.1-0.2,0.1-0.2,0.2c-0.1,0.1-0.1,0.1-0.1,0.2s-0.1,0.1-0.1,0.2c0,0.1-0.1,0.2-0.1,0.3s-0.1,0.3-0.1,0.7c0,0.3,0,0.9,0,1.4
			l0,0v7c0,0.4,0,0.8,0,1.1s0,0.5,0.1,0.6c0,0.2,0.1,0.3,0.1,0.4c0,0.1,0.1,0.2,0.1,0.2s0.1,0.1,0.1,0.2c0,0.1,0.1,0.1,0.2,0.2
			c0,0,0.1,0.1,0.2,0.1c0.1,0.1,0.3,0.1,1.2,0.4c0.9,0.2,2.4,0.6,3.5,0.8c1,0.2,1.5,0.3,2.1,0.5c0.6,0.1,1.3,0.3,2.4,0.5
			c1.1,0.2,2.7,0.5,4.3,0.7c1.5-0.3,3.1-0.5,4.2-0.7c1.1-0.2,1.8-0.3,2.4-0.5c0.6-0.1,1.1-0.2,2.2-0.5c1-0.2,2.6-0.6,3.5-0.8
			s1.1-0.3,1.2-0.4c0.1-0.1,0.2-0.1,0.2-0.1c0.1,0,0.1-0.1,0.2-0.1c0-0.1,0.1-0.1,0.1-0.2c0-0.1,0.1-0.1,0.1-0.2
			c0-0.1,0.1-0.2,0.1-0.3c0-0.2,0-0.3,0.1-0.6c0-0.3,0-0.7,0-1.1l0,0v-7c0-0.5,0-1.1,0-1.4c0-0.4-0.1-0.5-0.1-0.7
			c0-0.1-0.1-0.2-0.1-0.3s-0.1-0.1-0.1-0.2s-0.1-0.1-0.1-0.2c-0.1-0.1-0.1-0.1-0.2-0.2c-0.1-0.1-0.2-0.1-0.4-0.2
			c-0.2-0.1-0.4-0.1-0.9-0.2c-0.5-0.1-1.2-0.3-3.3-0.6s-5.5-0.9-8.9-1.3C859,210.9,857.7,211.1,856.4,211.3L856.4,211.3z
			 M870.3,214.9c0.6,0.1,0.8,0.1,0.9,0.2c0.2,0,0.3,0,0.4,0.1c0.3,0,0.6,0.1,0.8,0.1s0.3,0.1,0.5,0.1c0.1,0,0.2,0.1,0.3,0.1
			s0.1,0.1,0.2,0.1l0.1,0.1c0,0,0.1,0.1,0.1,0.2c0,0.1,0.1,0.1,0.1,0.2c0,0.1,0.1,0.2,0.1,0.4c0,0.3,0,0.7,0,1l0,0v3.7
			c0,0.4,0,0.7,0,1c0,0.2,0,0.3,0,0.4c0,0.1,0,0.1-0.1,0.2c0,0.1-0.1,0.2-0.2,0.3c0,0-0.1,0.1-0.2,0.1c0,0-0.1,0-0.2,0.1
			c-0.1,0-0.3,0.1-0.9,0.3c-0.6,0.2-1.7,0.4-2.5,0.6c-0.7,0.2-1,0.2-1.7,0.4c-0.7,0.1-1.7,0.3-2.5,0.5c-0.9,0.2-1.6,0.3-2.3,0.5
			c-0.1,0.3-0.2,0.6-0.3,0.8s-0.2,0.4-0.3,0.6c-0.1,0.2-0.2,0.3-0.3,0.4c-0.1,0.1-0.2,0.2-0.3,0.3s-0.2,0.2-0.4,0.2
			c-0.1,0.1-0.3,0.1-0.4,0.2c-0.1,0-0.3,0.1-0.5,0.1s-0.3,0-0.5,0s-0.3,0-0.5,0s-0.3-0.1-0.4-0.1s-0.3-0.1-0.4-0.2
			c-0.1-0.1-0.2-0.1-0.4-0.2c-0.1-0.1-0.2-0.2-0.3-0.3s-0.2-0.2-0.3-0.4s-0.2-0.3-0.3-0.6c-0.1-0.2-0.2-0.5-0.3-0.8
			c-0.9-0.2-1.7-0.4-2.6-0.5c-0.9-0.2-1.8-0.3-2.4-0.5c-0.6-0.1-0.9-0.2-1.6-0.4c-0.7-0.2-1.9-0.5-2.5-0.6c-0.7-0.2-0.8-0.2-0.9-0.3
			c-0.1,0-0.1,0-0.2-0.1l-0.1-0.1l-0.1-0.1l-0.1-0.1c0,0,0-0.1-0.1-0.2c0-0.1,0-0.2-0.1-0.4c0-0.2,0-0.6,0-1l0,0v-3.7
			c0-0.4,0-0.8,0-1s0-0.4,0.1-0.4c0-0.1,0.1-0.2,0.1-0.2c0-0.1,0.1-0.1,0.1-0.2l0.1-0.1c0,0,0.1-0.1,0.2-0.1c0.1,0,0.1-0.1,0.3-0.1
			c0.1,0,0.2-0.1,0.5-0.1c0.2,0,0.5-0.1,0.8-0.1s0.6-0.1,0.9-0.1c0.3,0,0.6-0.1,1.1-0.2c0.5-0.1,1.2-0.2,2.3-0.4s2.7-0.5,3.6-0.6
			c1-0.2,1.3-0.2,1.8-0.2s1.1-0.1,1.7-0.1c0.7,0,1.4,0.1,1.9,0.1s0.9,0.1,1.8,0.3c0.9,0.2,2.4,0.4,3.6,0.7
			C868.8,214.7,869.7,214.8,870.3,214.9L870.3,214.9z"/>
	</g>
	<path class="st10" d="M728.3,176.2h3.5c-0.4-3.5-1.2-6.9-3-8.5c-0.2-0.1-0.3-0.3-0.5-0.4V176.2z M703.9,175.1L703.9,175.1
		c0-1.9,0-3.7,0-5.7c-0.6,1-1.1,1.9-1.1,3.1C702.7,173.6,703.5,174.4,703.9,175.1z M735,176.2L735,176.2c1.7-0.1,3.2-0.5,4.6-1.3
		c1.6-0.9,2.7-1.9,3.4-3.2s1-3.3,1-6.1c0-3.9-1-6.5-3.1-8.1c-1.5-1.1-4.1-1.7-7.7-1.7c-2.1,0-3.5,0.2-4,0.5c-0.6,0.3-0.9,1-0.9,1.8
		l0.1,4.3c1.3,1.3,2.2,3.4,2.8,5.8l1.1-7.9h2.7L735,176.2L735,176.2z M735,179.1L735,179.1v2.5h-2.9c0-0.7-0.1-1.6-0.1-2.5h-3.7v2.3
		c0.4,0.1,0.7,0.3,1,0.4c2.8,1.3,4.9,2.9,6.2,4.9c1.4,2,2.1,4.5,2.1,7.5c0,4.4-1.5,7.9-4.5,10.5c-3.6,3.1-8.1,4.7-13.4,4.7
		c-4.9,0-11-1.3-15.8-8l-1.2,7.5h-2.5v-17.5h2.8c2.8,10,8.5,15,17,15c3.5,0,6.2-0.8,8.1-2.4c1.6-1.3,2.5-2.9,2.8-4.7h-19.2l0.1-1.9
		h3.7c0.9,0,1.7-0.2,2.1-0.7c0.5-0.5,0.7-1.1,0.7-2v-5.6c-3.9-0.9-7-1.8-9.3-2.7c-2.8,2.3-6.6,3.4-11.2,3.4c-4.5,0-8.2-1.3-11.1-3.7
		c-2.8-2.5-4.3-5.3-4.3-8.5c0-2.5,0.7-4.5,2.1-6.1c1.5-1.6,3.2-2.4,5.3-2.4c1.8,0,3.3,0.6,4.5,1.8s1.8,2.7,1.8,4.3s-0.4,2.9-1.3,3.9
		c-0.9,1-1.9,1.5-3.1,1.5c-0.3,0-0.7,0-1.2-0.1c-0.7-0.2-1.1-0.2-1.4-0.2c-0.6,0-1,0.1-1.2,0.3s-0.3,0.6-0.3,1.1
		c0,1.3,0.6,2.3,1.9,3.2c1.7,1.2,3.7,1.7,6.1,1.7c2.6,0,4.6-0.9,6.1-2.5c0.5-0.6,1-1.3,1.3-2.1c-2.4-1.8-3.8-5.8-3.7-8.4
		c0.1-2.7,1.7-6,4.6-8.7v-8.7h-3.8v-2.9h3.8v-6c0-1-0.2-1.7-0.7-2.1c-0.5-0.4-1.1-0.7-2-0.7h-4.8v-3h23.2v3h-2.8
		c-1.1,0-1.8,0.2-2.3,0.7s-0.7,1.1-0.7,2.1l0.1,6.1h24.9c4.7-0.1,8.5,0.9,11.3,3.4c2.9,2.5,4.3,5.6,4.3,9.3c0,2.8-0.8,5.2-2.5,7.3
		s-3.9,3.6-6.7,4.5s-5.5,1.4-8.3,1.4L735,179.1L735,179.1z M718.2,162.8L718.2,162.8c-0.6-0.1-1.1-0.1-1.5-0.1c-1,0-2,0.1-2.8,0.3
		v13c0,0.6-0.1,1.2-0.1,1.7c1.2,0.4,2.7,0.8,4.5,1.2v-16.1L718.2,162.8L718.2,162.8z M730.9,197.2L730.9,197.2
		c-0.1-1.4-0.5-2.6-1.3-3.6c-0.3-0.5-0.8-0.9-1.3-1.3v2.3c0,0.9,0.3,1.5,0.7,2C729.5,197,730.1,197.2,730.9,197.2z M713.9,160
		L713.9,160c0.9-0.1,1.8-0.2,2.8-0.2c0.5,0,1,0,1.5,0v-1.3c0-0.8-0.3-1.5-0.7-1.9c-0.5-0.5-1.1-0.7-1.8-0.7h-1.8V160L713.9,160z"/>
	<path class="st10" d="M659.1,214.2h4.5v0.6h-0.5c-0.2,0-0.4,0.1-0.4,0.2c-0.1,0.1-0.2,0.2-0.2,0.4v5.6c0,0.8-0.3,1.4-0.8,1.9
		c-0.6,0.5-1.3,0.8-2.3,0.8c-0.9,0-1.6-0.2-2.1-0.7s-0.8-1.1-0.8-1.7c0-0.5,0.1-0.9,0.4-1.2c0.3-0.3,0.6-0.5,1-0.5s0.7,0.1,0.9,0.4
		c0.2,0.2,0.4,0.5,0.4,0.8s-0.1,0.5-0.2,0.7c-0.2,0.2-0.4,0.3-0.6,0.3c0,0-0.1,0-0.2,0c-0.1,0-0.2,0-0.3,0s-0.2,0-0.2,0.1
		c0,0-0.1,0.1-0.1,0.2c0,0.2,0.2,0.4,0.4,0.6c0.3,0.2,0.7,0.4,1.2,0.4s0.9-0.2,1.2-0.5s0.4-0.8,0.4-1.4v-5.7c0-0.2,0-0.3-0.1-0.4
		c-0.1-0.1-0.2-0.2-0.4-0.2h-0.9L659.1,214.2L659.1,214.2z M668,217.3L668,217.3c0.6,0,1.2,0.1,1.8,0.4c0.5,0.3,1,0.7,1.2,1.1
		c0.3,0.5,0.4,1,0.4,1.6c0,1-0.4,1.8-1.1,2.4c-0.7,0.5-1.5,0.8-2.4,0.8c-0.6,0-1.2-0.2-1.7-0.4c-0.5-0.3-0.9-0.7-1.2-1.1
		c-0.3-0.5-0.4-1-0.4-1.6c0-0.9,0.3-1.7,1-2.3C666.2,217.6,667,217.3,668,217.3L668,217.3z M668,217.9L668,217.9
		c-0.5,0-0.8,0.2-1,0.6c-0.2,0.4-0.4,1-0.4,2s0.2,1.7,0.4,2.1c0.2,0.4,0.6,0.6,1,0.6c0.5,0,0.8-0.2,1.1-0.6c0.3-0.4,0.4-1.1,0.4-2
		c0-1-0.1-1.6-0.4-2C668.8,218.1,668.5,217.9,668,217.9z M672.4,214.2L672.4,214.2l2.8-0.1v4.5c0.4-0.5,0.8-0.9,1.2-1.1
		c0.4-0.2,0.8-0.3,1.1-0.3c0.6,0,1.1,0.2,1.4,0.5c0.3,0.4,0.5,1,0.5,1.7v2.8c0,0.2,0,0.3,0.1,0.4c0.1,0.1,0.2,0.2,0.4,0.2h0.4v0.6
		h-3.5v-0.6h0.4c0.2,0,0.4-0.1,0.5-0.1c0.1-0.1,0.2-0.3,0.2-0.4v-2.8c0-0.4-0.1-0.7-0.3-0.9s-0.5-0.4-0.8-0.4c-0.4,0-0.7,0.2-1,0.5
		s-0.4,0.8-0.4,1.3v2.2c0,0.2,0,0.3,0.1,0.4c0.1,0.1,0.2,0.2,0.4,0.2h0.4v0.6h-3.6v-0.6h0.5c0.2,0,0.3-0.1,0.4-0.2
		c0.1-0.1,0.2-0.2,0.2-0.4v-6.9c0-0.2-0.1-0.4-0.2-0.5c-0.1-0.1-0.3-0.2-0.5-0.2h-0.4L672.4,214.2L672.4,214.2z M689.1,222.9
		L689.1,222.9v0.6h-3.5v-0.6h0.4c0.2,0,0.3-0.1,0.5-0.2c0.1-0.1,0.2-0.2,0.2-0.5v-2.5c0-0.5-0.1-0.8-0.3-1s-0.5-0.3-0.8-0.3
		c-0.4,0-0.8,0.2-1.1,0.5s-0.4,0.8-0.4,1.4v1.9c0,0.2,0.1,0.3,0.2,0.5c0.1,0.1,0.2,0.2,0.4,0.2h0.5v0.6h-3.6v-0.6h0.5
		c0.2,0,0.3-0.1,0.4-0.2c0.1-0.1,0.2-0.2,0.2-0.5v-3.5c0-0.2-0.1-0.4-0.2-0.5c-0.2-0.1-0.3-0.2-0.5-0.2h-0.2v-0.5l2.4-0.1
		c0.1,0.4,0.1,0.8,0.2,1.3c0.3-0.5,0.7-0.8,1.1-1c0.4-0.2,0.8-0.4,1.2-0.4c0.6,0,1,0.2,1.4,0.6c0.3,0.4,0.5,0.9,0.5,1.6v2.7
		c0,0.2,0,0.4,0.2,0.5c0.1,0.1,0.2,0.2,0.5,0.2H689.1L689.1,222.9z M693.9,214.2L693.9,214.2h5.4c0.9,0,1.6,0.2,2.2,0.7
		c0.6,0.5,0.8,1.1,0.8,1.8c0,0.5-0.2,1-0.5,1.4s-0.8,0.7-1.3,0.9s-1.1,0.3-1.6,0.3h-1.7v3c0,0.2,0,0.3,0.1,0.4
		c0.1,0.1,0.2,0.2,0.4,0.2h1.1v0.6h-4.9v-0.6h0.8c0.2,0,0.3-0.1,0.4-0.2c0.1-0.1,0.2-0.2,0.2-0.4v-7c0-0.2-0.1-0.3-0.2-0.4
		c-0.1-0.1-0.2-0.2-0.3-0.2h-0.9V214.2L693.9,214.2z M697.2,218.8L697.2,218.8h1.1c0.4,0,0.8-0.1,1.1-0.2c0.3-0.2,0.5-0.4,0.7-0.6
		c0.2-0.3,0.2-0.7,0.2-1.2c0-0.8-0.2-1.3-0.6-1.6c-0.3-0.2-0.8-0.3-1.5-0.3c-0.4,0-0.7,0.1-0.8,0.1c-0.1,0.1-0.2,0.2-0.2,0.4V218.8
		L697.2,218.8z M703.2,214.2L703.2,214.2l2.8-0.1v8.3c0,0.2,0,0.3,0.1,0.4c0.1,0.1,0.2,0.1,0.4,0.1h0.4v0.6h-3.5v-0.6h0.4
		c0.2,0,0.3-0.1,0.4-0.2c0.1-0.1,0.1-0.2,0.1-0.5v-6.8c0-0.2-0.1-0.4-0.2-0.5c-0.1-0.1-0.3-0.2-0.5-0.2h-0.5L703.2,214.2
		L703.2,214.2z M714.6,222.8L714.6,222.8l0.3,0.5c-0.3,0.2-0.5,0.3-0.7,0.4c-0.2,0.1-0.5,0.1-0.7,0.1c-0.3,0-0.6-0.1-0.8-0.2
		c-0.2-0.2-0.4-0.5-0.6-0.9c-0.4,0.4-0.8,0.7-1.2,0.9c-0.3,0.1-0.7,0.2-1.1,0.2c-0.6,0-1-0.2-1.4-0.4c-0.3-0.3-0.5-0.6-0.5-1
		c0-0.6,0.3-1.2,0.9-1.5c0.5-0.3,1.5-0.6,3.2-0.9v-1c0-0.3-0.1-0.6-0.3-0.8s-0.5-0.3-0.9-0.3c-0.3,0-0.5,0.1-0.7,0.2
		c-0.2,0.1-0.2,0.2-0.2,0.2s0,0.1,0.1,0.2c0.1,0.2,0.2,0.4,0.2,0.5c0,0.2-0.1,0.5-0.2,0.6c-0.2,0.2-0.3,0.2-0.6,0.2
		s-0.5-0.1-0.7-0.2c-0.2-0.2-0.2-0.4-0.2-0.6c0-0.4,0.2-0.7,0.6-1.1c0.5-0.4,1.2-0.5,2.1-0.5c0.6,0,1.2,0.1,1.6,0.3
		c0.3,0.1,0.5,0.3,0.8,0.6c0.2,0.3,0.3,0.7,0.3,1.1v3c0,0.2,0,0.4,0.1,0.5s0.2,0.2,0.4,0.2C714.2,223,714.4,222.9,714.6,222.8
		L714.6,222.8z M712,220.4L712,220.4c-0.9,0.1-1.5,0.3-1.8,0.6c-0.3,0.2-0.5,0.6-0.5,1c0,0.3,0.1,0.5,0.2,0.7
		c0.2,0.2,0.4,0.2,0.6,0.2c0.4,0,0.8-0.1,1-0.4c0.3-0.3,0.4-0.7,0.4-1.2L712,220.4L712,220.4z M715.5,217.6L715.5,217.6h3.4v0.5
		h-0.3c-0.2,0-0.3,0-0.4,0.1c-0.1,0.1-0.1,0.1-0.1,0.2c0,0.1,0,0.2,0.1,0.4l1.5,2.8l1.2-2.6c0.1-0.2,0.1-0.3,0.1-0.4
		c0-0.2-0.1-0.3-0.2-0.4c-0.2-0.1-0.3-0.2-0.5-0.2h-0.2v-0.5h2.5v0.5c-0.2,0-0.5,0.1-0.6,0.2c-0.2,0.1-0.3,0.3-0.4,0.5l-2.3,4.9
		c-0.4,0.8-0.8,1.4-1.2,1.8c-0.3,0.3-0.7,0.4-1.2,0.4c-0.4,0-0.8-0.1-1-0.3s-0.4-0.5-0.4-0.8c0-0.2,0.1-0.5,0.2-0.6
		c0.1-0.2,0.3-0.2,0.5-0.2s0.4,0.1,0.6,0.2c0.1,0.2,0.2,0.3,0.2,0.5c0,0.1,0,0.2,0,0.3s0,0.1,0,0.2c0,0.1,0,0.1,0.2,0.1
		s0.4-0.1,0.7-0.4c0.3-0.3,0.6-0.8,1-1.5l-2.5-4.8c-0.1-0.2-0.2-0.3-0.3-0.4c-0.1-0.1-0.2-0.1-0.3-0.1h-0.2L715.5,217.6L715.5,217.6
		z M729.6,220.6L729.6,220.6h-4.1c0,0.8,0.2,1.4,0.5,1.8c0.3,0.4,0.7,0.6,1.2,0.6c0.4,0,0.7-0.1,1-0.3s0.6-0.6,1-1.1l0.5,0.3
		c-0.4,0.6-0.8,1.1-1.2,1.3c-0.5,0.3-1,0.4-1.7,0.4c-1,0-1.7-0.3-2.3-0.9c-0.6-0.6-0.9-1.3-0.9-2.2s0.3-1.7,0.9-2.3
		c0.6-0.6,1.3-0.9,2.2-0.9c0.6,0,1.1,0.1,1.5,0.3c0.4,0.3,0.8,0.6,1,1.1C729.4,219.2,729.5,219.8,729.6,220.6L729.6,220.6z
		 M725.4,220L725.4,220h1.9c0.2,0,0.3,0,0.4-0.1c0.1-0.1,0.1-0.3,0.1-0.5c0-0.5-0.1-0.8-0.3-1.1s-0.5-0.4-0.8-0.4
		c-0.4,0-0.7,0.2-0.9,0.5C725.6,218.8,725.5,219.3,725.4,220z M734.8,222.9L734.8,222.9v0.6h-4.1v-0.6h0.5c0.2,0,0.3-0.1,0.5-0.1
		c0.1-0.1,0.1-0.2,0.1-0.3V219c0-0.3-0.1-0.5-0.2-0.6c-0.1-0.2-0.3-0.2-0.5-0.2h-0.3v-0.5l2.5-0.1v1.9c0.2-0.6,0.4-1.1,0.8-1.5
		c0.3-0.3,0.8-0.5,1.2-0.5s0.7,0.1,0.9,0.3s0.3,0.5,0.3,0.8s-0.1,0.5-0.2,0.7c-0.2,0.2-0.4,0.3-0.6,0.3c-0.2,0-0.4-0.1-0.5-0.2
		c-0.2-0.1-0.2-0.3-0.2-0.6c0-0.1,0-0.2,0.1-0.4c0-0.1,0.1-0.2,0.1-0.2c0-0.1,0-0.1,0-0.2c-0.1,0-0.1,0-0.2,0
		c-0.1,0-0.3,0.1-0.5,0.3c-0.3,0.2-0.5,0.7-0.7,1.2c-0.2,0.6-0.3,1.2-0.3,1.7v1.3c0,0.2,0,0.2,0.1,0.3s0.2,0.1,0.3,0.1L734.8,222.9
		L734.8,222.9z M746.8,214.9L746.8,214.9l0.6-0.8h0.4l0.1,3.2h-0.5c-0.3-0.9-0.7-1.6-1.2-2.1s-1.2-0.7-1.8-0.7c-0.5,0-1,0.2-1.4,0.5
		s-0.5,0.7-0.5,1.1c0,0.2,0.1,0.5,0.2,0.7c0.1,0.2,0.3,0.4,0.7,0.5c0.3,0.2,0.8,0.3,1.6,0.5c0.9,0.2,1.5,0.4,1.8,0.5
		c0.5,0.2,0.9,0.5,1.2,1c0.3,0.4,0.4,0.9,0.4,1.5c0,0.8-0.3,1.5-0.9,2c-0.7,0.6-1.6,0.9-2.6,0.9s-1.8-0.3-2.6-1l-0.7,0.9h-0.5v-3.4
		h0.5c0.5,2,1.7,2.9,3.3,2.9c0.7,0,1.2-0.2,1.6-0.5c0.4-0.3,0.6-0.7,0.6-1.2c0-0.3-0.1-0.6-0.2-0.8c-0.2-0.2-0.4-0.4-0.8-0.5
		c-0.2-0.1-0.7-0.2-1.4-0.3c-1-0.2-1.8-0.5-2.2-0.7c-0.5-0.2-0.8-0.5-1-0.9c-0.2-0.3-0.3-0.8-0.3-1.2c0-0.8,0.3-1.5,0.8-2.1
		c0.5-0.5,1.3-0.8,2.3-0.8C745.2,214,746,214.3,746.8,214.9L746.8,214.9z M749.6,217.7L749.6,217.7l2.4-0.2c0.1,0.4,0.2,0.8,0.2,1.1
		c0.3-0.4,0.6-0.7,1-0.9s0.8-0.3,1.3-0.3c0.8,0,1.4,0.2,1.8,0.8c0.5,0.5,0.7,1.3,0.7,2.3c0,0.7-0.1,1.2-0.3,1.7s-0.6,0.8-0.9,1.1
		c-0.4,0.2-0.9,0.4-1.4,0.4c-0.4,0-0.8-0.1-1.2-0.3c-0.3-0.2-0.6-0.5-0.9-0.9v2.1c0,0.3,0,0.4,0.1,0.5c0,0.1,0.1,0.2,0.2,0.2
		c0.1,0,0.4,0.1,0.7,0.1v0.6h-3.5v-0.6h0.2c0.2,0,0.4,0,0.5,0c0.1-0.1,0.2-0.1,0.2-0.2c0-0.1,0-0.2,0-0.5V219c0-0.3,0-0.5-0.1-0.5
		c0-0.1-0.1-0.2-0.2-0.2c-0.1-0.1-0.3-0.1-0.6-0.1L749.6,217.7L749.6,217.7z M753.6,218.3L753.6,218.3c-0.4,0-0.8,0.2-1,0.6
		c-0.3,0.4-0.4,0.9-0.4,1.7c0,0.7,0.2,1.3,0.5,1.7s0.6,0.6,1,0.6s0.7-0.2,0.9-0.5c0.3-0.5,0.4-1.1,0.4-1.8s-0.1-1.2-0.4-1.7
		C754.4,218.5,754,218.3,753.6,218.3L753.6,218.3z M764.2,220.6L764.2,220.6h-4.1c0,0.8,0.2,1.4,0.5,1.8c0.3,0.4,0.7,0.6,1.2,0.6
		c0.4,0,0.7-0.1,1-0.3s0.6-0.6,1-1.1l0.5,0.3c-0.4,0.6-0.7,1.1-1.2,1.3c-0.5,0.3-1,0.4-1.7,0.4c-0.9,0-1.7-0.3-2.3-0.9
		c-0.6-0.6-0.9-1.3-0.9-2.2s0.3-1.7,0.9-2.3c0.6-0.6,1.3-0.9,2.2-0.9c0.6,0,1.1,0.1,1.5,0.3c0.4,0.3,0.8,0.6,1,1.1
		C764,219.2,764.2,219.8,764.2,220.6L764.2,220.6z M760.1,220L760.1,220h2c0.2,0,0.3,0,0.4-0.1c0.1-0.1,0.1-0.3,0.1-0.5
		c0-0.5-0.1-0.8-0.3-1.1s-0.5-0.4-0.8-0.4c-0.4,0-0.7,0.2-0.9,0.5C760.2,218.8,760.1,219.3,760.1,220z M771.2,221.4L771.2,221.4
		l0.5,0.2c-0.2,0.6-0.6,1.1-1.2,1.5c-0.5,0.3-1.2,0.5-1.9,0.5c-1,0-1.8-0.3-2.3-0.8s-0.8-1.2-0.8-2.2s0.3-1.8,1-2.4
		c0.7-0.6,1.5-0.9,2.6-0.9c0.8,0,1.4,0.2,1.8,0.5c0.4,0.3,0.6,0.7,0.6,1.1c0,0.3-0.1,0.6-0.3,0.8s-0.4,0.3-0.7,0.3s-0.5-0.1-0.6-0.2
		c-0.2-0.2-0.2-0.3-0.2-0.6c0-0.2,0.1-0.5,0.2-0.7c0.1-0.1,0.1-0.2,0.1-0.3s-0.1-0.2-0.2-0.2c-0.2-0.1-0.4-0.2-0.7-0.2
		c-0.5,0-0.9,0.2-1.2,0.5c-0.3,0.5-0.5,1.2-0.5,2.1c0,0.9,0.2,1.6,0.5,2s0.8,0.6,1.3,0.6c0.4,0,0.8-0.2,1.2-0.4
		C770.6,222.3,770.9,221.9,771.2,221.4L771.2,221.4z M774.3,214.3L774.3,214.3c0.3,0,0.5,0.1,0.7,0.3s0.3,0.4,0.3,0.7
		s-0.1,0.5-0.3,0.7s-0.4,0.3-0.7,0.3s-0.5-0.1-0.7-0.3s-0.3-0.4-0.3-0.7s0.1-0.5,0.3-0.7C773.8,214.4,774,214.3,774.3,214.3z
		 M772.7,217.6L772.7,217.6l2.6-0.1v5c0,0.2,0,0.2,0.1,0.3s0.2,0.1,0.4,0.1h0.4v0.6h-3.5v-0.6h0.4c0.2,0,0.4-0.1,0.5-0.2
		c0.1-0.1,0.1-0.2,0.1-0.5v-3.4c0-0.2-0.1-0.4-0.2-0.5c-0.1-0.1-0.3-0.2-0.5-0.2h-0.3V217.6L772.7,217.6z M784,222.8L784,222.8
		l0.2,0.5c-0.2,0.2-0.5,0.3-0.7,0.4c-0.2,0.1-0.4,0.1-0.7,0.1s-0.6-0.1-0.8-0.2c-0.2-0.2-0.4-0.5-0.6-0.9c-0.4,0.4-0.8,0.7-1.2,0.9
		c-0.3,0.1-0.7,0.2-1.1,0.2c-0.6,0-1.1-0.2-1.4-0.4c-0.3-0.3-0.5-0.6-0.5-1c0-0.6,0.3-1.2,0.9-1.5c0.5-0.3,1.5-0.6,3.2-0.9v-1
		c0-0.3-0.1-0.6-0.3-0.8s-0.5-0.3-0.9-0.3c-0.3,0-0.5,0.1-0.7,0.2c-0.2,0.1-0.2,0.2-0.2,0.2s0,0.1,0.1,0.2c0.1,0.2,0.2,0.4,0.2,0.5
		c0,0.2-0.1,0.5-0.2,0.6c-0.1,0.2-0.4,0.2-0.6,0.2c-0.3,0-0.5-0.1-0.7-0.2c-0.2-0.2-0.2-0.4-0.2-0.6c0-0.4,0.2-0.7,0.7-1.1
		c0.5-0.4,1.2-0.5,2-0.5c0.6,0,1.2,0.1,1.6,0.3c0.3,0.1,0.5,0.3,0.7,0.6s0.3,0.7,0.3,1.1v3c0,0.2,0,0.4,0.1,0.5s0.2,0.2,0.4,0.2
		C783.7,223,783.8,222.9,784,222.8L784,222.8z M781.4,220.4L781.4,220.4c-0.9,0.1-1.5,0.3-1.8,0.6c-0.3,0.2-0.5,0.6-0.5,1
		c0,0.3,0.1,0.5,0.2,0.7c0.2,0.2,0.4,0.2,0.6,0.2c0.4,0,0.8-0.1,1.1-0.4c0.2-0.3,0.4-0.7,0.4-1.2V220.4L781.4,220.4z M785,214.2
		L785,214.2l2.7-0.1v8.3c0,0.2,0.1,0.3,0.2,0.4c0.1,0.1,0.2,0.1,0.4,0.1h0.4v0.6h-3.5v-0.6h0.4c0.2,0,0.3-0.1,0.4-0.2
		c0.1-0.1,0.2-0.2,0.2-0.5v-6.8c0-0.2-0.1-0.4-0.2-0.5c-0.1-0.1-0.3-0.2-0.5-0.2H785V214.2L785,214.2z"/>
	<g>
		<rect x="581" y="150.5" class="st17" width="60.6" height="83.1"/>
		<rect x="583.7" y="154.1" class="st18" width="55.1" height="76.6"/>
		<g transform="matrix(1.13057 0 0 1 -230.397 -57.8006)">
			<text transform="matrix(1 0 0 1 721.9227 225.0037)" class="st14 st19 st20">DEKRA</text>
		</g>
		<path class="st21" d="M590.8,172.4h40.9c1.8,0,3.2,1.1,3.2,2.5v49.9c0,1.4-1.4,2.5-3.2,2.5h-40.9c-1.8,0-3.2-1.1-3.2-2.5V175
			C587.6,173.6,589,172.4,590.8,172.4z"/>
		<g transform="matrix(0.892739 0 0 1 -57.0191 -7.53071)">
			<text transform="matrix(1 0 0 1 721.1015 224.7866)" class="st10 st19 st22">12</text>
		</g>
	</g>
	<g>
		<path class="st10" d="M601.7,141.9c0.2-1.2,0.7,0.3,1-1.3c0.3-0.6,1-2.4,1.9-2.2c0.7,0.5-0.1,2-0.1,2c-0.2,0.3,0,0.5,0.3,0.5
			c0.2-0.1,1-0.2,0.9-0.1c0.3,0.1,0.3,0.4,0.4,0.5l0.4-0.2c0.7-1.1,1.3-0.3,1.1,0.1l-0.3,0.8c0-0.1,0.7-0.5,1.1-1.1
			c0.2-0.3,0.6-0.4,0.6-0.4c0.2,0,0.4,0,0.5,0.2c0.2,0.3-0.4,1-0.1,1.1l0.2,0.1c0,0,0.4-0.1,0.5-0.1c0-0.1,0.1-0.2,0.2-0.1
			c0.9-1.6,1.7-3.7,2.5-5.7l0.5-1c0.4-0.4,0.9-0.2,0.6,0.2l-1.8,4.2c-0.2,0.4-0.1,0.8-0.4,1.3c0,0.2,0,0.2,0.2,0.1
			c0.4-0.2,1.9-1,1.9,0.1l0.2,0.1c0.1-0.3,0.6-1.3,0.9-0.5c0.1,0.3,0.1,0.8,0.4,1.1c0.5,0.7,1.9,0,1.9,0.2c0.3,0.2,0.4,0.4-0.1,0.9
			c-0.5,0.3-2.1,0.3-2.4-0.3c0-0.1-0.2-0.3-0.2-0.4c-0.2-0.2-0.3-0.2-0.4-0.2c-0.2,0.6-1.4,0.4-1.3-0.3l-0.3-0.1
			c-0.1,0-0.2,0.1-0.3,0.2c0,0.1,0,0.1,0,0.3c0.1,0.1-0.3,0.8-0.4,0.9c-0.4,0.4-0.9,0-0.8-0.2c0-0.2-0.2-0.4-0.3,0
			c-1.3,2.6-1.6,4.1-2.8,7.1c-0.1,0.4-0.6,0-0.5-0.4c0.5-1.9,1.8-4.9,2.3-6.2c0-0.4-0.1-0.2-0.3-0.2c-0.5,0.1-0.9-0.2-1-0.6
			c-2.9,1.1-1.1,3.4-3.1,6.6l0,0c-0.9,1-2.2,0.5-2.1-0.9c0.3-2,1.9-3.6,2-3.9c0-0.1,1.4-1.2,1.1-1.4l0.1-0.4
			c-0.5-0.1-0.8-0.1-1.4-0.5c-0.7,0.2-1.1,0-1.5,0.8c-1,3-1.4,2.8-1.6,2.2c-0.2-0.5,0.5-1.4,0.9-2.2c0.1-0.4-0.4,0.2-0.7,0.4
			c-0.2,0.2-0.9,1.1-2.1,0c-0.2-0.1-0.1-0.3,0.1-0.7C601.3,143,602,142.7,601.7,141.9L601.7,141.9z M604,139.5
			c-0.3,0.3-0.4,0.8-0.6,1.3c0,0.5-0.3,0.3,0.2,0.4c0.3-0.5,0.5-1.1,0.6-1.7C604.1,139.5,604.1,139.5,604,139.5z M606,144.6
			c-0.1,0.3-0.9,0.7-1.7,2.8c-0.4,1.5,0.5,1.2,1,0.2C605.7,146.8,606.1,145.2,606,144.6z"/>
		<path class="st10" d="M614.1,137c2.6-1,5.1-1.5,7.5-1.3c0.4,0.2,0.5,0.5,0,1c-2.2-0.2-4.9,0.4-7.8,1.3
			C613.5,137.9,613.6,137.6,614.1,137z"/>
		<path class="st10" d="M622.1,141.6c-0.3-0.9-0.8-1.5-1.4-2c-0.3-0.1-0.3-0.3-0.1-0.4c0.9-0.5,1.4-0.6,2.6-0.6c0.4,0,0.2-1-0.3-1
			c-1.7,0.2-3,0.3-3.6,1.7c-0.1,0.3,0.1,0.7,0.6,1c3.2,1.9-0.3,8-1.1,8.4c-1.9,1.1,0.3-3.2,0.8-3.3c0.4-0.2,0.2-1.2-0.3-0.8
			c-3.4,3.3-2.3,6.8,0.4,4.5c1.6-1.8,2.7-5.3,2.5-6.9c0.1-0.2,0.1-0.4,0.4-0.2c0.4,0.9,0.8,1.1,1.4,0.5c0.1-0.1,0.3-0.1,0.5,0.1
			c0.4,0.6,0.9,0.5,1.3,0c0.1-0.1,0.1-0.1,0.2,0c0.6,0.4,1.1,0,1.4-0.9c0.1-0.2-0.1-0.5-0.4-0.3c-0.4,0.2-0.5,0.1-0.6-0.4
			c-0.1-0.4-0.7-0.3-0.9,0.4c-0.1,0.2-0.3,0.1-0.2-0.1c0.5-0.7-0.4-1.1-0.8-0.1c-0.1,0.3-1.1,1.1-0.3-0.2c0.3-0.8-0.7-0.9-1.3,0
			C622.8,141.1,622.2,141.9,622.1,141.6L622.1,141.6z"/>
		<path class="st10" d="M627.1,140.1c0.3-0.4,1.1-0.4,1.5,0c0.3,0.3-0.4,1.2,0.6,0.5c0.1-0.1,0.3-0.5,0.7,0.7c0.2,0.3,0.8,0,0.8-0.2
			c0.2-0.8,0.6-1.2,0.8-1.4c0.6-0.2,1,0,1.3,0.5c0.1,0.2,0.2,0.2,0.2,1.1c0.2,1,4,0.6,5.5,0.2c1.1-0.2,0.5,0.9,0.1,0.9
			c-2.5,0.4-4.2,0.8-6.6-0.2c-0.3-0.3-1-0.3-1.4-0.1c-0.5,0.4-0.8,0.5-1.5-0.1c-0.1-0.2-0.2-0.1-0.3,0c-0.5,0.5-1.2,0.5-1-0.2
			c0.1-0.3,0.2-1.1-0.3-0.9C627.1,140.8,626.8,140.3,627.1,140.1L627.1,140.1z M632.1,140.6c0.1,0.1,0,0.3-0.1,0.4
			c-0.2,0.2-0.3,0.2-0.4,0.2s0-0.3,0.1-0.4C631.9,140.6,632.1,140.5,632.1,140.6z"/>
	</g>
	<g>
		<polygon class="st23" points="580.4,138 597.2,138 597.2,147.6 580.4,147.6 		"/>
		<polygon class="st24" points="588.8,139.1 595.8,142.8 588.8,146.4 581.9,142.8 		"/>
		<path class="st25" d="M588.8,140.1c1.5,0,2.7,1.2,2.7,2.7s-1.2,2.7-2.7,2.7s-2.7-1.2-2.7-2.7C586.2,141.3,587.4,140.1,588.8,140.1
			z"/>
		<path class="st15" d="M591.4,143.3c-1.8-1-3.9-1.2-5.2-0.5c0-0.2,0-0.4,0.1-0.6c1.3-0.6,3.4-0.4,5.2,0.6
			C591.5,142.9,591.5,143.1,591.4,143.3L591.4,143.3z"/>
		<polygon class="st15" points="590.3,141.8 590.4,142 590.6,141.9 590.5,142 590.5,142.2 590.4,142.1 590.3,142.2 590.3,142 
			590.2,142 590.3,142 		"/>
		<polygon class="st15" points="587.1,144 587.2,144.2 587.3,144.1 587.2,144.3 587.3,144.4 587.2,144.3 587.1,144.4 587.1,144.3 
			587,144.2 587.1,144.2 		"/>
		<polygon class="st15" points="587.9,143.5 588,143.6 588.1,143.6 588,143.6 588,143.7 588,143.7 587.9,143.7 587.9,143.7 
			587.8,143.6 587.9,143.6 		"/>
		<polygon class="st15" points="587.9,144.6 587.9,144.7 588,144.6 587.9,144.7 588,144.8 587.9,144.7 587.8,144.8 587.8,144.7 
			587.8,144.7 587.9,144.7 		"/>
		<polygon class="st15" points="589.5,144.4 589.5,144.5 589.6,144.5 589.5,144.6 589.6,144.6 589.5,144.6 589.4,144.6 589.4,144.6 
			589.4,144.5 589.4,144.5 		"/>
		<polygon class="st15" points="589.8,144.5 589.8,144.6 589.9,144.5 589.9,144.6 589.9,144.7 589.8,144.6 589.8,144.7 589.8,144.6 
			589.7,144.6 589.8,144.6 		"/>
		<polygon class="st15" points="590.1,144.1 590.2,144.2 590.2,144.2 590.2,144.2 590.2,144.3 590.2,144.3 590.1,144.3 590.1,144.2 
			590,144.2 590.1,144.2 		"/>
		<polygon class="st15" points="590.6,144.1 590.6,144.2 590.7,144.2 590.6,144.2 590.7,144.3 590.6,144.3 590.5,144.3 590.6,144.3 
			590.5,144.2 590.6,144.2 		"/>
		<polygon class="st15" points="590.6,144 590.6,144 590.7,144 590.6,144.1 590.7,144.1 590.6,144.1 590.6,144.1 590.6,144.1 
			590.5,144 		"/>
		<polygon class="st15" points="590.8,143.8 590.8,143.9 590.9,143.9 590.8,143.9 590.9,144 590.8,144 590.7,144 590.7,143.9 
			590.6,143.9 590.7,143.9 		"/>
		<polygon class="st15" points="590.8,143.5 590.8,143.6 590.9,143.6 590.9,143.6 590.9,143.7 590.8,143.7 590.8,143.7 590.8,143.6 
			590.7,143.6 590.8,143.6 		"/>
		<polygon class="st15" points="591.1,143.4 591.1,143.5 591.3,143.5 591.2,143.5 591.2,143.6 591.1,143.6 591.1,143.6 591.1,143.5 
			591,143.5 591.1,143.5 		"/>
		<polygon class="st15" points="588.7,143.6 588.7,143.7 588.8,143.7 588.7,143.7 588.8,143.8 588.7,143.8 588.6,143.9 588.7,143.8 
			588.6,143.7 588.7,143.7 		"/>
		<polygon class="st15" points="588.9,143.8 588.9,143.9 589,143.9 588.9,143.9 589,144 588.9,144 588.9,144 588.9,143.9 
			588.8,143.9 588.9,143.9 		"/>
		<polygon class="st15" points="589.1,143.5 589.1,143.6 589.2,143.6 589.1,143.7 589.2,143.8 589.1,143.7 589,143.8 589,143.7 
			588.9,143.7 589,143.7 		"/>
		<polygon class="st15" points="588.6,143.9 588.6,144 588.7,144 588.7,144.1 588.7,144.1 588.6,144.1 588.6,144.2 588.6,144.1 
			588.5,144 588.6,144 		"/>
		<polygon class="st15" points="590.2,143.1 590.2,143.2 590.3,143.1 590.3,143.2 590.3,143.3 590.2,143.2 590.1,143.3 590.2,143.2 
			590.1,143.2 590.2,143.2 		"/>
		<polygon class="st15" points="588.9,144 589,144.1 589.1,144.1 589,144.2 589.1,144.3 589,144.2 588.9,144.3 588.9,144.2 
			588.8,144.2 588.9,144.1 		"/>
		<polygon class="st15" points="589.6,144.6 589.7,144.7 589.8,144.7 589.7,144.8 589.7,144.9 589.6,144.8 589.6,144.9 589.6,144.8 
			589.5,144.7 589.6,144.7 		"/>
		<polygon class="st15" points="590.3,144.2 590.4,144.3 590.5,144.3 590.4,144.4 590.4,144.5 590.3,144.4 590.3,144.5 590.3,144.4 
			590.2,144.3 590.3,144.3 		"/>
		<polygon class="st15" points="590.5,144.5 590.6,144.6 590.7,144.5 590.6,144.6 590.6,144.7 590.5,144.6 590.5,144.7 590.5,144.6 
			590.4,144.6 590.5,144.6 		"/>
		<polygon class="st15" points="586.6,143 586.6,143 586.7,143 586.7,143.1 586.7,143.2 586.6,143.1 586.6,143.2 586.6,143.1 
			586.5,143.1 586.6,143.1 		"/>
		<polygon class="st15" points="589,145 589,145 589.1,145 589,145.1 589.1,145.1 589,145.1 589,145.2 589,145.1 588.9,145.1 
			589,145.1 		"/>
		<path class="st14" d="M586.5,142.2C586.6,142.2,586.6,142.2,586.5,142.2C586.6,142.2,586.6,142.2,586.5,142.2L586.5,142.2
			c0.1,0,0.1,0,0.1,0.1c0,0,0,0,0,0.1c0,0,0,0,0,0.1l-0.1,0.1h-0.1l0,0c0,0,0,0,0-0.1l0,0l0,0C586.4,142.3,586.4,142.3,586.5,142.2
			L586.5,142.2L586.5,142.2z M586.5,142.2L586.5,142.2c-0.1,0.1-0.1,0.1-0.1,0.1s0,0,0,0.1v0.1l0,0l0,0c0,0,0,0,0.1,0c0,0,0,0,0-0.1
			v-0.1C586.6,142.3,586.6,142.3,586.5,142.2C586.6,142.2,586.6,142.2,586.5,142.2C586.6,142.2,586.6,142.2,586.5,142.2L586.5,142.2
			z M586.7,142.1L586.7,142.1c0.1,0,0.1,0,0.2,0l0,0l0,0c0,0,0,0,0,0.1l0,0c0,0,0,0-0.1,0l0,0l0,0l0,0l0,0l0,0l0,0l0,0
			c0,0,0,0-0.1,0C586.7,142.2,586.7,142.2,586.7,142.1c-0.1,0-0.1,0-0.1-0.1l0,0C586.6,142,586.6,142,586.7,142.1L586.7,142.1
			L586.7,142.1L586.7,142.1L586.7,142.1L586.7,142.1L586.7,142.1h-0.2l0,0l0,0l0,0l0,0l0,0l0,0V142
			C586.7,142.3,586.7,142.2,586.7,142.1C586.7,142.2,586.7,142.2,586.7,142.1L586.7,142.1C586.7,142.2,586.7,142.2,586.7,142.1
			C586.7,142.2,586.7,142.2,586.7,142.1C586.7,142.2,586.7,142.1,586.7,142.1L586.7,142.1z M586.8,142.1
			C586.8,142.2,586.8,142.2,586.8,142.1c0,0.1,0,0.1,0,0.1s0,0,0.1,0C586.8,142.3,586.9,142.2,586.8,142.1c0.1,0.1,0.1,0.1,0.1,0.1
			l0,0l0,0l0,0C586.9,142.1,586.9,142.1,586.8,142.1L586.8,142.1L586.8,142.1z M587,142.1L587,142.1L587,142.1c0.2,0,0.2,0,0.2,0
			s0,0,0.1,0l0,0c0,0,0,0,0,0.1c0,0,0,0,0,0.1c0,0,0,0,0,0.1l0,0c0,0,0,0-0.1,0h-0.1l0,0l0,0l0,0l0,0l0,0l0,0v-0.1
			C587,142.2,587,142.2,587,142.1L587,142.1L587,142.1L587,142.1z M587.1,142.4L587.1,142.4L587.1,142.4
			C587.2,142.4,587.2,142.4,587.1,142.4L587.1,142.4L587.1,142.4c0.1,0,0.1,0,0.1-0.1c0,0,0,0,0-0.1l0,0l0,0l0,0l0,0l0,0v0.1
			C587.1,142.3,587.1,142.3,587.1,142.4L587.1,142.4z M587.3,142c0.1,0,0.2,0,0.2,0l0,0l0,0l0,0l0,0l0,0l0,0l0,0
			C587.5,142,587.4,142,587.3,142C587.4,142.1,587.4,142.1,587.3,142c0.1,0.1,0.1,0.1,0,0.1l0,0l0,0l0,0l0,0l0,0l0,0c0,0,0,0,0,0.1
			v0.1l0,0l0,0l0,0l0,0l0,0l0,0l0,0c0,0,0,0,0,0.1s0,0,0,0.1l0,0l0,0l0,0l0,0c0,0,0,0,0.1,0l0,0l0,0l0,0c0,0,0,0,0,0.1
			c0,0,0,0,0,0.1c-0.1,0-0.2,0-0.2,0l0,0l0,0l0,0l0,0l0,0v-0.1C587.4,142.1,587.4,142.1,587.3,142
			C587.4,142.1,587.4,142.1,587.3,142L587.3,142C587.4,142,587.4,142,587.3,142L587.3,142L587.3,142z M587.6,142
			C587.7,142,587.7,142,587.6,142c0.1,0,0.1,0.1,0.1,0.1v0.1c0,0,0-0.1,0.1-0.1c0,0,0-0.1,0.1-0.1h0.1l0,0l0,0l0,0l0,0l0,0v0.1v0.1
			l0,0l0,0l0,0l0,0l0,0h-0.1l0,0l0,0l0,0l0,0l0,0l0,0v-0.1V142c0,0.1,0,0.1-0.1,0.1c0,0.1,0,0.1-0.1,0.1l0,0v-0.1
			C587.7,142.1,587.7,142.1,587.6,142c0,0.1,0,0.1,0,0.2v0.1l0,0l0,0l0,0l0,0l0,0h-0.1l0,0l0,0l0,0l0,0l0,0v-0.1
			C587.7,142.1,587.7,142.1,587.6,142C587.7,142,587.7,142,587.6,142C587.7,142,587.7,142,587.6,142C587.7,142,587.7,142,587.6,142
			L587.6,142L587.6,142L587.6,142z M588.3,142c0.1,0,0.2,0,0.2,0l0,0l0,0l0,0l0,0l0,0l0,0l0,0C588.4,142,588.4,142,588.3,142
			C588.3,142.1,588.3,142.1,588.3,142c0.1,0.1,0.1,0.1,0.1,0.1l0,0l0,0l0,0l0,0l0,0l0,0c0,0,0,0,0,0.1v0.1l0,0l0,0l0,0l0,0l0,0l0,0
			l0,0c0,0,0,0,0,0.1c0,0,0,0,0,0.1l0,0l0,0l0,0l0,0c0,0,0,0,0.1,0l0,0l0,0l0,0c0,0,0,0,0,0.1l0,0c-0.1,0-0.2,0-0.2,0l0,0l0,0l0,0
			l0,0l0,0v-0.1C588.3,142.1,588.3,142.1,588.3,142L588.3,142L588.3,142L588.3,142L588.3,142L588.3,142z M588.8,142.1L588.8,142.1
			h0.2l0,0c0,0,0,0,0,0.1l0,0l0,0c0,0,0,0-0.1,0l0,0v0.1l0,0l0,0l0,0l0,0l0,0h-0.1l0,0l0,0l0,0l0,0l0,0v-0.1
			C588.8,142.2,588.8,142.1,588.8,142.1L588.8,142.1L588.8,142.1L588.8,142.1L588.8,142.1L588.8,142.1L588.8,142.1z M588.9,142.1
			L588.9,142.1c0,0.1,0,0.1,0,0.1l0,0c0,0,0,0,0.1,0l0,0l0,0l0,0C589,142.1,589,142.1,588.9,142.1
			C589,142.1,588.9,142.1,588.9,142.1L588.9,142.1L588.9,142.1z M589.1,142.1L589.1,142.1c0.1,0,0.1,0,0.2,0l0,0l0,0l0,0l0,0
			C589.3,142.1,589.3,142.1,589.1,142.1c0.1,0,0.1,0,0.1,0.1c0,0,0,0,0,0.1l0,0l0,0l0,0l0,0l0,0c0,0,0,0-0.1,0v-0.1V142.1
			L589.1,142.1L589.1,142.1L589.1,142.1L589.1,142.1L589.1,142.1L589.1,142.1L589.1,142.1L589.1,142.1L589.1,142.1L589.1,142.1
			L589.1,142.1L589.1,142.1L589.1,142.1L589.1,142.1L589.1,142.1L589,142C589.1,142.2,589.1,142.2,589.1,142.1L589.1,142.1
			L589.1,142.1L589.1,142.1L589.1,142.1L589.1,142.1L589.1,142.1z M589.1,142.1C589.1,142.2,589.1,142.2,589.1,142.1
			c0,0.1,0,0.1,0,0.1s0,0,0.1,0l0,0l0,0l0,0l0,0l0,0C589.2,142.2,589.2,142.1,589.1,142.1C589.2,142.1,589.1,142.1,589.1,142.1z
			 M589.5,142.2L589.5,142.2c0.1,0.1,0.1,0.1,0.1,0.1l0,0l0,0c0,0,0,0,0,0.1l0,0h-0.1c0,0-0.1,0-0.1-0.1
			C589.4,142.3,589.4,142.3,589.5,142.2c-0.1,0-0.1,0-0.1-0.1l0,0l0,0C589.4,142.2,589.4,142.2,589.5,142.2
			C589.4,142.2,589.5,142.2,589.5,142.2L589.5,142.2z M589.5,142.2C589.5,142.2,589.4,142.2,589.5,142.2
			C589.4,142.2,589.4,142.2,589.5,142.2c-0.1,0.1-0.1,0.1-0.1,0.1v0.1c0,0,0,0,0,0.1c0,0,0,0,0.1,0l0,0l0,0c0,0,0,0,0-0.1
			C589.6,142.3,589.6,142.3,589.5,142.2C589.6,142.2,589.5,142.2,589.5,142.2L589.5,142.2z M589.9,142.3L589.9,142.3L589.9,142.3
			c0,0.1,0,0.1,0,0.1l0,0C589.9,142.3,589.9,142.3,589.9,142.3C589.8,142.3,589.8,142.3,589.9,142.3
			C589.8,142.3,589.8,142.3,589.9,142.3L589.9,142.3L589.9,142.3l-0.1,0.1c0,0,0,0,0,0.1l0,0l0,0l0,0l0,0l0,0l0,0l0,0l0,0l0,0l0,0
			h0.1l0,0l0,0l0,0l0,0l0,0c0,0,0,0,0,0.1l0,0l0,0l0,0l0,0c0,0,0,0-0.1,0c0,0-0.1,0-0.1-0.1c0,0,0,0,0-0.1c0,0,0,0,0-0.1
			c0,0,0,0,0-0.1l0,0C589.7,142.2,589.8,142.2,589.9,142.3C589.8,142.2,589.8,142.3,589.9,142.3
			C589.8,142.3,589.8,142.3,589.9,142.3C589.8,142.3,589.9,142.3,589.9,142.3L589.9,142.3L589.9,142.3z M590,142.3L590,142.3
			c0.1,0,0.1,0,0.2,0l0,0c0,0,0,0,0,0.1l0,0l0,0c0,0,0,0-0.1,0c0,0,0,0,0,0.1c0,0,0,0,0,0.1l0,0l0,0l0,0l0,0l0,0c0,0,0,0-0.1,0v-0.1
			v-0.1l0,0l0,0l0,0l0,0l0,0l0,0l0,0l0,0h-0.1l0,0l0,0l0,0l0,0l0,0l0,0L590,142.3C590,142.4,590,142.4,590,142.3
			C590,142.4,590,142.3,590,142.3L590,142.3L590,142.3L590,142.3L590,142.3L590,142.3z M590,142.3C590,142.4,590,142.4,590,142.3
			c0,0.1,0,0.1,0,0.1s0,0,0.1,0l0,0l0,0l0,0l0,0l0,0C590.1,142.4,590.1,142.4,590,142.3C590.1,142.4,590.1,142.4,590,142.3
			L590,142.3z M590.3,142.4c0.1,0,0.1,0,0.2,0.1l0,0l0,0l0,0l0,0l0,0l0,0l0,0C590.4,142.4,590.3,142.4,590.3,142.4
			c0.1,0.1,0.1,0.1,0.1,0.1s0,0,0,0.1l0,0l0,0l0,0l0,0l0,0l0,0c0,0,0,0,0,0.1c0,0,0,0,0,0.1l0,0l0,0l0,0l0,0l0,0l0,0l0,0
			c0,0,0,0,0,0.1c0,0,0,0,0,0.1l0,0l0,0l0,0l0,0c0,0,0,0,0.1,0l0,0l0,0l0,0l0,0l0,0c-0.1,0-0.1-0.1-0.2-0.1l0,0l0,0l0,0l0,0l0,0
			v-0.1C590.3,142.5,590.3,142.5,590.3,142.4L590.3,142.4L590.3,142.4L590.3,142.4C590.3,142.4,590.2,142.4,590.3,142.4L590.3,142.4
			z M590.7,142.5L590.7,142.5C590.7,142.6,590.7,142.6,590.7,142.5c0,0.1,0,0.1,0,0.1l0,0C590.7,142.6,590.7,142.6,590.7,142.5
			C590.7,142.5,590.6,142.5,590.7,142.5C590.6,142.5,590.6,142.5,590.7,142.5L590.7,142.5L590.7,142.5L590.7,142.5L590.7,142.5
			C590.6,142.6,590.6,142.6,590.7,142.5c-0.1,0.1-0.1,0.1-0.1,0.1l0,0l0,0l0,0l0,0l0,0c0,0,0,0-0.1,0l0,0l0,0l0,0l0,0c0,0,0,0,0-0.1
			c0,0,0,0,0-0.1l0,0c0,0,0,0,0,0.1l0,0l0,0C590.5,142.5,590.5,142.5,590.7,142.5L590.7,142.5L590.7,142.5L590.7,142.5L590.7,142.5
			c-0.1,0-0.1,0-0.1-0.1c0,0,0,0,0-0.1l0,0l0,0C590.6,142.5,590.6,142.5,590.7,142.5C590.6,142.5,590.7,142.5,590.7,142.5
			L590.7,142.5C590.7,142.6,590.7,142.5,590.7,142.5L590.7,142.5z M590.9,142.6C591,142.6,591,142.6,590.9,142.6
			C591,142.7,591,142.7,590.9,142.6c0,0.1,0,0.1,0,0.1l0,0C590.9,142.7,590.9,142.7,590.9,142.6L590.9,142.6
			C590.8,142.6,590.8,142.6,590.9,142.6L590.9,142.6L590.9,142.6L590.9,142.6L590.9,142.6C590.8,142.7,590.8,142.7,590.9,142.6
			c-0.1,0.1-0.1,0.1,0,0.1l0,0l0,0l0,0l0,0c0,0,0,0,0,0.1h-0.1l0,0l0,0l0,0l0,0c0,0,0,0,0-0.1C590.8,142.7,590.8,142.7,590.9,142.6
			L590.9,142.6c-0.1,0-0.1,0-0.1,0.1l0,0l0,0c0,0,0,0,0.1,0l0,0l0,0l0,0l0,0C590.9,142.7,590.9,142.7,590.9,142.6
			c-0.1,0-0.1,0-0.1-0.1l0,0l0,0C590.8,142.6,590.9,142.6,590.9,142.6L590.9,142.6L590.9,142.6L590.9,142.6L590.9,142.6z
			 M591.2,142.7L591.2,142.7c0.1,0.1,0.1,0.1,0.1,0.1l0,0l0,0c0,0,0,0,0,0.1l0,0h-0.1l-0.1-0.1C591.1,142.8,591.1,142.8,591.2,142.7
			c-0.1-0.1-0.1,0-0.1-0.1l0,0l0,0C591,142.7,591.1,142.7,591.2,142.7C591.1,142.7,591.1,142.7,591.2,142.7z M591.2,142.7
			C591.1,142.7,591.1,142.7,591.2,142.7C591.1,142.7,591.1,142.7,591.2,142.7c-0.1,0-0.1,0.1-0.1,0.1s0,0,0,0.1c0,0,0,0,0,0.1l0,0
			c0,0,0,0,0.1,0s0,0,0.1,0c0,0,0,0,0-0.1C591.2,142.9,591.2,142.8,591.2,142.7C591.2,142.8,591.2,142.8,591.2,142.7
			C591.2,142.8,591.2,142.7,591.2,142.7L591.2,142.7z"/>
	</g>
	<g transform="matrix(0.902791 0 0 1 -165.822 -70.4163)">
		<text transform="matrix(1 0 0 1 721.9038 225.0589)" class="st10 st11 st26">OLYMPUS</text>
	</g>
	<g>
		<path class="st10" d="M526.6,219.8c-0.4,0.9-1.3,1.5-2.4,1.5c-1.5,0-2.6-1.2-2.6-2.6l0,0h3.3h1.9h3.8c0.1-0.4,0.1-0.8,0.1-1.2
			c0-3.6-3-6.6-6.6-6.6s-6.6,3-6.6,6.6s3,6.6,6.6,6.6c2.8,0,5.2-1.8,6.2-4.2h-3.7V219.8z M524.2,213.6c1.4,0,2.6,1.1,2.6,2.6v0.1
			h-5.1v-0.1C521.6,214.7,522.8,213.6,524.2,213.6z"/>
		<polygon class="st10" points="536.9,223.7 533.1,223.7 533.1,209.3 536.9,209.3 		"/>
		<path class="st10" d="M543.4,214.8c0,0,0-0.9,0-1.6c0-0.7,0.8-0.9,1.2-0.9s3,0,3,0v-3h-3.9c-2.4,0-4.3,1.9-4.3,4.3v5.9v4.3h3.9
			l0,0l0,0V218h4.2v-3.1L543.4,214.8L543.4,214.8z"/>
	</g>
</g>
<text transform="matrix(0.9232 0 0 1 457.3564 367.3184)" class="st14 st27 st28">1/43 - BMW M3 E30 DTM 1980 </text>
<text transform="matrix(0.9232 0 0 1 624.2197 413.6357)" class="st14 st27 st29">Ayrton Senna n 12</text>
<rect x="-43.4" y="30" class="st14" width="30" height="30"/>
<rect x="-43.4" y="337.3" class="st14" width="30" height="30"/>
</svg>
