<?xml version="1.0" encoding="utf-8"?>
<!-- Generator: Adobe Illustrator 22.1.0, SVG Export Plug-In . SVG Version: 6.00 Build 0)  -->
<svg version="1.1" id="Camada_1" xmlns="http://www.w3.org/2000/svg" xmlns:xlink="http://www.w3.org/1999/xlink" x="0px" y="0px"
	 viewBox="0 0 1450 450" style="enable-background:new 0 0 1450 450;" xml:space="preserve">
<style type="text/css">
	.st0{fill:#808184;stroke:#221F20;stroke-width:0.5669;stroke-miterlimit:10;}
	.st1{fill:#F9DB45;stroke:#221F20;stroke-width:0.5669;stroke-miterlimit:10;}
	.st2{fill:none;stroke:#221F20;stroke-width:0.5669;stroke-miterlimit:10;}
	.st3{fill:#E5E6E7;stroke:#221F20;stroke-width:0.5669;stroke-miterlimit:10;}
	.st4{fill:#221F20;stroke:#221F20;stroke-width:0.5669;stroke-miterlimit:10;}
	.st5{fill:#929497;stroke:#221F20;stroke-width:0.5669;stroke-miterlimit:10;}
	.st6{fill:#035227;}
	.st7{font-family:'Arial-BoldMT';}
	.st8{font-size:10.703px;}
	.st9{fill:#FEFEFE;stroke:#035227;stroke-width:0.5669;stroke-miterlimit:10;}
	.st10{fill:#221F20;}
	.st11{font-family:'ArialMT';}
	.st12{fill:#373435;}
	.st13{font-family:'Raleway-Regular';}
	.st14{font-size:40px;}
	.st15{font-size:25px;}
</style>
<g>
	<polygon class="st0" points="407,222.8 411.3,267.5 586.7,275.3 905.6,278 1071.2,263 1084.9,155 688,197.4 454.2,170 	"/>
	<path class="st1" d="M1071.2,263c30.5,6,56.3-23.5,76.5-94.5c6-22.3-0.4-30.8-14.9-30l-70.2-1.5c-55.3-11.3-126.8-18.1-182.1-26.5
		c-7.2,1.2-23.8-7.3-41.3-25H818l-0.9,26.1l18.3,0.4l4.9,54.8L693.9,162c1.7-28.7-0.9-50.4-13.3-68.8l-7.7,0.1
		c16.3,39.1,7.3,66.4-18.6,64.2c-54.5-2.6-104.6-4.4-91.6-16.9c-112.2,3.1-198.1,18.5-256.5,69.5c-26.7,71.3,37.1,60.3,105.1,57.3
		c66.2-158.8,196.9-66.1,175.4,7.8l319,2.6C903.1,154,1059.4,136.3,1071.2,263L1071.2,263z"/>
	<path class="st1" d="M565.6,136.1l2.9,0.5L565.6,136.1z"/>
	<line class="st2" x1="840.5" y1="166.6" x2="692.5" y2="161.8"/>
	<path class="st3" d="M840.5,166.6l-4.9-54.8l-148-3.6c4.9,18,7.1,35.9,6.2,53.9L840.5,166.6z"/>
	<path class="st3" d="M562.7,140.7c34.7-28.3,70.3-50.4,110.2-46.6c13.3,42.7,9.2,66.1-18.6,63.5
		C600.7,156.5,555.6,153.7,562.7,140.7L562.7,140.7z"/>
	<path class="st3" d="M413.7,177.9c-3.6,24.4-51.4,59.9-75.2,62.9C340.2,215.5,397.2,174.6,413.7,177.9L413.7,177.9z"/>
	<path class="st3" d="M357.5,177.1c0.3,11.2-61,44.9-50.5,36.4C326,198,335.8,184.4,357.5,177.1L357.5,177.1z"/>
	<path class="st4" d="M302,219.8l23.3,8.1v18l-19.2-2.3C300.7,236.6,299.8,227.2,302,219.8L302,219.8z"/>
	<path class="st2" d="M818.8,86.3c18.7-1.1,35.2,24.1,39.8,74.3l10.1,11.1l-0.9,78.9"/>
	<path class="st1" d="M840.5,166.6l-192.1-6.5l2.9,68.8c0.8,8.6,9.1,14.4,24,17.8l138.5,3.4c15.5,1.7,26.6-3.5,33.2-15.9
		C849.9,206.6,855,176.8,840.5,166.6L840.5,166.6z"/>
	<path class="st2" d="M648.4,160.1c-143.2-19.5-252.8-3.2-314,64.4"/>
	<path class="st2" d="M840.5,166.6c79.6-13.5,142.4-37.1,230.2-29.5"/>
	<path class="st4" d="M990.6,181.1c-38,0-68.8,29-68.8,64.7c0,35.8,30.8,64.8,68.8,64.8s68.8-29,68.8-64.8
		C1059.3,210.1,1028.5,181.1,990.6,181.1L990.6,181.1z"/>
	<path class="st3" d="M990.6,288.8c25.1,0,45.6-19.3,45.6-43c0-23.6-20.5-42.9-45.6-42.9S945,222.2,945,245.8
		C944.9,269.6,965.4,288.8,990.6,288.8L990.6,288.8z"/>
	<path class="st0" d="M990.6,212.4c-19.7,0-35.6,15-35.6,33.4c0,18.5,16,33.5,35.6,33.5s35.6-15,35.6-33.5
		C1026.2,227.4,1010.2,212.4,990.6,212.4L990.6,212.4z"/>
	<path class="st4" d="M990.6,253.6c4.5,0,8.2-3.4,8.2-7.7s-3.7-7.7-8.2-7.7s-8.2,3.4-8.2,7.7C982.3,250.2,986,253.6,990.6,253.6
		L990.6,253.6z"/>
	<polygon class="st4" points="983.8,217.3 974,222 977.8,228.9 987.5,224.2 	"/>
	<polygon class="st4" points="959.7,235.7 958.4,246 966.7,246.9 967.9,236.6 	"/>
	<polygon class="st4" points="961.9,260.3 969.2,268 975.3,262.8 968,255.1 	"/>
	<polygon class="st4" points="995.8,267.1 985,267.4 985.2,275.1 996.1,274.8 	"/>
	<polygon class="st4" points="1014.1,247 1011.9,257.1 1019.9,258.6 1022.1,248.5 	"/>
	<polygon class="st4" points="1002.3,227.1 1010.1,234.2 1015.9,228.7 1008,221.5 	"/>
	<path class="st4" d="M508.3,182.6c-38,0-68.8,29-68.8,64.7s30.8,64.7,68.8,64.7s68.8-29,68.8-64.7S546.3,182.6,508.3,182.6
		L508.3,182.6z"/>
	<path class="st3" d="M508.3,290.3c25.1,0,45.6-19.4,45.6-43s-20.5-43-45.6-43s-45.6,19.4-45.6,43S483.2,290.3,508.3,290.3
		L508.3,290.3z"/>
	<path class="st5" d="M508.3,213.7c-19.7,0-35.6,15-35.6,33.5s16,33.5,35.6,33.5c19.7,0,35.6-15,35.6-33.5S528,213.7,508.3,213.7
		L508.3,213.7z"/>
	<path class="st4" d="M508.3,255c4.5,0,8.2-3.5,8.2-7.7c0-4.3-3.7-7.7-8.2-7.7s-8.2,3.5-8.2,7.7C500.1,251.5,503.8,255,508.3,255
		L508.3,255z"/>
	<polygon class="st4" points="501.6,218.7 491.8,223.4 495.6,230.3 505.3,225.6 	"/>
	<polygon class="st4" points="477.4,237.2 476.2,247.4 484.4,248.2 485.7,238 	"/>
	<polygon class="st4" points="479.7,261.6 487,269.3 493.1,264.1 485.7,256.4 	"/>
	<polygon class="st4" points="513.6,268.4 502.7,268.8 502.9,276.5 513.9,276.2 	"/>
	<polygon class="st4" points="531.9,248.3 529.7,258.4 537.7,259.9 539.9,249.8 	"/>
	<polygon class="st4" points="520,228.4 527.9,235.6 533.6,230.1 525.8,222.9 	"/>
	<rect x="585.9" y="254.4" class="st6" width="322.9" height="1.4"/>
	<rect x="585.9" y="269.7" class="st6" width="322.9" height="1.5"/>
	<rect x="585.8" y="259" class="st6" width="60.8" height="7.9"/>
	<rect x="698" y="259.4" class="st6" width="113.3" height="7.9"/>
	<rect x="844.5" y="259" class="st6" width="64.6" height="7.9"/>
	<text transform="matrix(0.9984 0 0 1 651.8125 267.0156)" class="st6 st7 st8">M</text>
	<text transform="matrix(0.9984 0 0 1 660.3984 267.0156)" class="st6 st7 st8">AR</text>
	<text transform="matrix(0.9984 0 0 1 677.4717 267.0156)" class="st6 st7 st8">K</text>
	<text transform="matrix(0.9984 0 0 1 686.002 267.0156)" class="st6 st7 st8">I</text>
	<text transform="matrix(0.9984 0 0 1 688.0986 267.0156)" class="st6 st7 st8">I</text>
	<text transform="matrix(0.9984 0 0 1 816.3828 267.0156)" class="st6 st7 st8">B</text>
	<text transform="matrix(0.9984 0 0 1 824.9697 267.0156)" class="st6 st7 st8">I</text>
	<text transform="matrix(0.9984 0 0 1 827.0664 267.0156)" class="st6 st7 st8">N</text>
	<text transform="matrix(0.9984 0 0 1 835.6523 267.0156)" class="st6 st7 st8">O</text>
	<path class="st9" d="M750.1,167.3c28.1,0,50.7,22.8,50.7,50.7c0,28-22.7,50.7-50.7,50.7s-50.6-22.8-50.6-50.7
		S722.1,167.3,750.1,167.3L750.1,167.3z"/>
	<path class="st10" d="M725.2,185.2l19.5-1.5v43.7h4v12.8h-4v17.5l-10.6-0.6v-16.9h-19.4l-3.4-14.2L725.2,185.2z M733.8,196.3
		l-11,31H734L733.8,196.3z M756.8,183.1l22.4-0.8l5.3,13.4l-21.2,60.9l-13.9,0.8l21.4-61l-13.4,0.6L756.8,183.1z"/>
	<text transform="matrix(0.9984 0 0 1 948.9004 166.3984)" class="st6 st11 st8">E</text>
	<text transform="matrix(0.9984 0 0 1 955.29 166.3984)" class="st6 st11 st8">Q</text>
	<text transform="matrix(0.9984 0 0 1 963.877 166.3984)" class="st6 st11 st8">U</text>
	<text transform="matrix(0.9984 0 0 1 970.2666 166.3984)" class="st6 st11 st8">I</text>
	<text transform="matrix(0.9984 0 0 1 972.4629 166.3984)" class="st6 st11 st8">P</text>
	<text transform="matrix(0.9984 0 0 1 978.8525 166.3984)" class="st6 st11 st8">E</text>
	<text transform="matrix(0.9984 0 0 1 989.4961 166.3984)" class="st6 st11 st8">W</text>
	<text transform="matrix(0.9984 0 0 1 998.082 166.3984)" class="st6 st11 st8">I</text>
	<text transform="matrix(0.9984 0 0 1 1000.1787 166.3984)" class="st6 st11 st8">L</text>
	<text transform="matrix(0.9984 0 0 1 1006.5684 166.3984)" class="st6 st11 st8">L</text>
	<text transform="matrix(0.9984 0 0 1 1010.8623 166.3984)" class="st6 st11 st8">Y</text>
	<text transform="matrix(0.9984 0 0 1 1017.252 166.3984)" class="st6 st11 st8">S</text>
</g>
<rect x="-43.4" y="30" class="st12" width="30" height="30"/>
<rect x="-43.4" y="337.3" class="st12" width="30" height="30"/>
<g transform="matrix(0.662155 0 0 0.717208 277.024 205.947)">
	<text transform="matrix(1.3943 0 0 1.3943 368.7437 224.9994)" class="st12 st13 st14">1/43 - Bino Mark II nยบ 47</text>
</g>
<g transform="matrix(0.662155 0 0 0.717208 277.024 205.947)">
	<text transform="matrix(1.3943 0 0 1.3943 407.3103 289.5795)" class="st12 st13 st15">Bird Clemente e Carol Figueiredo</text>
</g>
<rect x="-98.4" y="60" class="st12" width="55" height="277.3"/>
</svg>
