<?xml version="1.0" encoding="utf-8"?>
<!-- Generator: Adobe Illustrator 22.1.0, SVG Export Plug-In . SVG Version: 6.00 Build 0)  -->
<svg version="1.1" id="Camada_1" xmlns="http://www.w3.org/2000/svg" xmlns:xlink="http://www.w3.org/1999/xlink" x="0px" y="0px"
	 viewBox="0 0 1450 450" style="enable-background:new 0 0 1450 450;" xml:space="preserve">
<style type="text/css">
	.st0{fill:#373435;}
	.st1{font-family:'Raleway-Regular';}
	.st2{font-size:40px;}
	.st3{font-size:25px;}
	.st4{fill:#221F20;stroke:#221F20;stroke-width:0.5669;stroke-miterlimit:10;}
	.st5{fill:#E5E6E7;stroke:#221F20;stroke-width:0.5669;stroke-miterlimit:10;}
	.st6{fill:none;stroke:#221F20;stroke-width:0.5669;stroke-miterlimit:10;}
	.st7{fill:#F4F0E5;stroke:#221F20;stroke-width:0.5669;stroke-miterlimit:10;}
	.st8{fill:#ED1B23;stroke:#221F20;stroke-width:0.5669;stroke-miterlimit:10;}
	.st9{fill:#EFF4F6;stroke:#221F20;stroke-width:0.1984;stroke-miterlimit:10;}
	.st10{fill:#221F20;}
</style>
<rect x="-43.4" y="30" class="st0" width="30" height="30"/>
<rect x="-43.4" y="337.3" class="st0" width="30" height="30"/>
<text transform="matrix(0.9232 0 0 1 407.6318 367.3184)" class="st0 st1 st2">1/43 - Alfa Romeo JK FMN 2150 1960</text>
<text transform="matrix(0.9232 0 0 1 534.1934 413.6357)" class="st0 st1 st3">Schico Landi e Christian Heins nยบ 28</text>
<rect x="-98.4" y="60" class="st0" width="55" height="277.3"/>
<g>
	<path class="st4" d="M422.7,209.3c33.2,0,60.1,25.6,60.1,57.3s-27,57.4-60.1,57.4c-33.2,0-60.2-25.7-60.2-57.4
		S389.5,209.3,422.7,209.3L422.7,209.3z"/>
	<path class="st5" d="M422.7,225.8c23.6,0,42.8,18.3,42.8,40.8s-19.2,40.8-42.8,40.8c-23.7,0-42.9-18.3-42.9-40.8
		C379.9,244.1,399,225.8,422.7,225.8L422.7,225.8z"/>
	<path class="st6" d="M422.7,230.2c21.2,0,38.3,16.3,38.3,36.4s-17.1,36.5-38.3,36.5c-21.2,0-38.3-16.4-38.3-36.5
		C384.4,246.5,401.6,230.2,422.7,230.2L422.7,230.2z"/>
	<path class="st6" d="M422.7,236.2c18.4,0,33.3,14.2,33.3,31.8c0,17.5-15,31.7-33.3,31.7c-18.5,0-33.4-14.2-33.4-31.7
		C389.3,250.4,404.3,236.2,422.7,236.2L422.7,236.2z"/>
	<path class="st6" d="M422.7,251.2c9.7,0,17.7,7.6,17.7,16.9c0,9.2-8,16.8-17.7,16.8c-9.8,0-17.7-7.6-17.7-16.8
		C405.1,258.7,413,251.2,422.7,251.2L422.7,251.2z"/>
	<path class="st6" d="M422.7,255.3c7.3,0,13.3,5.6,13.3,12.7c0,7-6,12.6-13.3,12.6c-7.4,0-13.4-5.6-13.4-12.6
		C409.4,260.9,415.3,255.3,422.7,255.3L422.7,255.3z"/>
	<path class="st4" d="M422.7,262.5c3.2,0,5.7,2.4,5.7,5.5c0,3-2.5,5.4-5.7,5.4s-5.8-2.4-5.8-5.4
		C416.9,264.9,419.6,262.5,422.7,262.5L422.7,262.5z"/>
	<path class="st4" d="M409.6,256.7c-0.2-6-3.9-8.8-10.1-9.5C400.8,253.7,404.3,256.6,409.6,256.7L409.6,256.7z"/>
	<path class="st4" d="M417.2,251.8c2.5-5.4,0.3-9.5-4.9-12.9C410.6,245.3,412.5,249.4,417.2,251.8L417.2,251.8z"/>
	<path class="st4" d="M426.2,251.5c4.9-3.3,5.3-8,2.5-13.6C423.9,242.4,423.4,246.9,426.2,251.5L426.2,251.5z"/>
	<path class="st4" d="M434.5,255c5.9-0.8,8.3-4.8,8.3-11.1C436.5,245.9,434,249.7,434.5,255L434.5,255z"/>
	<path class="st4" d="M439.4,263c5.7,1.7,9.5-1,12.1-6.8C445,255.5,441.2,258,439.4,263L439.4,263z"/>
	<path class="st4" d="M439.4,272.1c2.8,5.3,7.4,6.2,13.2,4.1C448.7,270.9,444.2,269.9,439.4,272.1L439.4,272.1z"/>
	<path class="st4" d="M434.7,280c0.4,6,4.2,8.7,10.4,9.1C443.6,282.7,439.9,279.9,434.7,280L434.7,280z"/>
	<path class="st4" d="M427.4,283.8c-2.7,5.3-0.8,9.6,4.4,13.1C433.7,290.6,432,286.4,427.4,283.8L427.4,283.8z"/>
	<path class="st4" d="M418.9,284.5c-5.3,2.7-6.3,7.2-4.3,13.1C420,293.7,421.1,289.3,418.9,284.5L418.9,284.5z"/>
	<path class="st4" d="M410.6,280.5c-6,0.1-8.8,3.8-9.6,10C407.5,289.3,410.4,285.8,410.6,280.5L410.6,280.5z"/>
	<path class="st4" d="M405.2,272.2c-5.6-1.8-9.5,0.8-12.2,6.4C399.5,279.6,403.4,277.2,405.2,272.2L405.2,272.2z"/>
	<path class="st4" d="M405.6,264c-3.5-4.9-8.2-5.1-13.7-2.1C396.6,266.4,401.2,266.8,405.6,264L405.6,264z"/>
	<path class="st4" d="M943,210.3c33.2,0,60.1,25.7,60.1,57.4S976.3,325,943,325c-33.2,0-60.1-25.7-60.1-57.4S909.8,210.3,943,210.3
		L943,210.3z"/>
	<path class="st5" d="M943,226.8c23.6,0,42.8,18.3,42.8,40.8s-19.2,40.8-42.8,40.8s-42.8-18.3-42.8-40.8S919.4,226.8,943,226.8
		L943,226.8z"/>
	<path class="st6" d="M943,231.2c21.2,0,38.3,16.3,38.3,36.4s-17.1,36.5-38.3,36.5s-38.3-16.4-38.3-36.5S921.9,231.2,943,231.2
		L943,231.2z"/>
	<path class="st6" d="M943,237.2c18.5,0,33.4,14.2,33.4,31.7c0,17.6-15,31.8-33.4,31.8c-18.5,0-33.3-14.2-33.3-31.8
		C909.7,251.5,924.6,237.2,943,237.2L943,237.2z"/>
	<path class="st6" d="M943,252.2c9.8,0,17.7,7.6,17.7,16.8c0,9.3-7.9,16.9-17.7,16.9s-17.7-7.6-17.7-16.9
		C925.4,259.7,933.2,252.2,943,252.2L943,252.2z"/>
	<path class="st6" d="M943,256.3c7.4,0,13.3,5.6,13.3,12.6c0,7.1-5.9,12.7-13.3,12.7c-7.3,0-13.3-5.6-13.3-12.7
		C929.7,262,935.7,256.3,943,256.3L943,256.3z"/>
	<path class="st4" d="M943,263.6c3.2,0,5.7,2.4,5.7,5.4s-2.5,5.5-5.7,5.5s-5.7-2.5-5.7-5.5S939.8,263.6,943,263.6L943,263.6z"/>
	<path class="st4" d="M929.9,257.8c-0.2-6-3.9-8.8-10.1-9.5C921.1,254.7,924.6,257.6,929.9,257.8L929.9,257.8z"/>
	<path class="st4" d="M937.5,252.8c2.5-5.4,0.3-9.6-4.9-12.9C930.9,246.3,932.8,250.4,937.5,252.8L937.5,252.8z"/>
	<path class="st4" d="M946.4,252.5c5-3.3,5.3-8,2.5-13.6C944.2,243.4,943.7,248,946.4,252.5L946.4,252.5z"/>
	<path class="st4" d="M954.8,256c5.9-0.8,8.4-4.8,8.4-11.1C956.9,246.9,954.3,250.8,954.8,256L954.8,256z"/>
	<path class="st4" d="M959.7,264c5.7,1.7,9.5-1,12.1-6.7C965.3,256.6,961.5,259,959.7,264L959.7,264z"/>
	<path class="st4" d="M959.7,273.1c2.8,5.2,7.4,6.2,13.2,4.1C969,271.9,964.5,270.9,959.7,273.1L959.7,273.1z"/>
	<path class="st4" d="M955,281c0.4,6,4.3,8.7,10.5,9.1C963.9,283.7,960.3,280.9,955,281L955,281z"/>
	<path class="st4" d="M947.7,284.8c-2.7,5.3-0.7,9.6,4.4,13.1C954.1,291.6,952.3,287.4,947.7,284.8L947.7,284.8z"/>
	<path class="st4" d="M939.3,285.5c-5.4,2.6-6.4,7.2-4.3,13.1C940.2,294.7,941.4,290.4,939.3,285.5L939.3,285.5z"/>
	<path class="st4" d="M930.9,281.5c-6,0.1-8.8,3.8-9.5,10C927.8,290.4,930.8,286.9,930.9,281.5L930.9,281.5z"/>
	<path class="st4" d="M925.6,273.3c-5.7-1.8-9.6,0.7-12.2,6.4C919.8,280.6,923.7,278.2,925.6,273.3L925.6,273.3z"/>
	<path class="st4" d="M925.9,264.9c-3.6-4.8-8.2-5-13.7-2.1C916.9,267.5,921.5,267.9,925.9,264.9L925.9,264.9z"/>
	<path class="st7" d="M304.1,221l-0.6-40.2L526.9,161l72.9-73.5c4-26,314.1-14,318.4,1.7l62.8,74.1l167.4,6.8l1.7,82.6h-12.4
		c2.7,31-32.4,34-125.5,36.7c-2-36.3-23.6-60.6-69-57c-45.7,0.5-64.2,15.9-70.7,63.8l-376,1.1c-9.1-59.5-34.9-88.7-76.4-85.6
		c-42,2.4-58.3,29.8-63.9,82.8c-23.9,5.3-43.1-0.9-43.6-29.4C313.6,241.5,312.4,222,304.1,221L304.1,221z"/>
	<polygon class="st6" points="304.4,222.4 303.6,180.8 300,181.2 300.3,223.1 	"/>
	<line class="st6" x1="304.4" y1="222.4" x2="312.9" y2="256.5"/>
	<path class="st6" d="M603.1,90.8l-6-0.4L530,157.9l28.2,1.6c7.6,1,9.5,0,11.6-2.5l39-58C610.8,95.2,610.6,91.8,603.1,90.8
		L603.1,90.8z"/>
	<path class="st5" d="M599.8,87.5L530,157.9l-3.1,3.1l34.7,1.8c4.7,0.4,6,0.5,9.6-3.3l41.3-61.4c-1.3-2.9,0.9-6.1-3.7-8.7
		L599.8,87.5z"/>
	<path class="st6" d="M978,159.9l-59.8-70.6L901.9,95c-5.4,2.9-6.6,9.2-4.5,18.1L920,153c2.5,5.6,7,8.4,14.1,7.3L978,159.9z"/>
	<path class="st5" d="M973.4,154.4L922.2,94l-13.4,5.6c-8.1,3.1-8.6,8-5.7,13.6l21.8,36.2c1.6,3.6,5.4,4.9,10.7,4.8L973.4,154.4z"/>
	<path class="st6" d="M577.4,164.9L624.5,86c72.7-3,146.1-2.7,220.3,1.1c29-3.4,46.3,32.4,61.6,74.4l2,64.1
		c-22.4,7.4-32.9,23.9-38.7,44.1L544.8,272l-1.7-93.3C551.4,170.3,562.3,165,577.4,164.9L577.4,164.9z"/>
	<polygon class="st5" points="638.5,93.3 628.8,93.3 585.9,160.6 624.3,160.1 	"/>
	<polygon class="st5" points="629.6,159.5 644.7,91.9 728.9,90.6 728.9,159.2 	"/>
	<polygon class="st5" points="743.9,158.4 743.9,89.4 832.4,91.4 844.8,157.2 	"/>
	<path class="st5" d="M850.8,93.3L836,91.7l14.2,64.7l47.5,0.8C886,125.6,873.1,97,850.8,93.3L850.8,93.3z"/>
	<line class="st6" x1="734.7" y1="86.6" x2="738.8" y2="272.3"/>
	<line class="st6" x1="577.4" y1="164.9" x2="906.4" y2="161.5"/>
	<polygon class="st6" points="701.8,175.6 700.9,170.8 732,171.4 732,175.4 	"/>
	<polygon class="st6" points="867.7,175.6 868.8,170.5 903.7,171.7 903.7,175.4 	"/>
	<polygon class="st8" points="1149.9,250.1 1148.4,174.5 1139.4,174.2 1127.8,250.5 	"/>
	<path class="st9" d="M820.4,240v6.7h-37.5c-0.1-1.7,0.2-3.3,0.8-4.9c1-2.5,2.5-5.1,4.6-7.6s5.2-5.3,9.1-8.6
		c6.1-5.1,10.3-9.1,12.5-12s3.3-5.8,3.3-8.4c0-2.8-1-5.1-2.9-7c-2-1.8-4.5-2.8-7.7-2.8c-3.4,0-6.1,1-8.1,2.9c-2.1,2.1-3,4.8-3.1,8.4
		l-7.1-0.7c0.5-5.3,2.3-9.4,5.5-12.2c3.3-2.9,7.6-4.2,13-4.2s9.7,1.5,12.9,4.5s4.8,6.8,4.8,11.2c0,2.3-0.5,4.5-1.4,6.7
		c-1,2.2-2.5,4.5-4.7,7c-2.1,2.4-5.7,5.7-10.7,10c-4.1,3.5-6.8,5.9-8,7.1c-1.2,1.3-2.1,2.5-2.9,3.8h27.6L820.4,240L820.4,240z
		 M838.7,215.9c-2.9-1.1-5-2.6-6.4-4.5c-1.4-2-2.1-4.4-2.1-7.1c0-4.1,1.5-7.6,4.5-10.4s6.9-4.2,11.9-4.2c4.9,0,8.9,1.4,11.9,4.3
		c3,2.9,4.5,6.4,4.5,10.5c0,2.6-0.7,4.9-2.1,6.9c-1.4,1.9-3.5,3.4-6.3,4.5c3.5,1.1,6.1,2.9,8,5.5c1.7,2.5,2.7,5.5,2.7,9.1
		c0,4.9-1.7,8.9-5.2,12.2c-3.4,3.3-8,5-13.5,5s-10.1-1.7-13.5-5s-5.2-7.5-5.2-12.4c0-3.7,1-6.8,2.9-9.2
		C832.5,218.5,835.2,216.8,838.7,215.9L838.7,215.9z M837.3,204.1c0,2.7,0.9,4.9,2.5,6.6c1.7,1.7,4,2.5,6.8,2.5
		c2.7,0,4.9-0.9,6.6-2.5c1.7-1.7,2.5-3.7,2.5-6.2c0-2.6-0.9-4.8-2.6-6.5c-1.8-1.7-4-2.5-6.6-2.5c-2.7,0-4.9,0.8-6.6,2.5
		C838.2,199.6,837.3,201.7,837.3,204.1L837.3,204.1z M835,230.3c0,2,0.5,3.9,1.4,5.7c1,1.9,2.4,3.3,4.2,4.4c1.9,1,3.9,1.5,6,1.5
		c3.3,0,6-1.1,8.3-3.2c2.1-2.1,3.2-4.9,3.2-8.2s-1.1-6.1-3.3-8.4c-2.2-2.1-5-3.3-8.4-3.3s-6,1-8.2,3.3
		C836,224.4,835,227.1,835,230.3L835,230.3z"/>
	<path class="st10" d="M528,217.8l5.4,1.3c-1.1,4.1-3.1,7.1-6,9.1c-2.9,2.1-6.5,3.2-10.7,3.2c-4.4,0-8-0.8-10.7-2.4
		c-2.8-1.7-4.9-4-6.3-7.1s-2.2-6.4-2.2-9.9c0-3.9,0.8-7.2,2.4-10.1c1.6-2.9,3.9-5,6.9-6.5c2.9-1.5,6.2-2.2,9.8-2.2
		c4.1,0,7.5,1,10.3,2.9c2.8,1.8,4.8,4.5,5.8,7.9l-5.2,1.2c-1-2.7-2.3-4.7-4.1-5.9c-1.8-1.3-4.1-1.8-6.8-1.8c-3.1,0-5.7,0.6-7.8,2
		c-2.1,1.4-3.6,3.2-4.4,5.5c-0.9,2.3-1.3,4.7-1.3,7.1c0,3.2,0.6,5.9,1.6,8.3c1,2.3,2.5,4.1,4.7,5.2c2.1,1.1,4.4,1.7,6.8,1.7
		c3,0,5.6-0.8,7.6-2.4C525.8,223.3,527.3,221,528,217.8L528,217.8z M537.6,230.8l15.4-36.9h6l16.7,36.9h-6.1l-4.8-11.1h-17.1
		l-4.4,11.1L537.6,230.8L537.6,230.8z M549.2,215.7h13.9l-4.3-10.3c-1.3-3.1-2.3-5.7-2.9-7.7c-0.6,2.4-1.3,4.8-2.2,7.1L549.2,215.7z
		 M582.1,230.8l-0.2-36.9H600c3.6,0,6.4,0.3,8.3,1c1.8,0.7,3.3,1.8,4.5,3.6c1.1,1.7,1.7,3.5,1.7,5.6c0,2.6-1,4.8-2.8,6.6
		s-4.7,2.9-8.6,3.4c1.4,0.6,2.5,1.3,3.3,1.8c1.5,1.4,3,2.9,4.5,4.9l7.1,10h-6.8l-5.4-7.6c-1.6-2.2-2.9-4-3.9-5.1
		c-1-1.2-1.9-2-2.7-2.5s-1.7-0.8-2.5-1c-0.6-0.1-1.6-0.2-3-0.2h-6.2l0.1,16.4L582.1,230.8L582.1,230.8z M587.4,210.2h11.5
		c2.5,0,4.4-0.2,5.7-0.7c1.4-0.5,2.5-1.2,3.2-2.2s1-2.1,1-3.3c0-1.7-0.7-3.2-2.1-4.4c-1.4-1.1-3.7-1.7-6.6-1.7h-12.9L587.4,210.2z
		 M620.5,230.8l15.4-36.9h6l16.7,36.9h-6.1l-4.8-11.1h-17.1l-4.4,11.1L620.5,230.8L620.5,230.8z M632.2,215.7H646l-4.3-10.3
		c-1.3-3.1-2.3-5.7-2.9-7.7c-0.6,2.4-1.3,4.8-2.2,7.1L632.2,215.7z M693.7,217.8l5.4,1.3c-1.1,4.1-3.1,7.1-6,9.1
		c-2.9,2.1-6.5,3.2-10.7,3.2c-4.4,0-7.9-0.8-10.7-2.4c-2.8-1.7-4.9-4-6.3-7.1c-1.4-3.1-2.1-6.4-2.2-9.9c0-3.9,0.8-7.2,2.4-10.1
		c1.7-2.9,3.9-5,6.9-6.5c2.9-1.5,6.2-2.2,9.8-2.2c4.1,0,7.6,1,10.3,2.9c2.8,1.8,4.8,4.5,5.9,7.9l-5.3,1.2c-1-2.7-2.3-4.7-4.1-5.9
		c-1.7-1.3-4-1.8-6.8-1.8c-3.1,0-5.7,0.6-7.8,2s-3.5,3.2-4.4,5.5s-1.3,4.7-1.3,7.1c0.1,3.2,0.6,5.9,1.6,8.3c1,2.3,2.5,4.1,4.7,5.2
		c2.1,1.1,4.4,1.7,6.8,1.7c3,0,5.6-0.8,7.6-2.4C691.6,223.3,693,221,693.7,217.8L693.7,217.8z M734.3,193.9h5.4l0.1,21.3
		c0,3.7-0.4,6.7-1.4,8.8c-0.9,2.2-2.5,4-4.9,5.3c-2.4,1.4-5.6,2.1-9.5,2.1c-3.8,0-6.9-0.6-9.4-1.7c-2.4-1.2-4.1-2.9-5.2-5.2
		c-1-2.3-1.6-5.4-1.6-9.3l-0.1-21.3h5.4l0.1,21.3c0,3.2,0.3,5.6,1,7.1c0.6,1.5,1.8,2.7,3.3,3.6c1.6,0.8,3.6,1.2,5.9,1.2
		c3.9,0,6.7-0.8,8.4-2.5c1.7-1.6,2.5-4.8,2.5-9.4V193.9z"/>
	<path class="st10" d="M351.9,236.2l1-5.7c-1.4-0.2-2.6-0.1-3.7,0.3c-1.1,0.3-2.1,1-3.1,1.9c-0.9,1-1.7,2.2-2.5,3.9
		c-1,2.1-1.5,3.9-1.6,5.4c-0.1,1.6,0.2,3.1,1.1,4.6c0.8,1.5,2.1,2.7,4.1,3.6c2.5,1.2,4.9,1.3,7.1,0.2c2.1-1,3.9-3.1,5.3-6.1
		c1.1-2.5,1.5-4.5,1.4-6.2c-0.2-1.7-1-3.3-2.3-4.8l-3.3,4.8c0.4,0.4,0.6,0.7,0.8,1c0.2,0.5,0.3,1,0.2,1.6c0,0.6-0.2,1.1-0.4,1.7
		c-0.6,1.4-1.5,2.1-2.7,2.5c-0.9,0.2-2.1,0-3.4-0.6c-1.7-0.8-2.8-1.6-3.2-2.5c-0.3-1-0.2-2,0.3-3.2c0.5-1.1,1.1-1.8,1.9-2.1
		C349.9,236.1,350.8,236,351.9,236.2L351.9,236.2z M364.2,234.5l3.7-5.2l-14-10.1l-3.7,5.3L364.2,234.5z M369.4,226.7l8.5-8.6
		c1.4-1.4,2.2-2.8,2.5-4.1c0.2-1.4-0.2-2.5-1-3.3c-0.7-0.8-1.6-1.1-2.7-1.1c-0.7,0.1-1.5,0.3-2.4,0.8c0.9-1.3,1.3-2.4,1.3-3.4
		s-0.4-1.9-1.2-2.7c-0.6-0.6-1.4-1-2.2-1.1c-0.9-0.2-1.7-0.1-2.7,0.2c-0.6,0.2-1.3,0.6-2.1,1.4c-1.2,0.9-1.9,1.5-2.2,1.8l-7.9,7.9
		L369.4,226.7z M369.2,217.3l2-2c0.7-0.7,1.3-1.1,1.7-1.2c0.5-0.1,1,0.1,1.3,0.5c0.4,0.3,0.6,0.7,0.5,1.2s-0.5,1.1-1.2,1.7l-2,2.1
		L369.2,217.3z M364.4,212.5l2.3-2.4c0.8-0.8,1.4-1.2,2-1.3s1,0,1.4,0.4c0.3,0.4,0.5,0.8,0.4,1.4c-0.2,0.6-0.6,1.2-1.4,2l-2.3,2.4
		L364.4,212.5z M384.2,213.5l5.5-3.4l-9-14.6l-5.6,3.3L384.2,213.5z M391.3,208.9l16.3-5.6l-1.2-3.5l-10.2,3.6l-0.9-2.6l9.4-3.3
		l-1.1-3.3l-9.5,3.3l-1.1-3.2l10.5-3.7l-1.3-3.7l-16.6,5.8L391.3,208.9z"/>
	<path class="st10" d="M326.6,181.8l9.1-0.6l0.2,2.5l-5.4,0.4l0.1,2.1l4.7-0.3l0.2,2.4l-4.7,0.3l0.4,4.9l-3.7,0.3L326.6,181.8z
		 M344.7,190.5l-4.2,0.2l-0.5,2.1l-3.7,0.2l3.7-12.2l4.1-0.2l5.2,11.6l-3.8,0.2L344.7,190.5z M343.7,188l-1.6-4.2l-1,4.4L343.7,188z
		 M351.1,192.1l-0.8-11.9l6.1-0.4c1.1-0.1,2-0.1,2.6,0.1c0.6,0.2,1.1,0.6,1.5,1c0.4,0.5,0.6,1.1,0.7,1.9c0.1,0.6-0.1,1.2-0.3,1.7
		c-0.2,0.5-0.6,0.9-1.1,1.2c-0.2,0.2-0.7,0.4-1.2,0.6c0.4,0.2,0.7,0.2,1,0.4c0.2,0.1,0.3,0.3,0.6,0.6c0.2,0.2,0.5,0.5,0.6,0.6
		l2.1,3.3l-4.2,0.3l-2.2-3.5c-0.2-0.5-0.5-0.8-0.7-0.9c-0.2-0.2-0.6-0.2-0.9-0.2h-0.4l0.4,4.9L351.1,192.1z M354.2,184.7l1.6-0.1
		c0.2,0,0.5-0.1,1-0.2c0.2-0.1,0.5-0.2,0.6-0.4c0.2-0.2,0.2-0.5,0.2-0.7c-0.1-0.4-0.2-0.7-0.5-0.9c-0.2-0.2-0.7-0.3-1.4-0.2
		l-1.7,0.1L354.2,184.7z M363.4,185.2c-0.2-1.9,0.3-3.5,1.4-4.6c1-1.2,2.5-1.8,4.4-1.9c2-0.2,3.6,0.2,4.7,1.3c1.2,1,1.8,2.4,1.9,4.4
		c0.2,1.4,0,2.5-0.4,3.4c-0.5,1-1,1.7-1.9,2.2c-0.9,0.6-2,0.9-3.3,1c-1.4,0.2-2.5,0-3.4-0.4c-0.9-0.3-1.7-1-2.3-1.9
		C363.9,187.8,363.5,186.6,363.4,185.2L363.4,185.2z M367.1,185c0.1,1.2,0.4,2.1,0.9,2.5c0.5,0.6,1.1,0.7,1.9,0.7
		c0.8-0.1,1.4-0.4,1.7-1c0.4-0.5,0.6-1.4,0.5-2.8c-0.1-1.1-0.3-1.9-0.9-2.4c-0.5-0.5-1.1-0.7-1.8-0.7c-0.8,0.1-1.4,0.4-1.7,1
		C367.1,182.9,367,183.8,367.1,185L367.1,185z M378.1,178.2l3.7-0.2l0.8,11.9l-3.7,0.2L378.1,178.2z M384.9,185.8l3.5-0.4
		c0.2,0.6,0.3,1,0.6,1.2c0.4,0.5,1,0.7,1.7,0.6c0.6,0,1-0.2,1.2-0.5c0.3-0.2,0.4-0.6,0.4-0.9c0-0.3-0.2-0.6-0.5-0.8
		c-0.2-0.2-1-0.4-1.9-0.6c-1.7-0.2-2.9-0.6-3.6-1.2s-1.1-1.3-1.2-2.2c0-0.6,0.1-1.2,0.4-1.7c0.3-0.6,0.9-1,1.5-1.4
		c0.7-0.3,1.7-0.6,2.9-0.6c1.5-0.2,2.7,0.1,3.5,0.6c0.9,0.6,1.4,1.4,1.7,2.6l-3.5,0.5c-0.1-0.6-0.3-1-0.6-1.2
		c-0.3-0.2-0.7-0.3-1.3-0.2c-0.4,0-0.7,0.2-1,0.3c-0.2,0.2-0.2,0.4-0.2,0.7c0,0.2,0.1,0.3,0.3,0.5c0.2,0.2,0.6,0.2,1.2,0.3
		c1.7,0.2,2.9,0.6,3.6,0.9c0.7,0.3,1.3,0.7,1.6,1.2c0.3,0.5,0.6,1.1,0.6,1.7c0.1,0.7-0.1,1.4-0.5,2.1c-0.3,0.6-0.9,1.2-1.7,1.6
		c-0.7,0.4-1.7,0.6-2.8,0.7c-2.1,0.1-3.5-0.2-4.3-0.9C385.6,187.9,385.1,187,384.9,185.8L384.9,185.8z"/>
</g>
</svg>
