<?xml version="1.0" encoding="utf-8"?>
<!-- Generator: Adobe Illustrator 22.1.0, SVG Export Plug-In . SVG Version: 6.00 Build 0)  -->
<svg version="1.1" id="Camada_1" xmlns="http://www.w3.org/2000/svg" xmlns:xlink="http://www.w3.org/1999/xlink" x="0px" y="0px"
	 viewBox="0 0 300 300" style="enable-background:new 0 0 300 300;" xml:space="preserve">
<style type="text/css">
	.st0{fill:#F2F2F2;}
</style>
<path class="st0" d="M269.8,44.5c-39.8,0-79.7,0-119.5,0c-40.2,0-80.5,0-120.7,0C10.8,44.6,0,55.2,0,73.8c0,50.8,0,101.6,0,152.3
	c0,18.7,10.8,29.3,29.6,29.3c80.3,0,160.5,0,240.8,0c19,0,29.6-10.7,29.6-29.9c0-50.4,0-100.8,0-151.2C300,55,289.4,44.5,269.8,44.5
	z M32,62.4c78.7,0,157.4,0,237,0c-1.8,1.9-3,3.4-4.3,4.7c-34.9,35-69.7,70-104.6,105c-7.8,7.8-12.3,7.8-20.1,0
	c-34.9-35-69.7-70-104.6-104.9c-1.2-1.2-2.7-2.3-4-3.4C31.5,63.3,31.7,62.8,32,62.4z M18,223c0-48.1,0-97.6,0-146.9
	c24.8,24.6,49.6,49.1,74.1,73.4C67.3,174.2,42.5,198.8,18,223z M30.9,237.6c25.5-25.2,50.1-49.6,75.5-74.6
	c7.4,7.5,15.3,15.5,23.2,23.4c7.4,7.5,16.5,10.9,26.7,7.9c5.2-1.5,10.3-4.7,14.4-8.3c8.1-7.3,15.5-15.4,22.6-22.5
	c25,24.8,49.8,49.4,74.7,74C189.4,237.6,110.7,237.6,30.9,237.6z M281.9,224c-24.8-24.6-49.6-49.1-74.1-73.4
	c24.9-24.7,49.8-49.3,74.1-73.4C281.9,125.2,281.9,174.8,281.9,224z"/>
</svg>
