<?xml version="1.0" encoding="utf-8"?>
<!-- Generator: Adobe Illustrator 22.1.0, SVG Export Plug-In . SVG Version: 6.00 Build 0)  -->
<svg version="1.1" id="Camada_1" xmlns="http://www.w3.org/2000/svg" xmlns:xlink="http://www.w3.org/1999/xlink" x="0px" y="0px"
	 viewBox="0 0 1000 350.1" style="enable-background:new 0 0 1000 350.1;" xml:space="preserve">
<style type="text/css">
	.st0{fill:none;}
	.st1{fill:#39B54A;}
	.st2{fill:#F15A24;}
	.st3{fill:#FF0000;}
	.st4{fill:#FFFF00;}
	.st5{fill:#FF1D25;}
	.st6{fill:none;stroke:#FF0000;stroke-miterlimit:10;}
	.st7{fill:url(#SVGID_1_);}
	.st8{fill:#808080;}
	.st9{fill:#666666;}
	.st10{fill:#333333;}
	.st11{fill:#B22D24;}
	.st12{fill:#8C2A10;}
	.st13{fill:#C1451F;}
	.st14{fill:#E5422C;}
	.st15{fill:#FA8231;}
	.st16{fill:#2980B9;}
	.st17{fill:#182C61;}
	.st18{fill:#AE3A17;}
	.st19{fill:#CF4A1D;}
	.st20{font-family:'Calibri';}
	.st21{font-size:45.4026px;}
	.st22{enable-background:new    ;}
</style>
<path id="SVGID_x5F_1_x5F_" class="st0" d="M-582,178.6c0-164-133-297-297-297s-297,133-297,297s133,297,297,297
	S-582,342.6-582,178.6z"/>
<text transform="matrix(1 0 0 1 0 -321.3861)" style="font-family:'ArialMT'; font-size:12px;"> </text>
<circle cx="1566" cy="-298.4" r="183"/>
<circle cx="1554" cy="-265.4" r="183"/>
<ellipse cx="1707" cy="168.6" rx="155" ry="183"/>
<ellipse cx="1700" cy="188.6" rx="155" ry="183"/>
<path d="M969.5-902.2c0-9.5,7.7-17.3,17.3-17.3c2.4,0,4.2,0.1,6.3,1c-29.2-19.8-64-31-102-31c-85.3,0-156.9,58.3-177.2,137.3
	c29.3-61.6,92.2-104.2,165.1-104.2c34.3,0,66.4,9.4,93.8,25.9C974.1-889.8,969.5-896.4,969.5-902.2z"/>
<path d="M995.2-916.3c-1.7-1.8-3.7-3.2-6-4.2c-2.1-0.9-4.3-1.4-6.7-1.4c-9.5,0-17.3,7.7-17.3,17.2c0,5.7,2.8,10.8,7.2,13.9
	c0.6,0.4,1.2,0.8,1.9,1.2c2.4,1.3,5.2,2.1,8.2,2.1c9.5,0,17.3-7.7,17.3-17.2C999.8-909.2,998.1-913.3,995.2-916.3z"/>
<g>
	<path d="M652.5-932.2c0-9.5,7.7-17.3,17.3-17.3c2.4,0,4.7,0.5,6.7,1.4c-29.3-19.7-64.5-31.3-102.5-31.3
		c-85.3,0-156.9,58.3-177.2,137.3c29.4-61.7,92.3-104.3,165.2-104.3c35.9,0,69.4,10.4,97.7,28.2
		C655.3-921.3,652.5-926.4,652.5-932.2z"/>
	<path d="M661.5-917c-0.6-0.4-1.2-0.8-1.9-1.2C660.3-917.7,660.9-917.3,661.5-917z"/>
	<path d="M676.5-948c2,1.4,4,2.8,6,4.2C680.8-945.6,678.7-947.1,676.5-948z"/>
	<path d="M687-932.2c0-4.5-1.7-8.6-4.6-11.7c-2-1.4-3.9-2.9-6-4.2c-2.1-0.9-4.3-1.4-6.7-1.4c-9.5,0-17.3,7.7-17.3,17.3
		c0,5.8,2.8,10.8,7.2,14c0.6,0.4,1.2,0.8,1.9,1.2c2.4,1.3,5.2,2.1,8.2,2.1C679.3-914.9,687-922.6,687-932.2z"/>
</g>
<g>
	<path d="M165-1056.4c101.1,0,183,81.9,183,183c0,15.8-2,31.1-5.8,45.7c11.4-23.8,17.8-50.5,17.8-78.7c0-101.1-81.9-183-183-183
		c-85.3,0-156.9,58.3-177.2,137.3C29.2-1013.8,92.1-1056.4,165-1056.4z"/>
</g>
<circle cx="273" cy="-1042.4" r="17"/>
<g>
	<path class="st0" d="M1729.5-622.8c-4-4-8.7-7.4-13.8-10c-7.1-3.6-15.2-5.6-23.8-5.6c-29.3,0-53,23.7-53,53s23.7,53,53,53
		c20.9,0,39-12.1,47.6-29.7c3.4-7,5.4-14.9,5.4-23.3c0-1.8-0.1-3.5-0.3-5.3c-0.2-1.9-0.5-3.7-0.9-5.6c-1.5-7.3-4.5-14.1-8.7-19.9
		C1733.5-618.5,1731.6-620.8,1729.5-622.8z"/>
	<path class="st1" d="M1692-532.4c-29.3,0-53-23.7-53-53s23.7-53,53-53c8.5,0,16.6,2,23.8,5.6c5.1,2.6,9.8,5.9,13.8,10
		c2,2.1,3.9,4.3,5.6,6.6c4.2,5.9,7.2,12.6,8.7,19.9c3.5,0.4,7,0.9,10.4,1.5c-1.4-9.2-4.7-17.7-9.6-25.1c-2-3.1-4.3-6-6.9-8.7
		c-4.3-4.6-9.3-8.5-14.8-11.6c-9.2-5.2-19.8-8.2-31.1-8.2c-34.8,0-63,28.2-63,63s28.2,63,63,63c25.9,0,48.1-15.6,57.8-37.9
		c-3.3-0.7-6.7-1.3-10.1-1.9C1731-544.5,1712.9-532.4,1692-532.4z"/>
	<path class="st1" d="M1754.5-593.1c-0.1-0.6-0.2-1.1-0.3-1.7c-3.4-0.6-6.9-1.1-10.4-1.5c0.4,1.8,0.7,3.7,0.9,5.6
		c0.2,1.7,0.3,3.5,0.3,5.3c0,8.3-1.9,16.2-5.4,23.3c3.4,0.5,6.8,1.2,10.1,1.9c3.4-7.7,5.2-16.2,5.2-25.1
		C1755-588,1754.8-590.6,1754.5-593.1z"/>
</g>
<g>
	<path class="st2" d="M428.7-642.9c5.2,7.9,8.6,17,9.8,26.8c12.7-2.8,25.9-4.3,39.5-4.3c9.7,0,19.3,0.8,28.6,2.3
		c3.4-7,5.4-14.9,5.4-23.3c0-1.8-0.1-3.5-0.3-5.3c-0.2-1.9-0.5-3.7-0.9-5.6c-6.8-0.8-13.8-1.2-20.9-1.2
		C468.5-653.4,447.9-649.7,428.7-642.9z"/>
	<path class="st3" d="M594.2-620.3c-0.7-0.8-1.5-1.5-2.4-2.1c0,0,0.1,0,0.1,0.1c-0.1-0.1-0.3-0.2-0.4-0.3c-0.1-0.1-0.2-0.2-0.4-0.2
		c-20.8-13.9-44.4-23.5-69.9-27.9c0.1,0.6,0.2,1.1,0.3,1.7c0.3,2.5,0.5,5.1,0.5,7.7c0,8.9-1.9,17.4-5.2,25.1
		c19.7,4.2,38.1,11.6,54.9,21.6c0.5,0.4,1.1,0.7,1.7,1.1c2.4,1.3,5.2,2.1,8.2,2.1c9.5,0,17.3-7.7,17.3-17.2
		C598.8-613.2,597.1-617.3,594.2-620.3z"/>
	<path class="st4" d="M377.9-590.6c15.5-10.1,32.6-18,50.9-23.1c-0.9-9.4-4.4-18.2-9.6-25.5c-21,8.8-40,21.4-56.1,37
		C368.6-599.1,373.5-595.2,377.9-590.6z"/>
	<path class="st1" d="M369.5-584.8c-4-4-8.7-7.4-13.8-10c-20.3,21.9-35.3,48.8-43,78.6C325.8-543.4,345.4-567,369.5-584.8z"/>
</g>
<g>
	<path class="st2" d="M1545.6-909.9c5.1,19.6,6.5,41.1,3.4,63.2c24.6-0.5,49.4,2.2,74,8.2c17.7,4.3,34.6,10.3,50.8,17.7
		c10-13.9,17.8-30.4,22.3-48.7c1-3.9,1.7-7.8,2.4-11.7c0.7-4.2,1.2-8.4,1.4-12.6c-12-4.7-24.5-8.7-37.3-11.8
		C1623.6-915.3,1584.1-916.4,1545.6-909.9z"/>
	<path class="st5" d="M1834.1-786.5c-0.9-2-2-3.9-3.2-5.7c0.1,0.1,0.2,0.1,0.2,0.2c-0.2-0.3-0.4-0.6-0.7-0.9
		c-0.2-0.2-0.4-0.5-0.5-0.7c-30.3-39.9-68-71.5-112-92.4c-0.1,1.3-0.3,2.5-0.4,3.8c-0.8,5.7-1.9,11.4-3.3,17.2
		c-4.8,19.7-12.8,37.5-23.1,52.9c33.4,18.1,63,42.6,88,72c0.8,1.1,1.6,2.1,2.5,3.1c3.7,4,8.4,6.9,13.8,8.2
		c17.3,4.3,35.5-9.2,40.6-30.1C1838.5-768.8,1837.6-778.5,1834.1-786.5z"/>
	<path class="st4" d="M1425-817.7c33.6-15.4,69-25,104.9-28.1c3.4-21.2,1.9-41.9-3.7-60.3c-42.8,10-84.1,29.2-121.8,56.2
		C1412.7-840.5,1419.6-829.6,1425-817.7z"/>
	<path class="st1" d="M1406.8-808.7c-5.1-10.6-11.7-20.1-19.7-28.1c-48.7,39.1-90.5,91.5-120.6,153.7
		C1305-737.3,1353.3-780.3,1406.8-808.7z"/>
</g>
<polygon class="st3" points="2117,550.6 2017,556.6 2117,563.6 "/>
<polygon class="st3" points="2112.5,561.1 2063,491.6 2123.3,554.2 "/>
<polygon class="st3" points="2111,560.6 2117,475.6 2124,556.6 "/>
<polyline class="st3" points="2111.7,550.9 2200,500.6 2120.4,562.9 "/>
<polygon class="st3" points="2199,303.6 2181,418.6 2303,414.6 2202,402.6 "/>
<polygon class="st3" points="2039.5,461.1 2124.5,461.1 2124.5,371.1 2111.5,447.1 "/>
<rect x="2428" y="196.6" class="st6" width="149" height="149"/>
<polygon class="st6" points="2427.5,196.1 2427.5,345.1 2576.5,345.1 2450.8,322.4 "/>
<g>
	<path class="st2" d="M857.7-637.9c5.2,7.9,8.6,17,9.8,26.8c12.7-2.8,25.9-4.3,39.5-4.3c9.7,0,19.3,0.8,28.6,2.3
		c3.4-7,5.4-14.9,5.4-23.3c0-1.8-0.1-3.5-0.3-5.3c-0.2-1.9-0.5-3.7-0.9-5.6c-6.8-0.8-13.8-1.2-20.9-1.2
		C897.5-648.4,876.9-644.7,857.7-637.9z"/>
	<path class="st3" d="M1023.2-615.3c-0.7-0.8-1.5-1.5-2.4-2.1c0,0,0.1,0,0.1,0.1c-0.1-0.1-0.3-0.2-0.4-0.3c-0.1-0.1-0.2-0.2-0.4-0.2
		c-20.8-13.9-44.4-23.5-69.9-27.9c0.1,0.6,0.2,1.1,0.3,1.7c0.3,2.5,0.5,5.1,0.5,7.7c0,8.9-1.9,17.4-5.2,25.1
		c19.7,4.2,38.1,11.6,54.9,21.6c0.5,0.4,1.1,0.7,1.7,1.1c2.4,1.3,5.2,2.1,8.2,2.1c9.5,0,17.3-7.7,17.3-17.2
		C1027.8-608.2,1026.1-612.3,1023.2-615.3z"/>
	<path class="st4" d="M806.9-585.6c15.5-10.1,32.6-18,50.9-23.1c-0.9-9.4-4.4-18.2-9.6-25.5c-21,8.8-40,21.4-56.1,37
		C797.6-594.1,802.5-590.2,806.9-585.6z"/>
	<path class="st1" d="M798.5-579.8c-4-4-8.7-7.4-13.8-10c-20.3,21.9-35.3,48.8-43,78.6C754.8-538.4,774.4-562,798.5-579.8z"/>
	<path class="st3" d="M807-509.7h87.7c5.4,0,9.7-4.4,9.7-9.7v-87.7l-14.9,82.2L807-509.7z"/>
	<path class="st3" d="M837.5-586l55,74.4c1.6,2.2,4.7,2.6,6.9,1l74.4-55l-74.9,36.9L837.5-586z"/>
	<circle cx="894.5" cy="-522.9" r="13.5"/>
</g>
<text transform="matrix(1 0 0 1 -1947 51.6138)" style="font-family:'DeconditionedReflex'; font-size:72px;">LAURO LUSTOSA VIEIRA</text>
<path class="st1" d="M393.2-1249.4c0.6,1.2,1,2.2,1.3,3s0.4,1.6,0.5,2.3c0,0.7-0.1,1.3-0.3,1.7c-0.2,0.5-0.6,0.8-1.2,1.1l-34.5,17.6
	c-1.3,0.7-2.8,0.9-4.5,0.6s-3.1-1.6-4.2-3.9l-53.5-104.9c-0.2-0.5-0.3-0.9-0.3-1.4c0.1-0.5,0.3-1,0.8-1.5s1.2-1.1,2.1-1.7
	c0.9-0.7,2.1-1.3,3.5-2c1.5-0.7,2.7-1.3,3.7-1.6c1-0.3,1.9-0.6,2.6-0.7s1.2,0,1.6,0.2s0.7,0.6,1,1l50,98l25-12.7
	c0.5-0.3,1-0.4,1.6-0.3c0.5,0.1,1,0.3,1.5,0.6c0.5,0.4,1,0.9,1.6,1.7C392-1251.6,392.6-1250.6,393.2-1249.4z"/>
<path class="st2" d="M457.5-1233.7c-0.1,1.3-0.3,2.4-0.5,3.3s-0.5,1.6-0.8,2.2s-0.7,1-1.2,1.3s-1,0.4-1.6,0.3l-38.5-3.5
	c-1.5-0.1-2.9-0.8-4.1-1.9s-1.8-3-1.5-5.5l10.5-117.3c0-0.5,0.2-1,0.5-1.3c0.3-0.4,0.8-0.6,1.5-0.8c0.7-0.2,1.6-0.3,2.7-0.3
	c1.1-0.1,2.5,0,4,0.1c1.6,0.1,3,0.4,4,0.6c1.1,0.3,1.9,0.5,2.5,0.8s1.1,0.6,1.3,1.1c0.2,0.4,0.3,0.9,0.3,1.4l-9.9,109.5l27.9,2.5
	c0.6,0.1,1.1,0.2,1.5,0.6c0.4,0.3,0.7,0.8,1,1.4c0.2,0.6,0.4,1.3,0.4,2.3C457.7-1236.1,457.7-1235,457.5-1233.7z"/>
<path class="st5" d="M500.1-1215.7c-0.7,0.4-1.4,0.7-2,0.8c-0.7,0.1-1.4,0-2.3-0.3s-1.8-0.8-3-1.6c-1.1-0.7-2.5-1.7-4.1-2.9
	c-1.2-0.9-2.2-1.8-3.1-2.5s-1.6-1.4-2.2-2s-1-1.2-1.4-1.7s-0.6-1-0.8-1.5c-0.2-0.5-0.2-0.9-0.2-1.4c0-0.4,0.1-1,0.3-1.5l41.3-125.6
	c0.5-1.5,1-2.7,1.5-3.5s1.2-1.1,2-1.1s1.8,0.4,3,1.1s2.7,1.8,4.6,3.3c1.5,1.2,2.7,2.2,3.6,2.9c0.8,0.8,1.4,1.5,1.7,2.1
	s0.5,1.2,0.4,1.7c0,0.5-0.1,1.2-0.3,1.9l-38.4,113l0.1,0.1l98.5-66.5c0.6-0.5,1.2-0.8,1.7-1s1.1-0.2,1.8,0s1.6,0.6,2.7,1.3
	c1,0.7,2.4,1.6,4,2.9c1.7,1.3,3,2.4,3.9,3.3s1.4,1.7,1.4,2.3c0.1,0.7-0.2,1.3-0.9,2s-1.7,1.4-3,2.3L500.1-1215.7z"/>
<g>
	<text transform="matrix(1 0 0 1 170.3887 -490.9633)" class="st20" style="font-size:114.5012px;">llV</text>
</g>
<path d="M222.8-1130.5c-0.3,0.9-0.8,1.7-1.4,2.3c-0.6,0.6-1.4,1.1-2.5,1.4s-2.4,0.6-4.1,0.7c-1.7,0.1-3.8,0.2-6.2,0.2
	c-1.9,0-3.5,0-5-0.1c-1.4,0-2.6-0.2-3.7-0.3c-1-0.2-1.9-0.4-2.6-0.6c-0.7-0.2-1.4-0.5-1.9-0.8s-0.9-0.7-1.2-1.2s-0.6-1-0.8-1.7
	L139-1285.3c-0.7-1.9-1.1-3.4-1.1-4.6s0.3-2,1.1-2.6s2-1,3.7-1.2s4-0.3,7-0.3c2.4,0,4.3,0.1,5.7,0.2s2.5,0.4,3.3,0.7
	c0.8,0.3,1.4,0.8,1.7,1.4c0.4,0.6,0.8,1.3,1.1,2.1l47.7,140.2h0.1l46.5-139.9c0.3-0.9,0.6-1.7,0.9-2.3c0.3-0.6,0.9-1.1,1.8-1.4
	s2.1-0.6,3.6-0.7s3.6-0.2,6.2-0.2c2.7,0,4.8,0.1,6.3,0.3c1.5,0.2,2.6,0.6,3.2,1.2s0.8,1.5,0.6,2.6c-0.1,1.2-0.5,2.7-1.2,4.6
	L222.8-1130.5z"/>
<g>
	<path d="M199.1-1154.9L95.3-1260.5c-0.7-0.6-1.3-1.1-1.9-1.4s-1.3-0.5-2.2-0.5c-0.8,0-1.9,0.3-3.3,0.8c-1.3,0.5-3.1,1.3-5.2,2.3
		c-2.6,1.3-4.7,2.3-6.2,3.2s-2.4,1.8-2.9,2.7c-0.4,0.9-0.4,1.8,0.2,2.9c0.5,1,1.5,2.2,3,3.6L193-1131.1c0.5,0.5,1,0.9,1.5,1.2
		c0.5,0.3,1,0.5,1.6,0.6s1.3,0.1,2-0.1c0.7-0.1,1.6-0.3,2.6-0.6c1-0.3,2.1-0.7,3.4-1.3c1.3-0.6,2.7-1.3,4.4-2.1L199.1-1154.9
		L199.1-1154.9z"/>
</g>
<g>
	<path d="M193.5-1150.9l-134.9-61c-0.9-0.3-1.6-0.6-2.3-0.7s-1.4,0-2.2,0.3s-1.7,1-2.8,1.9s-2.4,2.3-4.1,4c-2,2.1-3.5,3.9-4.6,5.2
		c-1,1.4-1.6,2.5-1.7,3.5c-0.1,1,0.3,1.8,1.2,2.6c0.9,0.8,2.2,1.5,4.1,2.3l150.1,66.1c0.7,0.3,1.3,0.5,1.8,0.6s1.1,0.1,1.7-0.1
		c0.6-0.1,1.2-0.4,1.9-0.8s1.4-0.9,2.2-1.5s1.7-1.5,2.7-2.5s2.1-2.2,3.4-3.5L193.5-1150.9L193.5-1150.9z"/>
</g>
<path d="M938.5-1162.4c0.3,0.3,0.5,0.7,0.6,1.1s0,0.9-0.3,1.4c-0.2,0.5-0.6,1.2-1.2,1.9c-0.6,0.7-1.4,1.6-2.5,2.6
	c-1,1-1.9,1.8-2.7,2.3c-0.8,0.6-1.4,1-2,1.2s-1,0.3-1.4,0.2s-0.7-0.3-1.1-0.7l-81.7-85.7c-0.3-0.3-0.5-0.7-0.6-1.1s0-0.9,0.2-1.4
	c0.2-0.6,0.7-1.2,1.3-1.9c0.6-0.7,1.4-1.6,2.4-2.6c1.1-1,2-1.8,2.8-2.4s1.4-0.9,2-1.1c0.5-0.2,1-0.2,1.4-0.2
	c0.4,0.1,0.8,0.3,1.1,0.7L938.5-1162.4z"/>
<path d="M940.4-1166.7c0.4,0.2,0.7,0.5,0.9,0.8c0.2,0.4,0.3,0.8,0.3,1.4s-0.2,1.3-0.4,2.2c-0.3,0.9-0.7,2-1.4,3.4
	c-0.6,1.3-1.1,2.3-1.7,3.1c-0.5,0.8-1,1.4-1.4,1.8s-0.9,0.6-1.2,0.7c-0.4,0.1-0.8,0-1.2-0.2l-107.4-49.8c-0.4-0.2-0.8-0.5-1-0.8
	s-0.3-0.8-0.3-1.4s0.2-1.4,0.5-2.3s0.7-2,1.3-3.3s1.2-2.4,1.7-3.2c0.5-0.8,1-1.4,1.4-1.8s0.9-0.6,1.3-0.7c0.4-0.1,0.8,0,1.3,0.2
	L940.4-1166.7z"/>
<path d="M944.1-1155.4c-0.2,0.7-0.6,1.2-1,1.6s-1,0.7-1.7,1c-0.7,0.2-1.7,0.4-2.8,0.5c-1.2,0.1-2.6,0.1-4.3,0.1c-1.3,0-2.4,0-3.4,0
	s-1.8-0.1-2.5-0.2s-1.3-0.3-1.8-0.4s-0.9-0.3-1.3-0.6c-0.4-0.2-0.6-0.5-0.8-0.8s-0.4-0.7-0.6-1.2l-37.5-106.5
	c-0.5-1.3-0.7-2.3-0.8-3.1c0-0.8,0.2-1.4,0.8-1.8c0.5-0.4,1.4-0.7,2.6-0.8c1.2-0.1,2.8-0.2,4.8-0.2c1.7,0,3,0,3.9,0.1
	c1,0.1,1.7,0.3,2.3,0.5c0.5,0.2,0.9,0.5,1.2,0.9s0.5,0.9,0.8,1.5l32.9,96.5h0.1l32-96.3c0.2-0.6,0.4-1.2,0.6-1.6
	c0.2-0.4,0.7-0.7,1.2-1c0.6-0.2,1.4-0.4,2.5-0.5s2.5-0.1,4.3-0.1s3.3,0.1,4.3,0.2c1.1,0.1,1.8,0.4,2.2,0.8s0.5,1,0.4,1.8
	s-0.4,1.8-0.8,3.1L944.1-1155.4z"/>
<path d="M779.7-1221.3c1,1.1,1.8,2.1,2.3,3c0.6,0.9,0.9,1.7,1.2,2.4c0.2,0.8,0.3,1.4,0.1,2c-0.1,0.6-0.5,1.1-1,1.5l-25.7,22.5
	c-1.3,1.1-2.9,1.8-4.8,1.9c-1.9,0.1-3.8-0.9-5.8-3.1l-88.6-101c-0.4-0.4-0.6-0.9-0.7-1.5c-0.1-0.5,0.1-1.1,0.5-1.8
	c0.4-0.7,1-1.5,1.8-2.5s1.9-2.1,3.3-3.2c1.4-1.2,2.6-2.2,3.7-2.9c1.1-0.7,1.9-1.2,2.7-1.5c0.7-0.3,1.4-0.4,1.9-0.2
	c0.5,0.2,1,0.4,1.4,0.9l82.8,94.4l16.6-14.5c0.5-0.4,1.1-0.7,1.6-0.8c0.6-0.1,1.2,0,1.9,0.3s1.4,0.7,2.2,1.4
	C777.8-1223.3,778.7-1222.4,779.7-1221.3z"/>
<path d="M776.1-1233.5c1.4,0.5,2.6,1,3.5,1.5s1.6,1,2.2,1.5c0.6,0.6,0.9,1.1,1.1,1.7c0.2,0.6,0.1,1.2-0.1,1.8l-11.4,32.2
	c-0.6,1.6-1.7,3-3.3,4c-1.6,1.1-3.8,1.1-6.5,0.1l-126.7-44.7c-0.6-0.2-1-0.5-1.3-0.9s-0.5-1-0.5-1.8s0.1-1.8,0.4-3.1
	c0.2-1.3,0.7-2.7,1.3-4.4c0.6-1.8,1.2-3.2,1.8-4.3s1.1-2,1.6-2.6s1-1,1.5-1.1s1.1-0.1,1.6,0.1l118.4,41.7l7.3-20.8
	c0.2-0.6,0.6-1.1,1.1-1.5c0.5-0.3,1.1-0.6,1.8-0.7s1.6-0.1,2.6,0.2C773.5-1234.3,774.7-1234,776.1-1233.5z"/>
<path d="M770.8-1191.9c-0.3,0.8-0.7,1.5-1.2,2s-1.3,0.9-2.2,1.2c-0.9,0.3-2.1,0.5-3.6,0.6s-3.3,0.2-5.4,0.2c-1.6,0-3.1,0-4.3-0.1
	c-1.2,0-2.3-0.1-3.2-0.3c-0.9-0.2-1.7-0.3-2.3-0.5s-1.2-0.4-1.6-0.7c-0.4-0.3-0.8-0.7-1.1-1.1s-0.5-0.9-0.7-1.5l-47.4-134.8
	c-0.6-1.6-0.9-3-1-4c0-1,0.3-1.8,1-2.3s1.8-0.9,3.3-1s3.5-0.2,6.1-0.2c2.1,0,3.8,0.1,5,0.2s2.2,0.3,2.9,0.6c0.7,0.3,1.2,0.7,1.5,1.2
	s0.7,1.1,1,1.9l41.3,122.1h0.1l40.5-121.9c0.2-0.8,0.5-1.5,0.8-2s0.8-0.9,1.6-1.2c0.7-0.3,1.8-0.5,3.1-0.6s3.1-0.2,5.4-0.2
	c2.3,0,4.1,0.1,5.5,0.3c1.3,0.2,2.3,0.5,2.7,1.1c0.5,0.5,0.7,1.3,0.6,2.3c-0.1,1-0.5,2.3-1.1,4L770.8-1191.9z"/>
<path d="M168.6-639.2c0.5,0.1,0.8,0.4,1,0.7s0.4,0.8,0.5,1.4c0.1,0.6,0,1.3-0.2,2.3c-0.2,0.9-0.5,2.1-0.9,3.6
	c-0.4,1.4-0.8,2.5-1.2,3.4s-0.8,1.5-1.2,2s-0.8,0.8-1.2,0.9c-0.4,0.1-0.8,0.1-1.2-0.1l-114-35.7c-0.5-0.1-0.8-0.4-1.1-0.7
	s-0.4-0.8-0.5-1.4c-0.1-0.6,0-1.4,0.2-2.3c0.2-0.9,0.5-2.1,0.9-3.5s0.9-2.6,1.3-3.4c0.4-0.9,0.8-1.5,1.2-2c0.4-0.4,0.8-0.7,1.2-0.8
	s0.8-0.1,1.3,0L168.6-639.2z"/>
<path d="M225.5-626.3c0.1,0.5,0.1,0.9-0.1,1.3c-0.2,0.4-0.5,0.7-0.9,1.1c-0.5,0.4-1.2,0.7-2.1,1c-0.9,0.3-2.1,0.7-3.5,1
	s-2.6,0.5-3.5,0.6c-1,0.1-1.7,0.1-2.3,0s-1-0.3-1.3-0.6s-0.5-0.6-0.6-1.1L184-739.3c-0.1-0.5-0.1-0.9,0-1.3c0.1-0.4,0.4-0.8,0.9-1.1
	c0.5-0.4,1.2-0.7,2.1-1c0.9-0.3,2-0.7,3.4-1s2.7-0.6,3.6-0.7c1-0.1,1.7-0.1,2.3,0s1,0.3,1.3,0.6s0.5,0.7,0.6,1.1L225.5-626.3z"/>
<path d="M342.2-630.8c-0.2,0.1-0.4,0.2-0.7,0.3c-0.3,0.1-0.5,0.2-0.8,0.3s-0.6,0.2-1,0.2c-0.4,0.1-0.8,0.2-1.2,0.2l-80.7,9.1
	c-0.7,0.1-1.3,0-1.9-0.1c-0.5-0.2-1.1-0.5-1.7-1.1c-0.6-0.6-1.1-1.4-1.7-2.4c-0.6-1-1.3-2.3-2.1-4s-1.4-3-1.8-4.1
	c-0.4-1.1-0.7-2.1-0.8-2.8c-0.1-0.8-0.1-1.4,0.1-2c0.2-0.6,0.5-1.1,0.9-1.6l56.5-58.3c0.5-0.5,1-1,1.4-1.4s0.7-0.6,1-0.8
	c0.2-0.1,0.4-0.3,0.6-0.3c0.4-0.2,0.9-0.3,1.3-0.2s0.9,0.3,1.3,0.7s0.9,1,1.3,1.8c0.5,0.8,1,1.8,1.6,3c0.8,1.5,1.3,2.8,1.7,3.8
	c0.4,1,0.6,1.8,0.6,2.4c0,0.6,0,1.1-0.3,1.5c-0.2,0.4-0.5,0.8-0.9,1.3l-49.5,49.6l-0.8,0.8l1.1-0.2l69.4-9.1c0.5-0.1,1-0.1,1.5,0
	s0.9,0.4,1.4,0.8c0.5,0.4,1,1,1.5,1.9c0.5,0.8,1.1,2,1.8,3.4c0.6,1.2,1.1,2.3,1.4,3.1s0.5,1.5,0.5,2.1s-0.1,1-0.3,1.3
	C342.9-631.3,342.6-631,342.2-630.8z"/>
<text transform="matrix(1 0 0 1 -1743.7461 351.5161)" style="font-family:'BerlinSansFB-Reg'; font-size:56.0543px;">Decalques Criativos</text>
<text transform="matrix(1 0 0 1 -1795.4482 264.8642)" class="st20" style="font-size:53.4919px;">LAURO LUSTOSA VIEIRA</text>
<linearGradient id="SVGID_1_" gradientUnits="userSpaceOnUse" x1="707.9999" y1="956.7764" x2="1102.3618" y2="956.7764" gradientTransform="matrix(1 0 0 -1 0 281.5353)">
	<stop  offset="0" style="stop-color:#39B54A"/>
	<stop  offset="1" style="stop-color:#FF1D25"/>
</linearGradient>
<path class="st7" d="M1100-666.9c-0.6-1.4-1.4-2.7-2.2-3.9c0.1,0,0.1,0.1,0.2,0.1c-0.1-0.2-0.3-0.4-0.5-0.6
	c-0.1-0.2-0.2-0.3-0.4-0.5c-20.9-27.6-46.9-49.4-77.4-63.9c0,0.1,0,0.1,0,0.2l-12.7-5.9l-0.2,0.1c-8.1-3.2-16.5-5.8-25.2-8
	c-26.4-6.5-53-7.3-79.1-3.2l0,0l-0.4,0.1c-0.5,0.1-0.9,0.1-1.4,0.2l0,0l-13.9,2.6v0.1c-29.4,7-57.7,20.2-83.6,38.7
	c0.2,0.2,0.3,0.4,0.5,0.5l-0.7-0.1l-12,9c0,0,0,0,0,0.1c-33.5,27-62.3,63.1-83,105.9c26.5-37.5,60-67.2,96.9-86.8
	c-0.1-0.1-0.1-0.2-0.2-0.3c0.2,0.1,0.3,0.1,0.3,0.1l12-6l-0.1-1.1c0.2,0.4,0.4,0.7,0.5,1.1c23.1-10.6,47.3-17.2,72-19.4l13.6-0.6
	l0.1-0.5c0,0.1,0,0.2,0,0.4c17-0.3,34.1,1.5,51.1,5.7c11.8,2.9,23.2,6.9,34,11.8l12.8,6.6l0.4-0.2c0,0,0,0,0,0.1
	c23.1,12.5,43.5,29.4,60.8,49.8c0.5,0.7,1.1,1.5,1.7,2.1c2.6,2.8,5.8,4.8,9.5,5.7c12,2.9,24.5-6.4,28.1-20.8
	C1103.1-654.6,1102.4-661.4,1100-666.9z"/>
<g>
	<g>
		<path class="st8" d="M-24.3-416.8l-124-80.9c-0.8-0.5-1.5-0.8-2.2-1c-0.6-0.2-1.4-0.2-2.2,0s-1.8,0.7-3,1.5s-2.7,1.9-4.6,3.4
			c-2.3,1.8-4.1,3.3-5.3,4.5s-2,2.3-2.2,3.2c-0.2,1,0,1.9,0.8,2.8c0.7,0.9,2,1.9,3.7,2.9l138.2,88.3c0.6,0.4,1.2,0.7,1.7,0.9
			s1.1,0.3,1.7,0.2c0.6,0,1.3-0.2,2-0.5s1.5-0.7,2.4-1.2s1.9-1.2,3.1-2c1.1-0.8,2.4-1.8,3.9-3L-24.3-416.8L-24.3-416.8z"/>
	</g>
	<g>
		<path class="st9" d="M-19.4-419.3l-80.2-124.5c-0.5-0.7-1.1-1.3-1.6-1.8c-0.5-0.4-1.2-0.7-2-0.9c-0.8-0.1-2-0.1-3.4,0.1
			s-3.3,0.6-5.6,1.2c-2.8,0.7-5.1,1.3-6.7,1.9c-1.6,0.6-2.7,1.3-3.3,2c-0.6,0.8-0.7,1.7-0.4,2.8c0.3,1.1,1,2.5,2.2,4.2l90.2,137
			c0.4,0.6,0.8,1.1,1.2,1.5c0.4,0.4,0.9,0.7,1.5,0.9s1.3,0.3,2,0.4c0.8,0,1.7,0,2.7-0.1s2.3-0.3,3.6-0.6c1.4-0.3,2.9-0.7,4.7-1.1
			L-19.4-419.3L-19.4-419.3z"/>
	</g>
	<path class="st10" d="M-1.1-390.6c-0.5,0.9-1.1,1.5-1.9,2c-0.7,0.5-1.6,0.8-2.7,0.9s-2.5,0.1-4.2-0.1s-3.7-0.6-6.2-1.1
		c-1.8-0.4-3.5-0.7-4.8-1.1c-1.4-0.3-2.6-0.7-3.5-1.1c-1-0.4-1.8-0.7-2.5-1.1s-1.2-0.8-1.7-1.2c-0.4-0.4-0.8-0.9-0.9-1.4
		c-0.2-0.5-0.4-1.1-0.5-1.9l-21.9-162.5c-0.3-2-0.3-3.6-0.1-4.7c0.2-1.1,0.7-1.9,1.6-2.4c0.9-0.4,2.2-0.6,3.9-0.4
		c1.7,0.2,4,0.6,6.9,1.2c2.4,0.5,4.2,0.9,5.6,1.4c1.4,0.4,2.4,0.9,3.1,1.4s1.2,1.1,1.4,1.7c0.3,0.6,0.5,1.4,0.6,2.3l18.3,146.9h0.1
		l73.9-127.6c0.4-0.9,0.9-1.6,1.4-2.1s1.1-0.9,2.1-1c0.9-0.2,2.1-0.1,3.7,0c1.5,0.2,3.6,0.5,6.1,1.1c2.6,0.5,4.6,1.1,6.1,1.6
		s2.4,1.1,2.8,1.8s0.5,1.6,0.1,2.7c-0.4,1.1-1.1,2.5-2.1,4.2L-1.1-390.6z"/>
</g>
<g>
	<path class="st11" d="M484-838.7c4.4,9.7,6.6,20.5,6.2,31.7c14.7-0.9,29.8-0.1,45,2.3c10.9,1.7,21.5,4.3,31.7,7.7
		c5.1-7.2,8.7-15.7,10.2-25.1c0.3-2,0.5-4,0.7-6c0.1-2.1,0.1-4.3,0-6.4c-7.5-2.1-15.3-3.8-23.2-5C530.5-843.3,506.7-842.9,484-838.7
		z"/>
	<path class="st12" d="M665.3-783.7c-0.7-1-1.4-1.9-2.3-2.8l0.1,0.1c-0.1-0.1-0.3-0.3-0.4-0.4c-0.1-0.1-0.2-0.2-0.4-0.3
		c-20.8-19.3-45.5-34.3-73.3-43.7c0,0.6,0,1.3,0,1.9c-0.1,2.9-0.4,5.8-0.8,8.7c-1.6,10-5.2,19.2-10.4,27.2
		c21.2,8.3,40.6,19.9,57.6,34.1c0.5,0.5,1.1,1,1.7,1.5c2.5,1.9,5.5,3.3,8.8,3.8c10.7,1.7,20.7-5.5,22.4-16.2
		C669.2-774.9,667.9-779.8,665.3-783.7z"/>
	<path class="st13" d="M417.7-789.2c19.2-8.6,39.8-14.3,61.1-16.7c0.6-10.7-1.6-21.1-6.2-30.3c-25.1,6.1-48.6,16.8-69.4,31.3
		C408.8-800.4,413.7-795.1,417.7-789.2z"/>
	<path class="st14" d="M407.3-784.3c-3.8-5.2-8.4-9.8-13.6-13.6c-26.7,20.9-48.3,48.3-62.3,80.4
		C350.9-745.8,377.1-768.7,407.3-784.3z"/>
</g>
<g>
	<g>
		<circle class="st12" cx="503.6" cy="-720.4" r="10.9"/>
		<polyline class="st12" points="509.7,-711.3 595.9,-766.3 499,-730.1 		"/>
	</g>
</g>
<rect x="611.1" y="-461.6" class="st15" width="101.8" height="101.8"/>
<rect x="738.1" y="-461.6" class="st16" width="101.8" height="101.8"/>
<rect x="865.1" y="-463.3" class="st17" width="101.8" height="101.8"/>
<circle class="st12" cx="531" cy="-387.4" r="29"/>
<g>
	<path class="st18" d="M481.2,4c5.2,11.4,7.7,24.1,7.3,37.2c17.3-1.1,35-0.1,52.8,2.7c12.8,2,25.2,5,37.2,9c6-8.5,10.2-18.4,12-29.5
		c0.4-2.3,0.6-4.7,0.8-7c0.1-2.5,0.1-5,0-7.5c-8.8-2.5-18-4.5-27.2-5.9C535.8-1.4,507.9-0.9,481.2,4z"/>
	<path class="st12" d="M694,68.6c-0.8-1.2-1.6-2.2-2.7-3.3l0.1,0.1c-0.1-0.1-0.4-0.4-0.5-0.5c-0.1-0.1-0.2-0.2-0.5-0.4
		c-24.4-22.7-53.4-40.3-86-51.3c0,0.7,0,1.5,0,2.2c-0.1,3.4-0.5,6.8-0.9,10.2c-1.9,11.7-6.1,22.5-12.2,31.9
		c24.9,9.7,47.7,23.4,67.6,40c0.6,0.6,1.3,1.2,2,1.8c2.9,2.2,6.5,3.9,10.3,4.5c12.6,2,24.3-6.5,26.3-19
		C698.6,78.9,697.1,73.1,694,68.6z"/>
	<path class="st19" d="M403.4,62.1c22.5-10.1,46.7-16.8,71.7-19.6c0.7-12.6-1.9-24.8-7.3-35.6c-29.5,7.2-57,19.7-81.5,36.7
		C393,49,398.7,55.2,403.4,62.1z"/>
	<path class="st2" d="M391.2,67.9c-4.5-6.1-9.9-11.5-16-16c-31.3,24.5-56.7,56.7-73.1,94.4C325,113.1,355.7,86.2,391.2,67.9z"/>
	<g>
		<g>
			<circle class="st12" cx="504.2" cy="142.9" r="12.8"/>
			<polyline class="st12" points="511.4,153.5 612.6,89 498.8,131.5 			"/>
		</g>
	</g>
</g>
<g>
	<text transform="matrix(1 0 0 1 262.2671 342.045)" class="st11 st20 st21">Decalques Personalizados</text>
</g>
<g>
	<g>
		<g class="st22">
			<path class="st11" d="M43.9,251.7c0,4.3-0.2,7.4-0.7,9.3c-0.2,0.9-0.8,1.3-1.6,1.3c-2.3,0-5.7-0.1-10.3-0.4
				c-4.6-0.3-8-0.4-10.3-0.4c-2.2,0-5.4,0-9.7,0.1s-7.6,0.1-9.7,0.1c-0.8,0-1.2-0.4-1.2-1.2c0-3.4,0.1-8.5,0.3-15.3
				C0.9,238.5,1,233.4,1,230c0-3.6-0.2-9-0.5-16.2C0.2,206.6,0,201.2,0,197.6c0-0.7,0.4-1,1.2-1c0.6,0,1.4,0,2.6,0.1
				c1.1,0.1,2,0.1,2.6,0.1c0.6,0,1.4,0,2.6-0.1c1.2-0.1,2-0.1,2.6-0.1c0.7,0,1.1,0.3,1.1,0.9c0,3.3-0.1,8.2-0.4,14.8
				c-0.2,6.6-0.4,11.6-0.4,14.9c0,1.6,0,4.1,0,7.4c0,3.3,0,5.7,0,7.4c0,6.9,0.3,10.3,0.8,10.3c11.5,0,20.1-0.3,25.9-0.8
				c0.3,0,1-0.1,2.1-0.3c0.9-0.2,1.6-0.3,2.1-0.3C43.6,250.8,43.9,251.1,43.9,251.7z"/>
		</g>
	</g>
	<g class="st22">
		<path class="st2" d="M106.9,261.3c0,0.4-0.4,0.6-1.1,0.6c-0.6,0-1.5,0-2.6-0.1c-1.1-0.1-2-0.1-2.6-0.1c-0.6,0-1.5,0-2.7,0.1
			c-1.2,0.1-2.1,0.1-2.7,0.1c-0.9,0-2-2.4-3.3-7.1c-1.3-4.7-2.7-7.1-4.1-7.1c-1.1-0.1-4.1-0.1-9-0.1h-7.4c-5.1,0-8,0-8.7,0.1
			c-1.1,0.1-2.3,2.5-3.6,7.2c-1.3,4.7-2.2,7-2.9,7H45.8c-0.6,0-0.9-0.2-0.9-0.7c0-0.3,0.2-1,0.7-2.1l11.4-31.2
			c1-2.5,3.9-9.8,8.7-21.7c0.9-2,2-5,3.5-9c0.4-1.2,0.8-1.8,1.2-1.8c0.6,0,1.5,0.1,2.6,0.2c1.1,0.2,2,0.2,2.6,0.2
			c0.6,0,1.4-0.1,2.5-0.3c1.1-0.2,2-0.3,2.5-0.3c0.3,0,0.7,0.6,1.2,1.7c0.7,1.7,4.4,11.1,11,28.1C102.2,249,106.9,261,106.9,261.3z
			 M85.2,235.6c0-0.9-1.4-4.9-4.2-12.1c-2.7-6.9-4.6-11.5-5.7-13.7c-6.4,16.4-9.6,25-9.6,25.7c0,1.1,1.2,1.7,3.5,1.9
			c0.1,0,1.6,0,4.6,0h4.8C83,237.4,85.2,236.8,85.2,235.6z"/>
		<path class="st2" d="M165.5,197.5c0,3.6-0.1,9-0.4,16.2c-0.3,7.2-0.4,12.6-0.4,16.2c0,1.2,0,2.9,0,5.3c0,2.3,0,4.1,0,5.2
			c0,6.5-0.6,11-1.8,13.5c-1.9,3.8-5.5,6.5-10.8,7.8c-3.3,0.8-7.9,1.3-13.9,1.3c-10.9,0-18-1.8-21.4-5.4c-2.6-2.8-3.9-8.4-3.9-16.8
			c0-1,0-2.8,0-5.2c0-2.4,0-4.4,0-5.7c0-3.7-0.2-10.4-0.5-20.2c0-2.5-0.1-6.3-0.4-11.4c0-0.4,0-0.6,0-0.7c0-0.7,0.4-1,1.2-1
			c1.3,0,3,0,5.2,0c2.5,0,4.2,0,5.1,0c0.7,0,1.1,0.3,1.1,0.8c0,4.7-0.1,11.8-0.3,21.3c-0.2,9.5-0.3,16.6-0.3,21.3
			c0,5.3,1.2,9,3.6,10.8c2,1.7,5.8,2.5,11.3,2.5c5,0,8.5-0.7,10.7-2c2.7-1.7,4-4.9,4-9.6c0-4.9-0.1-12.3-0.2-22.1
			c-0.2-9.8-0.2-17.2-0.2-22.1c0-0.5,0.4-0.8,1.3-0.9c0.7-0.1,1.6-0.1,2.8,0c1.4,0.1,2.1,0.2,2,0.2c0.6,0,1.4,0,2.5-0.1
			c1.1-0.1,2-0.1,2.5-0.1C165.1,196.5,165.5,196.9,165.5,197.5z"/>
		<path class="st2" d="M225.4,261.4c0,0.2-0.2,0.4-0.7,0.4c-0.6,0-1.5,0-2.7-0.1s-2.1-0.1-2.7-0.1c-0.7,0-1.6,0-2.9,0.1
			c-1.3,0.1-2.3,0.1-2.9,0.1c-0.7,0-1.3-0.4-1.6-1.2c-1-2.1-3.8-8.6-8.5-19.6c-0.5-1.1-1.6-1.8-3.4-2c-0.4,0-1.8,0-4.2,0
			c-4.3,0-6.8,0.1-7.6,0.2c-0.7,0.1-1,0.9-1,2.4c0,2.2,0.1,5.4,0.3,9.7c0.2,4.3,0.3,7.6,0.3,9.7c0,0.7-0.3,1-0.9,1
			c-0.6,0-1.6-0.1-2.8-0.2c-1.3-0.1-2.2-0.2-2.9-0.2c-0.5,0-1.3,0-2.4,0.1c-1.1,0.1-1.9,0.1-2.4,0.1c-0.8,0-1.2-0.4-1.2-1.1
			c0-3.4,0.2-8.6,0.5-15.5c0.3-6.9,0.5-12.1,0.5-15.5c0-9.8-0.4-20.3-1.1-31.4l0-0.7c0-0.6,0.6-0.9,2-0.9c2.7,0,6.7-0.1,12-0.2
			c5.3-0.1,9.3-0.2,11.9-0.2c6.9,0,12.4,1.6,16.6,4.9c4.6,3.6,6.9,8.8,6.9,15.5c0,4.6-0.6,8.2-1.9,10.8c-1.3,2.8-3.7,5.4-7.3,8
			c-0.6,0.4-0.9,0.8-0.9,1.2c0,0.4,1.9,4.6,5.6,12.4C223.5,256.8,225.4,260.9,225.4,261.4z M212.6,219.2c0-5.6-1.6-9.4-4.8-11.3
			c-2.4-1.4-6.7-2.1-12.9-2.1c-5,0-7.6,0.4-7.7,1.2c-0.2,1.7-0.3,6.2-0.3,13.4v8.9c0.1,0.1,0.3,0.1,0.6,0.2c0.6,0.1,1.5,0.1,2.7,0.2
			c2.9,0.2,6.1,0.2,9.5,0.2C208.3,230.1,212.6,226.5,212.6,219.2z"/>
		<path class="st2" d="M293.2,229.1c0,9.2-2.9,17.1-8.8,23.8c-6.1,6.9-13.8,10.3-22.9,10.3c-9.2,0-16.8-3.4-22.9-10.3
			c-5.9-6.6-8.8-14.5-8.8-23.8c0-9.2,3-17.1,8.9-23.8c6.1-6.9,13.7-10.4,22.8-10.4c9.1,0,16.7,3.5,22.8,10.4
			C290.2,212,293.2,219.9,293.2,229.1z M281.9,229c0-6.1-1.9-11.4-5.7-15.9c-4-4.8-9-7.2-14.9-7.2c-5.9,0-10.9,2.4-14.8,7.3
			c-3.7,4.5-5.6,9.8-5.6,15.9c0,6,1.9,11.3,5.6,15.9c3.9,4.8,8.9,7.3,14.8,7.3c6,0,11-2.4,15-7.3C280.1,240.5,281.9,235.1,281.9,229
			z"/>
	</g>
	<g class="st22">
		<path class="st11" d="M368.5,251.7c0,4.3-0.2,7.4-0.7,9.3c-0.2,0.9-0.8,1.3-1.6,1.3c-2.3,0-5.7-0.1-10.3-0.4
			c-4.6-0.3-8-0.4-10.3-0.4c-2.2,0-5.4,0-9.7,0.1c-4.3,0.1-7.6,0.1-9.7,0.1c-0.8,0-1.2-0.4-1.2-1.2c0-3.4,0.1-8.5,0.3-15.3
			c0.2-6.8,0.3-11.9,0.3-15.4c0-3.6-0.2-9-0.5-16.2c-0.3-7.2-0.5-12.6-0.5-16.2c0-0.7,0.4-1,1.2-1c0.6,0,1.4,0,2.6,0.1
			c1.1,0.1,2,0.1,2.6,0.1c0.6,0,1.4,0,2.6-0.1c1.2-0.1,2-0.1,2.6-0.1c0.7,0,1.1,0.3,1.1,0.9c0,3.3-0.1,8.2-0.4,14.8
			c-0.2,6.6-0.4,11.6-0.4,14.9c0,1.6,0,4.1,0,7.4c0,3.3,0,5.7,0,7.4c0,6.9,0.3,10.3,0.8,10.3c11.4,0,20.1-0.3,25.9-0.8
			c0.3,0,1-0.1,2.1-0.3c0.9-0.2,1.6-0.3,2.1-0.3C368.2,250.8,368.5,251.1,368.5,251.7z"/>
	</g>
	<g class="st22">
		<path class="st2" d="M427.2,197.5c0,3.6-0.1,9-0.4,16.2c-0.3,7.2-0.4,12.6-0.4,16.2c0,1.2,0,2.9,0,5.3c0,2.3,0,4.1,0,5.2
			c0,6.5-0.6,11-1.8,13.5c-1.9,3.8-5.5,6.5-10.8,7.8c-3.3,0.8-7.9,1.3-13.9,1.3c-10.9,0-18-1.8-21.4-5.4c-2.6-2.8-3.9-8.4-3.9-16.8
			c0-1,0-2.8,0-5.2c0-2.4,0-4.4,0-5.7c0-3.7-0.2-10.4-0.5-20.2c0-2.5-0.1-6.3-0.4-11.4c0-0.4,0-0.6,0-0.7c0-0.7,0.4-1,1.2-1
			c1.3,0,3,0,5.2,0c2.5,0,4.2,0,5.1,0c0.7,0,1.1,0.3,1.1,0.8c0,4.7-0.1,11.8-0.3,21.3c-0.2,9.5-0.3,16.6-0.3,21.3
			c0,5.3,1.2,9,3.6,10.8c2,1.7,5.8,2.5,11.3,2.5c5,0,8.5-0.7,10.7-2c2.7-1.7,4-4.9,4-9.6c0-4.9-0.1-12.3-0.2-22.1
			c-0.2-9.8-0.2-17.2-0.2-22.1c0-0.5,0.4-0.8,1.3-0.9c0.7-0.1,1.6-0.1,2.8,0c1.4,0.1,2.1,0.2,2,0.2c0.6,0,1.4,0,2.5-0.1
			c1.1-0.1,2-0.1,2.5-0.1C426.9,196.5,427.2,196.9,427.2,197.5z"/>
		<path class="st2" d="M474.1,201.2c-0.6,1-1.5,2.6-2.6,4.7c-0.3,1-0.9,2.3-1.8,4.1c-0.2,0.3-0.4,0.4-0.7,0.4c0,0-1.5-0.6-4.5-1.7
			c-3-1.1-5.5-1.7-7.5-1.7c-5.7,0-8.6,2.5-8.6,7.5c0,2.8,2,5.2,6,7.3c6.7,3.5,10.5,5.5,11.2,6c4,3.2,6,7.5,6,12.9
			c0,6.9-2.7,12.4-8.2,16.4c-4.9,3.6-11,5.4-18.2,5.4c-3.4,0-5.1-0.4-5.4-1.1c-0.1-1.2-0.4-2.9-0.8-5.2c-0.2-0.9-0.6-2.3-1.2-4.2
			c-0.1-0.3-0.1-0.5-0.1-0.8c0-0.4,0.2-0.7,0.7-0.7c0.7,0,1.9,0.1,3.4,0.2c1.5,0.2,2.7,0.2,3.5,0.2c9.6,0,14.4-3.1,14.4-9.3
			c0-3-1.9-5.7-5.8-7.9c-7.1-4-10.7-6.1-10.8-6.3c-3.9-3.2-5.9-7.4-5.9-12.8c0-5.8,1.9-10.4,5.7-13.9c3.7-3.4,8.5-5,14.3-5
			c2.5,0,5.3,0.4,8.6,1.2c3.5,0.9,6.1,2,7.9,3.3C473.8,200.7,474,200.9,474.1,201.2z"/>
		<path class="st2" d="M524.6,205.3c0,0.8-0.3,1.2-0.8,1.2c-0.9,0-6.4-0.2-16.5-0.6c-0.3,9.5-0.4,17-0.4,22.8
			c0,3.6,0.1,8.9,0.4,16.1c0.3,7.1,0.4,12.5,0.4,16.1c0,0.7-0.4,1-1.3,1c-0.6,0-1.4,0-2.6-0.1s-2-0.1-2.6-0.1c-0.6,0-1.4,0-2.6,0.1
			c-1.1,0.1-2,0.1-2.6,0.1c-0.8,0-1.2-0.4-1.2-1.2c0-3.5,0.1-8.8,0.4-15.9c0.3-7.1,0.4-12.4,0.4-16c0-5.5-0.2-13.1-0.5-22.8
			c-8,0.5-13.9,0.7-17.6,0.7c-0.4,0-0.6-0.2-0.6-0.5c0-0.6,0.1-1.4,0.4-2.4c0.3-1.4,0.5-2.2,0.6-2.4c0.1-1.1,0.3-2.6,0.7-4.5
			c0.2-0.4,0.4-0.6,0.8-0.6l0.6,0c11,0.7,18.2,1,21.7,1c3.1,0,8.2-0.2,15.2-0.7c4.8-0.3,6.8-0.5,6-0.5c0.8,0,1.3,0.3,1.3,0.8
			c-0.1-0.3-0.1,1.2-0.1,4.5c0,0.4,0,1,0.1,1.9C524.6,204.2,524.6,204.9,524.6,205.3z"/>
		<path class="st2" d="M591.7,229.1c0,9.2-2.9,17.1-8.8,23.8c-6.1,6.9-13.8,10.3-22.9,10.3c-9.2,0-16.8-3.4-22.9-10.3
			c-5.9-6.6-8.8-14.5-8.8-23.8c0-9.2,3-17.1,8.9-23.8c6.1-6.9,13.7-10.4,22.8-10.4c9.1,0,16.7,3.5,22.8,10.4
			C588.7,212,591.7,219.9,591.7,229.1z M580.5,229c0-6.1-1.9-11.4-5.7-15.9c-4-4.8-9-7.2-14.9-7.2c-5.9,0-10.9,2.4-14.8,7.3
			c-3.7,4.5-5.6,9.8-5.6,15.9c0,6,1.9,11.3,5.6,15.9c3.9,4.8,8.9,7.3,14.8,7.3c6,0,11-2.4,15-7.3C578.6,240.5,580.5,235.1,580.5,229
			z"/>
		<path class="st2" d="M636.6,201.2c-0.6,1-1.5,2.6-2.6,4.7c-0.3,1-0.9,2.3-1.8,4.1c-0.2,0.3-0.4,0.4-0.7,0.4c0,0-1.5-0.6-4.5-1.7
			c-3-1.1-5.5-1.7-7.5-1.7c-5.7,0-8.6,2.5-8.6,7.5c0,2.8,2,5.2,6,7.3c6.7,3.5,10.5,5.5,11.2,6c4,3.2,6,7.5,6,12.9
			c0,6.9-2.7,12.4-8.2,16.4c-4.9,3.6-11,5.4-18.2,5.4c-3.4,0-5.2-0.4-5.4-1.1c-0.1-1.2-0.4-2.9-0.8-5.2c-0.2-0.9-0.6-2.3-1.2-4.2
			c-0.1-0.3-0.1-0.5-0.1-0.8c0-0.4,0.2-0.7,0.7-0.7c0.7,0,1.9,0.1,3.4,0.2c1.5,0.2,2.7,0.2,3.5,0.2c9.6,0,14.4-3.1,14.4-9.3
			c0-3-1.9-5.7-5.8-7.9c-7.1-4-10.7-6.1-10.8-6.3c-3.9-3.2-5.9-7.4-5.9-12.8c0-5.8,1.9-10.4,5.7-13.9c3.7-3.4,8.5-5,14.3-5
			c2.5,0,5.3,0.4,8.6,1.2c3.5,0.9,6.1,2,7.9,3.3C636.3,200.7,636.5,200.9,636.6,201.2z"/>
		<path class="st2" d="M701.4,261.3c0,0.4-0.4,0.6-1.1,0.6c-0.6,0-1.5,0-2.6-0.1c-1.1-0.1-2-0.1-2.6-0.1c-0.6,0-1.5,0-2.7,0.1
			s-2.1,0.1-2.7,0.1c-0.9,0-2-2.4-3.3-7.1c-1.3-4.7-2.7-7.1-4.1-7.1c-1.1-0.1-4.1-0.1-9-0.1H666c-5.1,0-8,0-8.7,0.1
			c-1.1,0.1-2.3,2.5-3.6,7.2c-1.3,4.7-2.2,7-2.9,7h-10.5c-0.6,0-0.9-0.2-0.9-0.7c0-0.3,0.2-1,0.7-2.1l11.4-31.2
			c1-2.5,3.9-9.8,8.7-21.7c0.9-2,2-5,3.5-9c0.4-1.2,0.8-1.8,1.2-1.8c0.6,0,1.5,0.1,2.6,0.2c1.1,0.2,2,0.2,2.6,0.2
			c0.6,0,1.4-0.1,2.5-0.3c1.1-0.2,2-0.3,2.5-0.3c0.3,0,0.7,0.6,1.2,1.7c0.7,1.7,4.4,11.1,11,28.1C696.7,249,701.4,261,701.4,261.3z
			 M679.7,235.6c0-0.9-1.4-4.9-4.2-12.1c-2.7-6.9-4.6-11.5-5.7-13.7c-6.4,16.4-9.6,25-9.6,25.7c0,1.1,1.2,1.7,3.5,1.9
			c0.1,0,1.6,0,4.6,0h4.8C677.5,237.4,679.7,236.8,679.7,235.6z"/>
	</g>
	<g>
		<g class="st22">
			<path class="st11" d="M781.7,219.8c0,1.3-3,7.7-9.1,19.2c-3.8,7.2-7.7,14.3-11.5,21.5c-0.5,0.9-1,1.3-1.5,1.3h-9.4
				c-0.4,0-0.9-0.4-1.3-1.3c-0.1-0.2-3.8-7.1-11.1-20.8c-6.2-11.8-9.4-18.2-9.4-19.3c0-2.5,0.1-6.1,0.3-11.1
				c0.2-4.9,0.3-8.6,0.3-11.1c0-1.1,0.4-1.7,1.1-1.7c0.6,0,1.4,0,2.6,0.1c1.1,0.1,2,0.1,2.6,0.1c0.6,0,1.4,0,2.6-0.1
				c1.1-0.1,2-0.1,2.6-0.1c0.7,0,1.1,0.3,1.1,0.9c0,2.5-0.2,6.3-0.5,11.4c-0.3,5.1-0.5,8.9-0.5,11.4c0,2.1,4.8,11.5,14.4,28.2
				c2.5-4.3,5.3-9.3,8.3-14.9c4.3-8.1,6.5-12.9,6.5-14.3c0-2.4-0.1-6-0.2-10.8c-0.2-4.8-0.2-8.4-0.2-10.8c0-0.6,0.3-0.9,1-0.9
				c0.6,0,1.5,0,2.6,0.1c1.1,0.1,2,0.1,2.6,0.1s1.4,0,2.5-0.1c1.1-0.1,2-0.1,2.5-0.1c0.7,0,1.1,0.3,1.2,0.9c0-0.2,0,0.4,0,1.8
				c0,2.3,0,5.7,0.1,10.3C781.6,214.1,781.7,217.5,781.7,219.8z"/>
		</g>
	</g>
	<g class="st22">
		<path class="st2" d="M802.2,260.8c0,0.7-0.5,1-1.3,1c-0.6,0-1.4,0-2.6-0.1c-1.1-0.1-2-0.1-2.6-0.1c-0.6,0-1.5,0-2.6,0.1
			c-1.1,0.1-2,0.1-2.6,0.1c-0.8,0-1.2-0.4-1.2-1.1c0-3.5,0.2-8.9,0.5-16c0.3-7.1,0.5-12.5,0.5-16c0-3.4-0.2-8.6-0.5-15.5
			c-0.3-6.9-0.5-12.1-0.5-15.5c0-0.8,0.4-1.2,1.1-1.2c0.6,0,1.5,0,2.7,0.1c1.2,0.1,2.1,0.1,2.7,0.1c0.6,0,1.4,0,2.5-0.1
			c1.1-0.1,2-0.1,2.5-0.1c0.8,0,1.2,0.3,1.2,0.9c0,3.5-0.1,8.7-0.4,15.6c-0.2,6.9-0.4,12.2-0.4,15.6c0,3.6,0.1,8.9,0.4,16.1
			C802,251.9,802.2,257.3,802.2,260.8z"/>
		<path class="st2" d="M856,252.5c0,0.5-0.1,1.2-0.4,2.1c-0.3,1.2-0.4,1.9-0.5,2.1c-0.1,1.1-0.3,2.7-0.7,4.9
			c-0.2,0.6-0.6,0.8-1.2,0.8c-0.3,0-0.9-0.1-1.8-0.2c-3.8-0.6-9.7-0.8-17.7-0.8c-2.3,0-5.7,0.1-10.2,0.2c-4.6,0.1-8,0.2-10.2,0.2
			c-1,0-1.5-0.4-1.5-1.3c0-3.5,0.2-8.7,0.6-15.7c0.4-7,0.6-12.2,0.6-15.7c0-3.5-0.2-10.1-0.6-19.8c-0.1-2.5-0.2-6.2-0.5-11.1l0-0.7
			c0-0.7,0.4-1.1,1.2-1.1c2.2,0,5.4,0.1,9.8,0.2c4.3,0.1,7.6,0.2,9.8,0.2c2.1,0,5.2-0.1,9.3-0.2c4.1-0.1,7.3-0.2,9.3-0.2
			c1.5,0,2.2,0.5,2.4,1.3c0.7,4.1,1,6.6,1,7.6c0,0.7-0.3,1.1-1,1.1c-2.6,0-6.6-0.1-12-0.4c-5.4-0.3-9.4-0.4-12.1-0.4
			c-2.5,0-4.1,0.3-4.8,1c-0.7,0.7-1,2.4-1,5.1v6.9c0,1.9,0,3,0.1,3.3c0.3,1,1.1,1.4,2.4,1.4c0.4,0,0.9,0,1.6,0c0.7,0,1.2,0,1.6,0
			c6.1,0,11.5-0.1,16.4-0.3c1.9-0.1,4.1-0.2,6.7-0.5c0.7-0.1,1,0.2,1,0.8c0,1-0.1,2.5-0.3,4.6c-0.2,2-0.3,3.6-0.3,4.6
			c0,0.6-0.5,0.8-1.4,0.8c-0.4,0-1.8-0.1-4.1-0.3c-1.7-0.2-5.6-0.3-11.7-0.3c-5.1,0-8.4,0.1-9.7,0.2c-1.2,0.1-2,0.7-2.1,2
			c0-0.2,0,1,0,3.6v6.9c0,3.2,0.5,5.2,1.5,6c0.8,0.7,2.7,1,5.8,1l5.1,0c2.2,0,8.3-0.4,18.3-1.1l0.7,0
			C855.7,251.2,856,251.6,856,252.5z"/>
		<path class="st2" d="M876,260.8c0,0.7-0.5,1-1.3,1c-0.6,0-1.4,0-2.6-0.1c-1.1-0.1-2-0.1-2.6-0.1c-0.6,0-1.5,0-2.6,0.1
			c-1.1,0.1-2,0.1-2.6,0.1c-0.8,0-1.2-0.4-1.2-1.1c0-3.5,0.2-8.9,0.5-16c0.3-7.1,0.5-12.5,0.5-16c0-3.4-0.2-8.6-0.5-15.5
			c-0.3-6.9-0.5-12.1-0.5-15.5c0-0.8,0.4-1.2,1.1-1.2c0.6,0,1.5,0,2.7,0.1c1.2,0.1,2.1,0.1,2.7,0.1c0.6,0,1.4,0,2.5-0.1
			c1.1-0.1,2-0.1,2.5-0.1c0.8,0,1.2,0.3,1.2,0.9c0,3.5-0.1,8.7-0.4,15.6c-0.2,6.9-0.4,12.2-0.4,15.6c0,3.6,0.1,8.9,0.4,16.1
			C875.9,251.9,876,257.3,876,260.8z"/>
		<path class="st2" d="M936.1,261.4c0,0.2-0.2,0.4-0.7,0.4c-0.6,0-1.5,0-2.7-0.1c-1.2-0.1-2.1-0.1-2.7-0.1c-0.7,0-1.6,0-2.9,0.1
			c-1.3,0.1-2.3,0.1-2.9,0.1c-0.7,0-1.3-0.4-1.6-1.2c-1-2.1-3.8-8.6-8.5-19.6c-0.5-1.1-1.6-1.8-3.4-2c-0.4,0-1.8,0-4.2,0
			c-4.3,0-6.8,0.1-7.6,0.2c-0.7,0.1-1,0.9-1,2.4c0,2.2,0.1,5.4,0.3,9.7c0.2,4.3,0.3,7.6,0.3,9.7c0,0.7-0.3,1-0.9,1
			c-0.6,0-1.6-0.1-2.8-0.2s-2.2-0.2-2.9-0.2c-0.5,0-1.3,0-2.4,0.1c-1.1,0.1-1.9,0.1-2.4,0.1c-0.8,0-1.2-0.4-1.2-1.1
			c0-3.4,0.2-8.6,0.5-15.5c0.3-6.9,0.5-12.1,0.5-15.5c0-9.8-0.4-20.3-1.1-31.4l0-0.7c0-0.6,0.6-0.9,2-0.9c2.7,0,6.7-0.1,12-0.2
			c5.3-0.1,9.3-0.2,11.9-0.2c6.9,0,12.4,1.6,16.6,4.9c4.6,3.6,6.9,8.8,6.9,15.5c0,4.6-0.6,8.2-1.9,10.8c-1.3,2.8-3.7,5.4-7.3,8
			c-0.6,0.4-0.9,0.8-0.9,1.2c0,0.4,1.9,4.6,5.6,12.4C934.3,256.8,936.1,260.9,936.1,261.4z M923.4,219.2c0-5.6-1.6-9.4-4.8-11.3
			c-2.4-1.4-6.7-2.1-12.9-2.1c-5,0-7.6,0.4-7.7,1.2c-0.2,1.7-0.3,6.2-0.3,13.4v8.9c0.1,0.1,0.3,0.1,0.6,0.2c0.6,0.1,1.5,0.1,2.7,0.2
			c2.9,0.2,6.1,0.2,9.5,0.2C919.1,230.1,923.4,226.5,923.4,219.2z"/>
		<path class="st2" d="M1000,261.3c0,0.4-0.4,0.6-1.1,0.6c-0.6,0-1.5,0-2.6-0.1c-1.1-0.1-2-0.1-2.6-0.1c-0.6,0-1.5,0-2.7,0.1
			c-1.2,0.1-2.1,0.1-2.7,0.1c-0.9,0-2-2.4-3.3-7.1c-1.3-4.7-2.7-7.1-4.1-7.1c-1.1-0.1-4.1-0.1-9-0.1h-7.4c-5.1,0-8,0-8.7,0.1
			c-1.1,0.1-2.3,2.5-3.6,7.2c-1.3,4.7-2.2,7-2.9,7h-10.5c-0.6,0-0.9-0.2-0.9-0.7c0-0.3,0.2-1,0.7-2.1l11.4-31.2
			c1-2.5,3.9-9.8,8.7-21.7c0.9-2,2-5,3.5-9c0.4-1.2,0.8-1.8,1.2-1.8c0.6,0,1.5,0.1,2.6,0.2c1.1,0.2,2,0.2,2.6,0.2
			c0.6,0,1.4-0.1,2.5-0.3c1.1-0.2,2-0.3,2.5-0.3c0.3,0,0.7,0.6,1.2,1.7c0.7,1.7,4.4,11.1,11,28.1C995.3,249,1000,261,1000,261.3z
			 M978.3,235.6c0-0.9-1.4-4.9-4.2-12.1c-2.7-6.9-4.6-11.5-5.7-13.7c-6.4,16.4-9.6,25-9.6,25.7c0,1.1,1.2,1.7,3.5,1.9
			c0.1,0,1.6,0,4.6,0h4.8C976.1,237.4,978.3,236.8,978.3,235.6z"/>
	</g>
</g>
</svg>
