<?xml version="1.0" encoding="utf-8"?>
<!-- Generator: Adobe Illustrator 22.1.0, SVG Export Plug-In . SVG Version: 6.00 Build 0)  -->
<svg version="1.1" id="Camada_1" xmlns="http://www.w3.org/2000/svg" xmlns:xlink="http://www.w3.org/1999/xlink" x="0px" y="0px"
	 viewBox="0 0 300 206" style="enable-background:new 0 0 300 206;" xml:space="preserve">
<style type="text/css">
	.st0{fill:#F2F2F2;}
</style>
<g>
	<g>
		<g>
			<g>
				<path class="st0" d="M138.6,206c-19.5-0.2-50-4.8-78.6-18.9c-20.9-10.3-38.6-24.3-49.6-45.2C-7,108.7-4.6,66.6,33.1,36.8
					c22.7-18,48.8-28.2,77.1-33.1c42.7-7.5,84.3-3.9,124.4,13.5c16.4,7.1,31,17,43.6,29.9c29.3,30.2,26,73.2,8.6,100.2
					c-14.5,22.7-35.8,36.6-60.4,46C204.3,201.7,178,206.1,138.6,206z M6.8,91.4c-1.4,16.1,2.9,29.9,11.6,42.4
					c13.2,18.9,31.7,31,52.5,39.7c32.8,13.7,67.2,17.6,102.3,14c27.4-2.8,53.6-10.1,77.2-24.8c18-11.2,32.8-25.4,40.1-46
					c2.6-7.5,4-15.3,2.7-24.6c-20,6.2-39.4,12.2-58.7,18.2c3.5,14.9-0.5,20-16.5,22.7c-2.4,9.3-7.2,13.2-16.8,14.5
					c-1.6,0.2-3.4,1.6-4.4,3c-3.9,5.4-8.8,8.6-15.7,7.9c-1.1-0.1-2.6-0.2-3.2,0.4c-7.4,7.1-15.5,5.3-23.8,2.1
					c-1.4-0.5-3.6-0.4-4.8,0.3c-9.5,5.7-17.9,4.1-24.7-4.6c-0.8-1-2.6-1.9-3.9-1.9c-6.4,0.3-11.3-2.2-15.3-7.1c-0.9-1.1-2.6-1.9-4-2
					c-7.2-0.4-12.5-3.7-15.5-10.2c-1.1-2.3-2.2-3.1-4.7-3.3c-9-0.9-14.7-7.9-13.3-16.6c0.5-3.2-0.5-4.5-3-5.8
					C46.7,100.3,27,96,6.8,91.4z M138.7,130.3c13.7,2.7,17.6,8.1,16.3,22.6c-0.1,0.9,0.2,2.1,0.8,2.6c4,3.7,13.5,3.3,17.7-0.9
					c-2.3-2.6-4.7-5.1-6.9-7.7c-2.1-2.5-4.1-5-6.1-7.5c0.5-0.5,0.9-0.9,1.4-1.4c1.4,0.9,3,1.7,4.2,2.8c3.7,3.4,7.3,6.9,11,10.3
					c3.4,3.1,9.4,2.7,12.8-0.7c3.8-3.8,1.6-6.9-1.2-9.9c-3.4-3.7-6.7-7.4-10-11.2c-1.2-1.4-2.2-2.9-3.3-4.4c0.4-0.4,0.7-0.8,1.1-1.3
					c1.5,0.9,3.3,1.6,4.6,2.8c4.6,4.2,8.9,8.6,13.5,12.8c4.4,4.1,10.8,3.5,15.2-1.2c3.6-3.9,3.3-7.4-1.4-12.2
					c-5.4-5.5-10.9-10.9-16.3-16.4c-1.1-1.1-1.7-2.6-2.6-4c0.4-0.4,0.8-0.7,1.2-1.1c1.7,1.1,3.5,2.1,5,3.4
					c6.4,5.6,12.7,11.5,19.2,17c4.1,3.5,10.6,2.6,14-1.5c2.8-3.4,2.4-8-1.7-11.5c-19-16.2-37.9-32.4-57.2-48.2
					c-9.3-7.6-15.6-7.5-25.7-0.9c-6,3.9-11.6,8.4-17.5,12.6c-7.6,5.3-15.7,5.1-23.9,1.9c-6.8-2.7-7.7-7.3-2.8-12.8
					c4.3-4.7,8.7-9.4,14.1-15.2c-4.4,1.1-7.3,1.7-10.1,2.6c-8.2,2.7-16.5,3-24.7,0.8c-12.4-3.3-24.7-7-36.9-11
					c-3.4-1.1-5.6-1-7.9,1.6c-5.3,5.8-11,11.2-15.8,17.4c-5.5,7.2-9.2,15.4-10.9,24.8c3.2,0.9,6.1,1.7,8.9,2.4
					c18.3,4.6,36.7,9,53.3,18.7c1,0.6,3.1,0.2,4.3-0.5c5.9-3.3,11.4-2.8,17,0.9c1.2,0.8,3.3,1.2,4.6,0.7c8-2.8,14.2-1.5,20.1,4.4
					c0.8,0.8,2.1,1.6,3.2,1.6C133.1,113.7,136.4,116.5,138.7,130.3z M102.7,70.5c4.7,4.4,12.9,5.1,19.4,1.2
					c4.4-2.7,8.5-5.9,12.6-9.1c18.5-14.2,26.1-14.2,44.1,0.9c16,13.4,31.9,27,47.7,40.6c2.5,2.2,4.4,2.3,7.5,1.3
					c18.5-6.2,37.1-12,55.7-18c1-0.3,2-0.9,3.1-1.3C289.4,69.1,280,56,267.7,44.6c-2.4-2.2-4.3-2.3-7.1-1.1
					c-25.5,11-50.5,10.5-76.2-0.6C144.6,25.5,124.1,42.7,102.7,70.5z M44.4,35.7c-0.1,0.6-0.2,1.2-0.4,1.9
					c14.5,3.6,28.9,8.9,43.6,10.1c13.7,1.1,27.7-2.2,40.1-9.5c2.7-1.6,5.6-3,8.6-4.1c18.2-6.4,35.6-3.4,52.6,4.4
					c12.4,5.7,25.3,8.5,39,7.6c10.7-0.7,20.9-3.4,31-8C206.3-2.5,103.1-5.7,44.4,35.7z M91.7,117.7c-2.6-7.6-7.1-10.4-12.7-8.4
					c-4.9,1.8-7.4,7-5.6,11.7c2.2,6,7,7.2,14.6,4.4c2.1,4.3,3.4,9,6.4,12.4c3.7,4.2,9,3.2,12,1.1c3.1,3.7,5,8,8.2,9.3
					c3.4,1.4,7.9,0,12.3-0.2c3.1,8.8,7.3,12.3,14.4,11.1c5.5-0.9,10.3-6.2,9.7-11.7c-0.3-2.7-1.4-5.6-3.1-7.7c-4.1-5-9.8-4.5-16-2.6
					c1.5-6.4,3.4-12-1.8-16.3c-5.1-4.2-10.4-3-15.5,0.7C112.2,108.9,99.1,108.4,91.7,117.7z"/>
			</g>
		</g>
	</g>
</g>
</svg>
