<?xml version="1.0" encoding="utf-8"?>
<!-- Generator: Adobe Illustrator 22.1.0, SVG Export Plug-In . SVG Version: 6.00 Build 0)  -->
<svg version="1.1" id="Camada_1" xmlns="http://www.w3.org/2000/svg" xmlns:xlink="http://www.w3.org/1999/xlink" x="0px" y="0px"
	 viewBox="0 0 300.2 300.2" style="enable-background:new 0 0 300.2 300.2;" xml:space="preserve">
<style type="text/css">
	.st0{fill:#F2F2F2;}
</style>
<g>
	<g>
		<g>
			<g>
				<path class="st0" d="M300,142.5C298,63.5,232.9,0,152.8,0C73.6,0,9.1,62,5.7,139.8c-0.1,2.1-0.1,4.3-0.1,6.4
					c0,27.6,7.7,53.4,21.1,75.5L0.1,300.1l81.6-25.9c21.1,11.6,45.4,18.2,71.2,18.2c81.4,0,147.3-65.4,147.3-146.2
					C300.1,145,300.1,143.7,300,142.5z M152.8,269.1c-25.2,0-48.5-7.4-68.1-20.3L37.1,264l15.4-45.6C37.7,198,29,173.1,29,146.2
					c0-4,0.2-8,0.6-11.9c6.1-62.2,59-110.9,123.2-110.9c65,0,118.5,50,123.4,113.3c0.3,3.2,0.4,6.3,0.4,9.6
					C276.6,214,221.1,269.1,152.8,269.1z"/>
				<path class="st0" d="M220.3,175.7c-3.7-1.8-21.4-10.5-24.7-11.7s-5.7-1.8-8.1,1.8c-2.4,3.6-9.4,11.7-11.4,14
					c-2.1,2.4-4.2,2.7-7.9,0.9c-3.6-1.8-15.2-5.5-29-17.8c-10.7-9.4-18-21.2-20.1-24.8s-0.2-5.5,1.6-7.3c1.7-1.7,3.6-4.2,5.4-6.3
					c0.5-0.6,0.9-1.2,1.3-1.7c0.8-1.3,1.4-2.6,2.3-4.3c1.2-2.4,0.6-4.5-0.3-6.3c-0.9-1.8-8.1-19.4-11.2-26.6c-3-7.2-6-5.9-8.1-5.9
					s-4.5-0.3-6.9-0.3s-6.3,0.9-9.7,4.5c-3.2,3.6-12.5,12.3-12.5,30c0,4.1,0.8,8.3,1.9,12.2c3.7,12.6,11.5,23,12.9,24.8
					c1.8,2.3,25,39.7,61.6,54.1c36.7,14.3,36.7,9.5,43.4,8.9c6.6-0.6,21.4-8.6,24.3-17c3-8.3,3-15.5,2.1-17S223.9,177.5,220.3,175.7
					z"/>
			</g>
		</g>
	</g>
</g>
</svg>
